<svg xmlns="http://www.w3.org/2000/svg" width="1894" height="244" viewBox="0 0 1894 244">
<path fill="#ffffff" d="M91.73,10.9c2.69-0.72,5.45,0.87,6.17,3.56c0.72,2.69-0.88,5.45-3.56,6.17c-2.69,0.72-5.44-0.88-6.16-3.56
	C87.45,14.38,89.04,11.62,91.73,10.9z M145.1,14.46c0.72-2.69,3.48-4.28,6.17-3.56c2.69,0.72,4.28,3.48,3.56,6.16
	c-0.72,2.69-3.48,4.28-6.16,3.56C145.98,19.9,144.39,17.14,145.1,14.46z M121.5,0.5c6.36,0,11.51,5.15,11.51,11.51
	c0,6.36-5.15,11.51-11.51,11.51c-6.36,0-11.51-5.15-11.51-11.51C109.99,5.65,115.14,0.5,121.5,0.5z M166.52,20.99
	c3.18-5.51,10.22-7.39,15.73-4.21c5.51,3.18,7.39,10.22,4.21,15.73c-3.18,5.5-10.22,7.39-15.72,4.21
	C165.23,33.54,163.34,26.5,166.52,20.99z M60.75,16.78c5.51-3.18,12.54-1.29,15.73,4.21c3.18,5.51,1.29,12.55-4.22,15.73
	c-5.5,3.18-12.55,1.29-15.72-4.21C53.36,27,55.24,19.96,60.75,16.78z M40.17,40.67c1.97-1.96,5.15-1.96,7.12,0
	c1.97,1.96,1.97,5.15,0,7.12c-1.97,1.96-5.15,1.96-7.12,0C38.2,45.82,38.2,42.63,40.17,40.67z M195.71,40.67
	c1.96-1.96,5.15-1.96,7.12,0c1.96,1.96,1.96,5.15,0,7.12c-1.97,1.96-5.15,1.96-7.12,0C193.75,45.82,193.75,42.63,195.71,40.67z
	 M210.99,57.03c5.51-3.18,12.55-1.29,15.73,4.21c3.18,5.51,1.29,12.55-4.21,15.73c-5.5,3.18-12.55,1.29-15.73-4.21
	C203.6,67.25,205.49,60.21,210.99,57.03z M16.28,61.25c3.18-5.5,10.22-7.39,15.73-4.21c5.51,3.18,7.39,10.22,4.21,15.73
	c-3.18,5.5-10.22,7.39-15.72,4.21C14.98,73.8,13.1,66.76,16.28,61.25z M10.4,92.23c0.72-2.69,3.48-4.28,6.16-3.56
	c2.69,0.72,4.28,3.48,3.56,6.17c-0.72,2.68-3.48,4.28-6.17,3.56C11.27,97.68,9.68,94.91,10.4,92.23z M226.44,88.67
	c2.69-0.72,5.45,0.87,6.17,3.56c0.72,2.69-0.88,5.45-3.56,6.17c-2.69,0.72-5.44-0.88-6.16-3.56
	C222.16,92.15,223.75,89.39,226.44,88.67z M231.49,110.49c6.36,0,11.51,5.15,11.51,11.51c0,6.36-5.15,11.51-11.51,11.51
	c-6.36,0-11.51-5.15-11.51-11.51C219.98,115.64,225.13,110.49,231.49,110.49z M11.51,110.49c6.36,0,11.51,5.15,11.51,11.51
	c0,6.36-5.15,11.51-11.51,11.51C5.15,133.51,0,128.36,0,122C0,115.64,5.15,110.49,11.51,110.49z M13.96,145.6
	c2.69-0.72,5.45,0.88,6.17,3.56c0.72,2.68-0.88,5.45-3.56,6.16c-2.69,0.72-5.45-0.87-6.17-3.56
	C9.68,149.08,11.27,146.32,13.96,145.6z M222.88,149.16c0.72-2.68,3.48-4.28,6.17-3.56c2.68,0.72,4.28,3.48,3.56,6.16
	c-0.72,2.69-3.48,4.28-6.17,3.56C223.75,154.61,222.16,151.85,222.88,149.16z M20.49,167.02c5.51-3.18,12.54-1.29,15.73,4.21
	c3.18,5.51,1.29,12.55-4.22,15.73c-5.5,3.18-12.55,1.29-15.72-4.21C13.1,177.24,14.98,170.2,20.49,167.02z M206.78,171.24
	c3.18-5.51,10.22-7.39,15.73-4.21c5.51,3.18,7.39,10.22,4.21,15.73c-3.18,5.5-10.22,7.39-15.73,4.21
	C205.49,183.79,203.6,176.74,206.78,171.24z M195.71,196.21c1.96-1.96,5.15-1.96,7.12,0c1.96,1.96,1.96,5.15,0,7.12
	c-1.97,1.96-5.15,1.96-7.12,0C193.75,201.36,193.75,198.18,195.71,196.21z M40.17,196.21c1.97-1.96,5.15-1.96,7.12,0
	c1.97,1.96,1.97,5.15,0,7.12c-1.97,1.96-5.15,1.96-7.12,0C38.2,201.36,38.2,198.18,40.17,196.21z M56.53,211.5
	c3.18-5.5,10.22-7.39,15.73-4.21c5.51,3.18,7.39,10.22,4.21,15.73c-3.18,5.51-10.22,7.39-15.72,4.21
	C55.24,224.04,53.36,217,56.53,211.5z M170.74,207.28c5.51-3.18,12.55-1.29,15.73,4.21c3.18,5.51,1.29,12.55-4.22,15.73
	c-5.5,3.18-12.54,1.29-15.72-4.21C163.34,217.5,165.23,210.46,170.74,207.28z M148.66,223.38c2.69-0.72,5.44,0.87,6.17,3.56
	c0.72,2.69-0.88,5.45-3.56,6.17c-2.69,0.72-5.45-0.88-6.16-3.56C144.39,226.86,145.98,224.1,148.66,223.38z M88.17,226.94
	c0.72-2.69,3.48-4.28,6.17-3.56c2.69,0.72,4.28,3.48,3.56,6.16c-0.72,2.69-3.48,4.28-6.17,3.56
	C89.05,232.38,87.45,229.62,88.17,226.94z M121.5,220.48c6.36,0,11.51,5.15,11.51,11.51c0,6.36-5.15,11.51-11.51,11.51
	c-6.36,0-11.51-5.15-11.51-11.51C109.99,225.63,115.14,220.48,121.5,220.48z M486.26,40.13c1.01,1.12,2.01,2.24,2.97,3.43l25,48.6
	c0.42,1.47,0.78,2.93,1.07,4.42L486.26,40.13z M467.12,23.18c0.66,0.44,1.25,0.85,1.89,1.34l48.96,95.17
	c0.03,0.8,0.04,1.57,0.01,2.36L467.12,23.18z M453.35,14.69c0.56,0.24,1.1,0.54,1.64,0.84l62.16,120.82
	c-0.09,0.58-0.16,1.19-0.27,1.82L453.35,14.69z M440.96,8.97c0.54,0.2,1.02,0.39,1.52,0.61l72.22,140.38
	c-0.11,0.54-0.22,1.07-0.39,1.6L440.96,8.97z M429.53,5.11c0.48,0.09,0.94,0.24,1.43,0.42l80.34,156.16
	c-0.13,0.5-0.28,0.96-0.48,1.41L429.53,5.11z M418.84,2.61c0.42,0.07,0.89,0.12,1.35,0.27l87,169.12c-0.15,0.46-0.37,0.87-0.56,1.25
	L418.84,2.61z M408.65,1.15c0.38,0,0.84,0.05,1.27,0.12l92.61,180.02c-0.19,0.38-0.41,0.79-0.64,1.1L408.65,1.15z M398.86,0.5
	c0.4,0.03,0.82,0.01,1.24,0.08l97.28,189.09c-0.19,0.38-0.45,0.72-0.66,1.06L398.86,0.5z M389.59,0.74c0.38-0.1,0.77-0.11,1.17-0.07
	l101.12,196.56c-0.2,0.35-0.43,0.66-0.74,0.91L389.59,0.74z M277.67,147.46l29.04,56.45c-1.04-1.1-2.02-2.24-2.97-3.43l-25-48.6
	C278.32,150.41,277.99,148.94,277.67,147.46z M381.68,1.39L486.02,204.2c-0.25,0.27-0.49,0.54-0.8,0.8L380.57,1.57
	C380.95,1.47,381.31,1.43,381.68,1.39z M372.97,2.83l106.81,207.62c-0.25,0.27-0.5,0.54-0.8,0.79L371.87,3.02
	C372.25,2.91,372.61,2.87,372.97,2.83z M364.58,4.79l108.74,211.35c-0.27,0.23-0.57,0.49-0.86,0.68L363.53,5.09
	C363.86,4.97,364.23,4.87,364.58,4.79z M275,124.01l49.26,95.75c-0.68-0.47-1.31-0.96-1.97-1.49l-47.22-91.78
	C275.02,125.64,274.99,124.83,275,124.01z M356.45,7.33l110.06,213.94c-0.27,0.23-0.55,0.43-0.9,0.6L355.43,7.71
	C355.77,7.54,356.1,7.42,356.45,7.33z M348.58,10.42l110.85,215.47c-0.27,0.23-0.61,0.41-0.91,0.57L347.59,10.83
	C347.9,10.67,348.24,10.5,348.58,10.42z M275.88,107.36l62.44,121.36c-0.6-0.32-1.14-0.62-1.7-0.96L275.68,109.3
	C275.69,108.66,275.77,107.99,275.88,107.36z M340.99,13.94l111.17,216.07c-0.04,0.02-0.04,0.02-0.08,0.04
	c-0.3,0.16-0.57,0.29-0.9,0.41l-111.12-216c0.28-0.2,0.55-0.33,0.86-0.49C340.96,13.95,340.96,13.95,340.99,13.94z M333.68,18.09
	l110.84,215.46c-0.28,0.19-0.65,0.33-0.99,0.41L332.77,18.65C333.03,18.42,333.36,18.21,333.68,18.09z M278.33,93.76l72.46,140.83
	c-0.54-0.21-1.03-0.39-1.52-0.62L277.95,95.35C278.06,94.81,278.19,94.31,278.33,93.76z M326.64,22.67l110.06,213.94
	c-0.31,0.16-0.67,0.3-1.01,0.38L325.75,23.27C326.01,23.04,326.34,22.83,326.64,22.67z M281.75,82.12l80.49,156.46
	c-0.5-0.13-0.96-0.27-1.42-0.42L281.26,83.52C281.41,83.06,281.56,82.6,281.75,82.12z M319.82,27.77L428.59,239.2
	c-0.36,0.14-0.7,0.22-1.07,0.26L318.98,28.49C319.23,28.22,319.5,27.99,319.82,27.77z M285.88,71.8l87.16,169.42
	c-0.42-0.07-0.88-0.12-1.32-0.23L285.3,73.01C285.47,72.59,285.69,72.18,285.88,71.8z M313.29,33.45l106.88,207.77
	c-0.38,0.1-0.75,0.14-1.11,0.19L312.49,34.24C312.74,33.97,312.99,33.7,313.29,33.45z M307.09,39.67l104.42,202.96
	c-0.36,0.04-0.76,0.11-1.15,0.11L306.34,40.54C306.56,40.23,306.85,39.94,307.09,39.67z M290.57,62.54l92.73,180.25
	c-0.44-0.02-0.84-0.05-1.27-0.12l-92.1-179.03C290.12,63.26,290.32,62.91,290.57,62.54z M301.21,46.6l101.24,196.79
	c-0.4,0.06-0.78,0.07-1.19,0.03L300.5,47.55C300.7,47.2,300.93,46.9,301.21,46.6z M295.67,54.18l97.4,189.32
	c-0.41-0.03-0.83-0.01-1.25-0.08L295.01,55.24C295.19,54.86,295.46,54.53,295.67,54.18z M700.25,10.64l2.03,0.54l-6.85,25.56
	l-2.02-0.54L700.25,10.64z M642.75,10.64l6.85,25.56l-2.03,0.54l-6.85-25.56L642.75,10.64z M674.12,0.5v39.46h-5.24V0.5H674.12z
	 M613.02,15.47l19.73,34.17l-4.54,2.62l-19.73-34.17L613.02,15.47z M729.98,15.47l4.54,2.62l-19.73,34.17l-4.54-2.62L729.98,15.47z
	 M590.92,39.94l18.71,18.71l-1.48,1.48l-18.72-18.71L590.92,39.94z M752.08,39.94l1.48,1.48l-18.71,18.71l-1.48-1.48L752.08,39.94z
	 M567.59,58.98l34.17,19.73l-2.62,4.54l-34.17-19.73L567.59,58.98z M775.41,58.98l2.62,4.54l-34.17,19.73l-2.62-4.54L775.41,58.98z
	 M560.69,91.22l25.56,6.85l-0.54,2.02l-25.57-6.85L560.69,91.22z M782.32,91.22l0.54,2.02l-25.57,6.85l-0.54-2.02L782.32,91.22z
	 M793,119.38v5.24h-39.46v-5.24H793z M589.46,119.38v5.24H550v-5.24H589.46z M757.29,143.9l25.57,6.85l-0.54,2.02l-25.57-6.85
	L757.29,143.9z M585.71,143.9l0.54,2.02l-25.56,6.85l-0.54-2.03L585.71,143.9z M599.14,160.75l2.62,4.54l-34.17,19.73l-2.62-4.54
	L599.14,160.75z M743.86,160.75l34.17,19.73l-2.62,4.54l-34.17-19.73L743.86,160.75z M608.15,183.86l1.48,1.48l-18.71,18.71
	l-1.48-1.48L608.15,183.86z M734.85,183.87l18.71,18.71l-1.48,1.48l-18.72-18.71L734.85,183.87z M714.79,191.74l19.73,34.17
	l-4.54,2.62l-19.73-34.17L714.79,191.74z M628.21,191.74l4.54,2.62l-19.73,34.18l-4.54-2.62L628.21,191.74z M695.43,207.25
	l6.85,25.56l-2.03,0.54l-6.85-25.56L695.43,207.25z M647.57,207.25l2.03,0.54l-6.85,25.56l-2.03-0.54L647.57,207.25z M674.12,204.04
	v39.46h-5.24v-39.46H674.12z M1032.71,38.33c2.01,0,3.64,1.65,3.64,3.68v28.97l24.9,14.49c1.74,1.01,2.34,3.26,1.34,5.02
	c-0.67,1.18-1.9,1.84-3.16,1.84c-0.61,0-1.24-0.16-1.81-0.49l-28.54-16.61V42.01C1029.07,39.98,1030.7,38.33,1032.71,38.33z
	 M860.07,38.45c2.01,0,3.64,1.64,3.64,3.67l0.04,33.25l-28.52,16.64c-0.57,0.33-1.2,0.49-1.81,0.49c-1.26,0-2.48-0.66-3.15-1.84
	c-1.01-1.76-0.41-4,1.33-5.02l24.88-14.51l-0.03-28.99C856.43,40.1,858.06,38.45,860.07,38.45L860.07,38.45z M1011.14,19.98
	c2.01,0,3.64,1.65,3.64,3.68v60.02l51.4,29.9c1.74,1.01,2.34,3.26,1.34,5.02c-0.67,1.18-1.9,1.84-3.16,1.84
	c-0.62,0-1.24-0.16-1.81-0.49l-55.04-32.02V23.66C1007.5,21.63,1009.13,19.98,1011.14,19.98z M881.7,20.01
	c2.01,0,3.64,1.64,3.64,3.67l0.08,64.2l-54.96,32.06c-0.57,0.33-1.2,0.49-1.82,0.49c-1.26,0-2.48-0.66-3.15-1.84
	c-1.01-1.76-0.41-4,1.33-5.02l51.32-29.94l-0.07-59.95C878.06,21.66,879.69,20.02,881.7,20.01L881.7,20.01z M989.58,8.71
	c2.01,0,3.64,1.65,3.64,3.68v83.84l71.86,41.81c1.74,1.01,2.34,3.26,1.34,5.02c-0.67,1.18-1.9,1.84-3.16,1.84
	c-0.61,0-1.24-0.16-1.81-0.49l-75.5-43.93V12.39C985.94,10.36,987.57,8.71,989.58,8.71z M903.21,8.75c2.01,0,3.64,1.64,3.64,3.67
	l0.11,88.07l-75.48,44.04c-0.57,0.33-1.2,0.49-1.82,0.49c-1.26,0-2.48-0.66-3.15-1.84c-1.01-1.76-0.41-4,1.33-5.02l71.84-41.91
	l-0.1-83.81C899.57,10.4,901.2,8.75,903.21,8.75L903.21,8.75z M925.24,2.42c2.01,0.01,3.63,1.66,3.63,3.69l-0.36,106.96
	l-91.61,53.45c-0.57,0.34-1.2,0.49-1.82,0.49c-1.26,0-2.48-0.66-3.16-1.84c-1-1.76-0.41-4.01,1.33-5.02l87.99-51.33l0.34-102.74
	c0.01-2.02,1.64-3.66,3.64-3.66H925.24z M968.01,2.48c2.01,0,3.64,1.65,3.64,3.68v102.66l87.88,51.67c1.74,1.02,2.33,3.27,1.32,5.03
	c-0.68,1.17-1.9,1.82-3.15,1.82c-0.62,0-1.25-0.16-1.83-0.5l-91.5-53.8V6.16C964.37,4.13,966,2.48,968.01,2.48z M946.45,0.5
	c2.01,0,3.64,1.65,3.64,3.68V121.4l100.48,58.61c1.74,1.02,2.34,3.26,1.33,5.02c-1.01,1.76-3.23,2.36-4.97,1.35l-100.47-58.61
	l-100.47,58.62c-0.57,0.33-1.2,0.49-1.81,0.49c-1.26,0-2.48-0.66-3.16-1.83c-1-1.76-0.41-4.01,1.33-5.03l100.47-58.62V4.18
	C942.81,2.15,944.44,0.5,946.45,0.5z M946.45,144.45l91.58,53.43c1.74,1.02,2.34,3.26,1.33,5.02c-0.67,1.18-1.9,1.84-3.16,1.84
	c-0.62,0-1.24-0.16-1.82-0.49l-87.96-51.32l-88.19,51.05c-1.74,1.01-3.97,0.4-4.96-1.36c-1-1.76-0.4-4,1.35-5.01L946.45,144.45z
	 M946.44,169.61l75.46,44.03c1.74,1.02,2.34,3.26,1.33,5.03c-1,1.76-3.23,2.36-4.97,1.34l-71.82-41.9l-71.74,41.97
	c-0.57,0.34-1.2,0.49-1.82,0.49c-1.26,0-2.48-0.65-3.15-1.83c-1.01-1.76-0.41-4,1.32-5.02L946.44,169.61z M946.42,194.75
	l55.08,32.14c1.74,1.01,2.34,3.26,1.33,5.02c-1,1.76-3.23,2.36-4.97,1.35l-51.44-30.01l-51.34,30.03c-0.57,0.34-1.2,0.5-1.82,0.5
	c-1.26,0-2.48-0.66-3.15-1.83c-1.01-1.76-0.41-4.01,1.32-5.03L946.42,194.75z M946.52,219.98l28.49,16.63
	c1.74,1.01,2.34,3.26,1.33,5.02c-1.01,1.76-3.23,2.36-4.97,1.34l-24.85-14.5L921.68,243c-0.57,0.34-1.2,0.5-1.82,0.5
	c-1.26,0-2.48-0.66-3.15-1.84c-1.01-1.76-0.41-4.01,1.33-5.02L946.52,219.98z M1341.44,115.37l-4.78-8.53l2.41-9.48
	c1.05-4.13-0.46-9.76-3.43-12.81l-6.83-7l-0.12-9.78c-0.05-4.26-2.96-9.31-6.63-11.48l-8.41-4.99l-2.65-9.41
	c-1.15-4.1-5.28-8.22-9.38-9.38l-9.41-2.65l-4.99-8.41c-2.18-3.67-7.22-6.58-11.48-6.63l-9.78-0.12l-7-6.83
	c-3.06-2.98-8.69-4.49-12.81-3.43l-9.47,2.41l-8.53-4.78c-3.72-2.09-9.54-2.09-13.26,0l-8.53,4.78l-9.48-2.41
	c-4.13-1.06-9.76,0.45-12.81,3.43l-7,6.83l-9.77,0.12c-4.27,0.05-9.31,2.96-11.49,6.63l-4.99,8.41l-9.41,2.65
	c-4.1,1.16-8.22,5.28-9.38,9.38l-2.65,9.41l-8.41,4.99c-3.67,2.18-6.58,7.22-6.63,11.48l-0.12,9.78l-6.83,7
	c-2.98,3.05-4.49,8.68-3.43,12.81l2.41,9.47l-4.79,8.53c-2.09,3.72-2.09,9.55,0,13.26l4.79,8.53l-2.41,9.47
	c-1.05,4.13,0.45,9.76,3.43,12.81l6.83,7l0.12,9.78c0.05,4.27,2.96,9.31,6.63,11.49l8.41,4.99l2.65,9.41
	c1.15,4.11,5.27,8.22,9.38,9.38l9.41,2.65l4.99,8.41c2.18,3.67,7.22,6.58,11.49,6.63l9.77,0.12l7,6.83
	c3.05,2.97,8.68,4.49,12.81,3.43l9.48-2.41l8.53,4.78c1.86,1.04,4.24,1.56,6.63,1.56c2.38,0,4.77-0.52,6.63-1.56l8.53-4.78
	l9.48,2.41c0.89,0.23,1.85,0.34,2.83,0.34c3.6,0,7.58-1.43,9.98-3.77l7-6.83l9.78-0.12c4.26-0.05,9.3-2.96,11.48-6.63l4.99-8.41
	l9.41-2.65c4.1-1.15,8.23-5.27,9.38-9.38l2.65-9.41l8.41-5c3.67-2.18,6.58-7.22,6.63-11.49l0.12-9.78l6.83-7
	c2.97-3.05,4.48-8.68,3.43-12.81l-2.41-9.48l4.78-8.53C1343.52,124.91,1343.52,119.09,1341.44,115.37z M1333.32,86.8
	c2.2,2.25,3.4,6.72,2.62,9.77l-1.58,6.19l-2.29-4.08c-1.67-2.97-3.11-8.37-3.15-11.77l-0.06-4.68L1333.32,86.8z M1290.09,211.39
	l-7.77,2.18c-0.05,0.01-0.11,0.04-0.15,0.05c0.04-0.07,0.1-0.14,0.14-0.22l4.54-7.64l7.97-2.24c-0.21,0.31-0.43,0.63-0.61,0.93
	L1290.09,211.39z M1148.79,204.45c-0.28-0.46-0.6-0.95-0.96-1.44c0.33,0.13,0.65,0.25,0.98,0.35l8.56,2.41l4.54,7.64
	c0.15,0.26,0.33,0.51,0.51,0.76c-0.6-0.23-1.19-0.44-1.75-0.59l-7.77-2.18L1148.79,204.45z M1326.62,98.1l-1.36,5.33l-1.92-3.43
	c-1.52-2.7-2.83-7.6-2.86-10.7l-0.05-3.93l3.84,3.93C1326.24,91.33,1327.32,95.36,1326.62,98.1z M1325.43,126.93
	c-0.77-3-0.77-8.08,0-11.08l0.97-3.81l2.69,4.8c1.38,2.47,1.38,6.64,0,9.11l-2.69,4.79L1325.43,126.93z M1322.31,127.72l1.8,7.09
	l-3.58,6.39c-1.79,3.2-3.23,8.57-3.27,12.23l-0.09,7.32l-5.11,5.24c-2.56,2.63-5.34,7.44-6.33,10.97l-1.98,7.05l-6.29,3.74
	c-3.15,1.87-7.08,5.81-8.96,8.96l-3.74,6.29l-7.05,1.98c-3.53,0.99-8.35,3.77-10.97,6.33l-5.24,5.11l-7.32,0.09
	c-3.67,0.04-9.04,1.48-12.24,3.28l-6.39,3.58l-7.09-1.8c-3.55-0.91-9.12-0.91-12.67,0l-7.09,1.8l-6.39-3.58
	c-3.2-1.79-8.57-3.24-12.24-3.28l-7.32-0.09l-5.24-5.11c-2.63-2.56-7.45-5.34-10.97-6.33l-7.05-1.98l-3.74-6.29
	c-1.87-3.15-5.81-7.09-8.96-8.96l-6.29-3.74l-1.99-7.05c-0.99-3.53-3.78-8.35-6.33-10.97l-5.11-5.24l-0.09-7.32
	c-0.04-3.66-1.48-9.04-3.27-12.23l-3.59-6.39l1.81-7.09c0.91-3.55,0.91-9.12,0-12.67l-1.8-7.1l3.58-6.39
	c1.79-3.2,3.23-8.57,3.27-12.24l0.09-7.32l5.11-5.24c2.56-2.62,5.34-7.44,6.34-10.97l1.99-7.05l6.29-3.74
	c3.15-1.87,7.09-5.81,8.96-8.96l3.74-6.29l7.05-1.98c3.53-0.99,8.34-3.77,10.97-6.34l5.24-5.11l7.32-0.09
	c3.67-0.04,9.04-1.48,12.24-3.28l6.39-3.58l7.09,1.81c3.55,0.91,9.12,0.91,12.67,0l7.09-1.81l6.39,3.58
	c3.2,1.79,8.57,3.23,12.24,3.28l7.32,0.09l5.24,5.11c2.62,2.56,7.44,5.34,10.97,6.34l7.05,1.98l3.74,6.29
	c1.88,3.15,5.81,7.09,8.96,8.96l6.29,3.74l1.98,7.05c0.99,3.53,3.78,8.35,6.33,10.97l5.11,5.24l0.09,7.32
	c0.04,3.66,1.48,9.04,3.27,12.24l3.58,6.39l-1.8,7.1C1321.4,118.61,1321.4,124.17,1322.31,127.72z M1326.62,144.68
	c0.7,2.74-0.38,6.78-2.36,8.8l-3.84,3.94l0.05-3.93c0.03-3.1,1.35-8,2.86-10.7l1.92-3.43L1326.62,144.68z M1317.04,170.93
	c-0.04,2.83-2.12,6.44-4.56,7.89l-4.73,2.81l1.07-3.79c0.84-2.98,3.38-7.37,5.54-9.59l2.74-2.81L1317.04,170.93z M1300.98,193.81
	c-0.77,2.72-3.72,5.67-6.44,6.44l-5.29,1.49l2.01-3.38c1.59-2.67,5.17-6.25,7.83-7.83l3.38-2.01L1300.98,193.81z M1271.66,216.31
	l-5.5,0.07l2.82-2.75c2.22-2.16,6.61-4.7,9.59-5.54l3.79-1.07l-2.81,4.73C1278.1,214.19,1274.49,216.28,1271.66,216.31z
	 M1245.4,225.9l-5.33-1.36l3.43-1.92c2.7-1.52,7.6-2.83,10.71-2.87l3.93-0.05l-3.94,3.84C1252.18,225.52,1248.14,226.6,1245.4,225.9
	z M1217.56,228.37l-4.8-2.69l3.81-0.97c3.01-0.76,8.08-0.76,11.08,0l3.81,0.97l-4.8,2.69
	C1224.2,229.75,1220.03,229.75,1217.56,228.37z M1190.03,223.54l-3.94-3.84l3.93,0.05c3.1,0.04,8,1.35,10.7,2.87l3.43,1.92
	l-5.33,1.36C1196.08,226.6,1192.05,225.52,1190.03,223.54z M1164.68,211.76l-2.81-4.73l3.79,1.07c2.98,0.83,7.37,3.37,9.59,5.54
	l2.81,2.75l-5.5-0.07C1169.74,216.28,1166.12,214.19,1164.68,211.76z M1143.25,193.81l-1.49-5.3l3.38,2.01
	c2.67,1.58,6.25,5.17,7.83,7.83l2.01,3.38l-5.3-1.49C1146.97,199.49,1144.02,196.54,1143.25,193.81z M1136.47,181.63l-4.73-2.81
	c-2.43-1.45-4.52-5.06-4.55-7.89l-0.07-5.5l2.75,2.81c2.16,2.22,4.7,6.61,5.54,9.59L1136.47,181.63z M1117.6,144.68l1.36-5.33
	l1.92,3.43c1.52,2.7,2.83,7.6,2.87,10.7l0.05,3.93l-3.84-3.93C1117.98,151.45,1116.9,147.42,1117.6,144.68z M1118.8,115.85
	c0.76,3,0.76,8.08,0,11.08l-0.97,3.81l-2.69-4.8c-1.38-2.47-1.38-6.64,0-9.11l2.69-4.8L1118.8,115.85z M1117.6,98.1
	c-0.7-2.74,0.38-6.77,2.36-8.8l3.84-3.94l-0.05,3.93c-0.03,3.1-1.35,8-2.87,10.7l-1.92,3.43L1117.6,98.1z M1127.12,77.34l0.07-5.5
	c0.03-2.83,2.12-6.44,4.55-7.89l4.73-2.81l-1.07,3.79c-0.84,2.98-3.38,7.38-5.54,9.59L1127.12,77.34z M1149.69,42.52l5.3-1.49
	l-2.01,3.38c-1.58,2.66-5.17,6.25-7.83,7.83l-3.38,2.01l1.49-5.29C1144.02,46.24,1146.97,43.29,1149.69,42.52z M1172.57,26.46
	l5.5-0.07l-2.81,2.75c-2.22,2.16-6.61,4.7-9.59,5.54l-3.79,1.07l2.81-4.73C1166.12,28.59,1169.74,26.5,1172.57,26.46z
	 M1196.98,16.66c0.65,0,1.27,0.07,1.84,0.21l5.33,1.36l-3.43,1.92c-2.7,1.52-7.6,2.83-10.7,2.87l-3.93,0.05l3.94-3.84
	C1191.63,17.67,1194.5,16.66,1196.98,16.66z M1217.56,14.41c1.23-0.69,2.9-1.04,4.56-1.04c1.66,0,3.32,0.35,4.56,1.04l4.79,2.69
	l-3.81,0.97c-3.01,0.76-8.08,0.76-11.08,0l-3.81-0.97L1217.56,14.41L1217.56,14.41z M1245.4,16.88c2.74-0.7,6.78,0.38,8.8,2.35
	l3.94,3.84l-3.93-0.05c-3.1-0.04-8-1.35-10.71-2.87l-3.43-1.92L1245.4,16.88z M1271.66,26.46c2.83,0.04,6.45,2.12,7.89,4.55
	l2.81,4.73l-3.79-1.07c-2.98-0.84-7.37-3.37-9.59-5.54l-2.82-2.75L1271.66,26.46z M1294.54,42.52c2.72,0.76,5.67,3.72,6.44,6.44
	l1.49,5.29l-3.38-2.01c-2.67-1.58-6.25-5.17-7.83-7.83l-2.01-3.38L1294.54,42.52z M1317.04,71.84l0.06,5.5l-2.74-2.82
	c-2.16-2.22-4.7-6.61-5.54-9.59l-1.07-3.79l4.73,2.81C1314.91,65.4,1317,69.01,1317.04,71.84z M1325.69,86.15l-5.32-5.46l-0.09-7.26
	l5.32,5.45L1325.69,86.15z M1312.87,60.44l-6.38-3.79l-1.98-7.03l6.38,3.79L1312.87,60.44z M1286.85,37.01l-3.79-6.38l7.03,1.98
	l3.79,6.38L1286.85,37.01z M1262.81,23.13l-5.46-5.32l7.26,0.09l5.45,5.32L1262.81,23.13z M1235.99,15.95l-6.87-3.85l7.08-1.8
	l6.87,3.85L1235.99,15.95z M1208.23,15.95l-7.92-2.02l6.49-3.64l7.82,1.99c0.03,0.01,0.07,0.01,0.11,0.02L1208.23,15.95z
	 M1181.42,23.13l-8.5,0.1l5.47-5.33l8.06-0.1c0.15,0,0.31-0.02,0.45-0.02L1181.42,23.13z M1157.37,37.01l-8.5,2.39l4.03-6.8
	l7.77-2.18c0.24-0.07,0.5-0.17,0.75-0.25L1157.37,37.01z M1137.74,56.65l-7.64,4.54c-0.08,0.04-0.15,0.1-0.22,0.14
	c0.02-0.05,0.04-0.11,0.05-0.15l2.19-7.77l6.93-4.12c0.3-0.18,0.62-0.4,0.93-0.61L1137.74,56.65z M1123.86,80.69l-6.2,6.36
	c-0.14,0.14-0.25,0.3-0.38,0.45c0.01-0.18,0.03-0.38,0.03-0.56l0.1-8.07l5.63-5.77c0.31-0.31,0.62-0.67,0.92-1.03L1123.86,80.69z
	 M1114.47,98.81c0.01,0.03,0.01,0.05,0.01,0.08l2.19,8.61l-4.35,7.75c-0.13,0.23-0.23,0.5-0.35,0.76c-0.06-0.31-0.12-0.62-0.19-0.91
	l-2-7.82l3.95-7.03C1113.99,99.81,1114.23,99.33,1114.47,98.81z M1111.79,128.89c0.14-0.55,0.25-1.15,0.35-1.77
	c0.07,0.13,0.11,0.28,0.19,0.41l4.35,7.75l-2.19,8.61c-0.08,0.32-0.12,0.65-0.17,0.99c-0.19-0.39-0.37-0.78-0.57-1.13l-3.95-7.04
	L1111.79,128.89z M1117.3,157.05c-0.01-0.59-0.05-1.23-0.13-1.9c0.16,0.19,0.31,0.4,0.47,0.57l6.21,6.36l0.11,8.89
	c0.01,0.34,0.04,0.69,0.08,1.04c-0.34-0.4-0.67-0.78-1.01-1.13l-5.63-5.77L1117.3,157.05z M1129.93,182.83
	c-0.16-0.56-0.36-1.14-0.59-1.75c0.25,0.19,0.51,0.36,0.76,0.51l7.64,4.54l2.4,8.55c0.09,0.33,0.21,0.65,0.35,0.98
	c-0.49-0.35-0.98-0.68-1.44-0.95l-6.93-4.12L1129.93,182.83z M1172.53,219.54l8.89,0.11l6.36,6.2c0.17,0.17,0.37,0.32,0.55,0.47
	c-0.66-0.07-1.29-0.12-1.88-0.13l-8.06-0.1l-5.78-5.63c-0.34-0.34-0.72-0.67-1.12-1.01C1171.83,219.5,1172.18,219.53,1172.53,219.54
	z M1199.62,229.02l8.61-2.19l7.75,4.35c0.13,0.07,0.27,0.12,0.41,0.19c-0.62,0.1-1.22,0.21-1.77,0.35l-7.82,1.99l-7.04-3.95
	c-0.35-0.19-0.73-0.38-1.11-0.56C1198.98,229.15,1199.31,229.1,1199.62,229.02z M1228.24,231.18l7.75-4.35l8.61,2.19
	c0.03,0.01,0.06,0.01,0.08,0.02c-0.51,0.24-1,0.48-1.44,0.73l-7.04,3.95l-7.81-1.99c-0.29-0.07-0.61-0.13-0.91-0.19
	C1227.74,231.41,1228,231.31,1228.24,231.18z M1256.45,225.85l6.36-6.2l8.62-0.11c-0.37,0.31-0.72,0.62-1.04,0.93l-5.77,5.63
	l-8.07,0.1c-0.18,0-0.37,0.03-0.56,0.03C1256.15,226.1,1256.31,225.98,1256.45,225.85z M1306.49,186.13l6.83-4.06
	c-0.08,0.25-0.18,0.51-0.25,0.75l-2.18,7.77l-6.8,4.03L1306.49,186.13z M1320.37,162.09l5.35-5.49c-0.01,0.15-0.02,0.31-0.02,0.45
	l-0.1,8.07l-5.33,5.47L1320.37,162.09z M1329.57,143.19l-2.02-7.92l3.64-6.49c0.01,0.04,0.02,0.08,0.02,0.11l1.99,7.82
	L1329.57,143.19z M1331.41,114.38l-3.85-6.87l1.81-7.08l3.85,6.87L1331.41,114.38z M1320.41,59.06c2.7,1.6,5.02,5.61,5.06,8.75
	l0.08,6.39l-3.27-3.35c-2.38-2.44-5.17-7.27-6.09-10.56l-1.27-4.51L1320.41,59.06z M1300.75,35.6c3.02,0.85,6.3,4.13,7.15,7.15
	l1.73,6.15l-4.03-2.39c-2.93-1.74-6.88-5.69-8.62-8.62l-2.39-4.02L1300.75,35.6z M1275.69,18.04c3.14,0.04,7.15,2.35,8.76,5.05
	l3.26,5.5l-4.51-1.27c-3.28-0.92-8.11-3.71-10.55-6.09l-3.35-3.27L1275.69,18.04z M1246.93,7.56c3.05-0.77,7.52,0.42,9.77,2.62
	l4.57,4.46l-4.68-0.06c-3.41-0.04-8.8-1.49-11.77-3.16l-4.08-2.29L1246.93,7.56z M1216.45,4.87c2.74-1.54,7.37-1.54,10.11,0
	l5.58,3.13l-4.54,1.15c-3.3,0.84-8.88,0.84-12.19,0L1210.87,8L1216.45,4.87z M1186.31,10.17c2.25-2.19,6.72-3.39,9.76-2.62
	l6.19,1.58l-4.08,2.29c-2.97,1.67-8.36,3.11-11.77,3.15l-4.68,0.06L1186.31,10.17z M1158.56,23.09c1.6-2.7,5.61-5.01,8.75-5.05
	l6.39-0.08l-3.35,3.27c-2.44,2.38-7.27,5.17-10.56,6.09l-4.51,1.27L1158.56,23.09z M1135.11,42.75c0.85-3.02,4.12-6.3,7.15-7.15
	l6.15-1.73l-2.39,4.02c-1.74,2.93-5.69,6.88-8.62,8.62l-4.02,2.39L1135.11,42.75z M1117.54,67.82c0.04-3.14,2.35-7.15,5.05-8.75
	l5.5-3.27l-1.27,4.51c-0.93,3.28-3.72,8.12-6.1,10.56l-3.27,3.35L1117.54,67.82z M1107.06,96.57c-0.77-3.04,0.43-7.52,2.62-9.77
	l4.47-4.58l-0.06,4.68c-0.04,3.41-1.49,8.8-3.16,11.77l-2.29,4.08L1107.06,96.57z M1104.38,127.05c-1.53-2.74-1.53-7.37,0-10.11
	l3.13-5.58l1.16,4.54c0.84,3.3,0.84,8.89,0,12.19l-1.16,4.54L1104.38,127.05z M1109.68,157.19c-2.19-2.25-3.39-6.72-2.62-9.76
	l1.58-6.19l2.29,4.08c1.67,2.97,3.11,8.36,3.16,11.77l0.06,4.68L1109.68,157.19z M1122.59,184.94c-2.7-1.6-5.01-5.61-5.05-8.75
	l-0.08-6.39l3.27,3.35c2.38,2.44,5.17,7.27,6.1,10.56l1.27,4.51L1122.59,184.94z M1142.26,208.39c-3.02-0.85-6.3-4.12-7.15-7.14
	l-1.73-6.15l4.02,2.39c2.93,1.74,6.88,5.69,8.62,8.62l2.39,4.02L1142.26,208.39z M1167.32,225.96c-3.14-0.04-7.15-2.35-8.75-5.05
	l-3.27-5.5l4.51,1.27c3.28,0.92,8.11,3.72,10.56,6.1l3.35,3.26L1167.32,225.96z M1196.07,236.44c-3.05,0.77-7.52-0.43-9.76-2.62
	l-4.58-4.46l4.68,0.06c3.41,0.04,8.8,1.48,11.77,3.16l4.08,2.29L1196.07,236.44z M1226.56,239.12c-2.74,1.54-7.37,1.54-10.11,0
	l-5.58-3.13l4.54-1.15c3.31-0.84,8.89-0.84,12.19,0l4.53,1.15L1226.56,239.12z M1256.7,233.83c-2.25,2.19-6.73,3.4-9.77,2.62
	l-6.2-1.58l4.08-2.29c2.97-1.67,8.37-3.11,11.77-3.16l4.68-0.06L1256.7,233.83z M1284.44,220.9c-1.61,2.7-5.62,5.02-8.76,5.06
	l-6.39,0.07l3.35-3.26c2.44-2.38,7.28-5.17,10.55-6.1l4.51-1.27L1284.44,220.9z M1307.9,201.25c-0.85,3.02-4.13,6.3-7.15,7.14
	l-6.15,1.73l2.39-4.02c1.74-2.93,5.69-6.88,8.62-8.62l4.03-2.39L1307.9,201.25z M1325.46,176.18c-0.04,3.14-2.35,7.15-5.06,8.75
	l-5.49,3.27l1.27-4.51c0.92-3.28,3.71-8.12,6.09-10.56l3.27-3.35L1325.46,176.18z M1335.94,147.43c0.78,3.04-0.42,7.52-2.62,9.76
	l-4.46,4.58l0.06-4.68c0.04-3.41,1.48-8.8,3.15-11.77l2.29-4.08L1335.94,147.43z M1338.62,127.05l-3.13,5.57l-1.15-4.53
	c-0.84-3.3-0.84-8.88,0-12.19l1.15-4.54l3.13,5.58C1340.17,119.69,1340.17,124.31,1338.62,127.05z M1462.88,0.5
	c2.36,0,4.27,1.89,4.27,4.22c0,2.33-1.91,4.22-4.27,4.22c-2.36,0-4.27-1.89-4.27-4.22C1458.61,2.39,1460.52,0.5,1462.88,0.5z
	 M1496.04,0.5c2.25,0,4.08,1.89,4.08,4.22c0,2.33-1.83,4.22-4.08,4.22c-2.25,0-4.08-1.89-4.08-4.22
	C1491.96,2.39,1493.78,0.5,1496.04,0.5z M1479.87,0.5c2.22,0,4.01,1.89,4.01,4.22c0,2.33-1.8,4.22-4.01,4.22
	c-2.22,0-4.01-1.89-4.01-4.22C1475.86,2.39,1477.66,0.5,1479.87,0.5z M1530.01,0.5c2.25,0,4.08,1.89,4.08,4.22
	c0,2.33-1.83,4.22-4.08,4.22c-2.25,0-4.08-1.89-4.08-4.22C1525.93,2.39,1527.75,0.5,1530.01,0.5z M1513.02,0.5
	c2.32,0,4.21,1.89,4.21,4.22c0,2.33-1.89,4.22-4.21,4.22s-4.2-1.89-4.2-4.22C1508.82,2.39,1510.7,0.5,1513.02,0.5z M1429.67,16.27
	c2.35,0,4.25,1.91,4.25,4.26c0,2.35-1.91,4.27-4.25,4.27c-2.35,0-4.25-1.91-4.25-4.27C1425.42,18.18,1427.32,16.27,1429.67,16.27z
	 M1497.11,16.27c2.35,0,4.25,1.91,4.25,4.26c0,2.35-1.91,4.27-4.25,4.27c-2.35,0-4.25-1.91-4.25-4.27
	C1492.85,18.18,1494.76,16.27,1497.11,16.27z M1479.49,16.27c2.35,0,4.25,1.91,4.25,4.26c0,2.35-1.91,4.27-4.25,4.27
	c-2.35,0-4.25-1.91-4.25-4.27C1475.24,18.18,1477.14,16.27,1479.49,16.27z M1463.09,16.27c2.35,0,4.25,1.91,4.25,4.26
	c0,2.35-1.9,4.27-4.25,4.27c-2.35,0-4.25-1.91-4.25-4.27C1458.83,18.18,1460.73,16.27,1463.09,16.27z M1446.68,16.27
	c2.35,0,4.25,1.91,4.25,4.26c0,2.35-1.91,4.27-4.25,4.27c-2.35,0-4.25-1.91-4.25-4.27C1442.43,18.18,1444.33,16.27,1446.68,16.27z
	 M1529.91,16.27c2.35,0,4.25,1.91,4.25,4.26c0,2.35-1.91,4.27-4.25,4.27c-2.35,0-4.25-1.91-4.25-4.27
	C1525.66,18.18,1527.56,16.27,1529.91,16.27z M1513.51,16.27c2.35,0,4.25,1.91,4.25,4.26c0,2.35-1.91,4.27-4.25,4.27
	c-2.35,0-4.25-1.91-4.25-4.27C1509.26,18.18,1511.16,16.27,1513.51,16.27z M1563.93,16.27c2.35,0,4.25,1.91,4.25,4.26
	c0,2.35-1.91,4.27-4.25,4.27c-2.35,0-4.25-1.91-4.25-4.27C1559.68,18.18,1561.58,16.27,1563.93,16.27z M1546.31,16.27
	c2.35,0,4.25,1.91,4.25,4.26c0,2.35-1.91,4.27-4.25,4.27c-2.35,0-4.25-1.91-4.25-4.27C1542.06,18.18,1543.96,16.27,1546.31,16.27z
	 M1446.68,33.94c2.35,0,4.25,1.91,4.25,4.26c0,2.35-1.91,4.26-4.25,4.26c-2.35,0-4.25-1.91-4.25-4.26
	C1442.43,35.85,1444.33,33.94,1446.68,33.94z M1412.66,33.94c2.35,0,4.25,1.91,4.25,4.26c0,2.35-1.9,4.26-4.25,4.26
	c-2.35,0-4.25-1.91-4.25-4.26C1408.41,35.85,1410.31,33.94,1412.66,33.94z M1513.51,33.94c2.35,0,4.25,1.91,4.25,4.26
	c0,2.35-1.91,4.26-4.25,4.26c-2.35,0-4.25-1.91-4.25-4.26C1509.26,35.85,1511.16,33.94,1513.51,33.94z M1580.33,33.94
	c2.35,0,4.25,1.91,4.25,4.26c0,2.35-1.91,4.26-4.25,4.26c-2.35,0-4.25-1.91-4.25-4.26C1576.08,35.85,1577.99,33.94,1580.33,33.94z
	 M1563.93,33.94c2.35,0,4.25,1.91,4.25,4.26c0,2.35-1.91,4.26-4.25,4.26c-2.35,0-4.25-1.91-4.25-4.26
	C1559.68,35.85,1561.58,33.94,1563.93,33.94z M1529.91,33.94c2.35,0,4.25,1.91,4.25,4.26c0,2.35-1.91,4.26-4.25,4.26
	c-2.35,0-4.25-1.91-4.25-4.26C1525.66,35.85,1527.56,33.94,1529.91,33.94z M1546.31,33.94c2.35,0,4.25,1.91,4.25,4.26
	c0,2.35-1.91,4.26-4.25,4.26c-2.35,0-4.25-1.91-4.25-4.26C1542.06,35.85,1543.96,33.94,1546.31,33.94z M1479.49,33.94
	c2.35,0,4.25,1.91,4.25,4.26c0,2.35-1.91,4.26-4.25,4.26c-2.35,0-4.25-1.91-4.25-4.26C1475.24,35.85,1477.14,33.94,1479.49,33.94z
	 M1497.11,33.94c2.35,0,4.25,1.91,4.25,4.26c0,2.35-1.91,4.26-4.25,4.26c-2.35,0-4.25-1.91-4.25-4.26
	C1492.85,35.85,1494.76,33.94,1497.11,33.94z M1463.09,33.94c2.35,0,4.25,1.91,4.25,4.26c0,2.35-1.9,4.26-4.25,4.26
	c-2.35,0-4.25-1.91-4.25-4.26C1458.83,35.85,1460.73,33.94,1463.09,33.94z M1429.67,33.94c2.35,0,4.25,1.91,4.25,4.26
	c0,2.35-1.91,4.26-4.25,4.26c-2.35,0-4.25-1.91-4.25-4.26C1425.42,35.85,1427.32,33.94,1429.67,33.94z M1429.67,50.38
	c2.35,0,4.25,1.91,4.25,4.26c0,2.35-1.91,4.26-4.25,4.26c-2.35,0-4.25-1.91-4.25-4.26C1425.42,52.29,1427.32,50.38,1429.67,50.38z
	 M1479.49,50.38c2.35,0,4.25,1.91,4.25,4.26c0,2.35-1.91,4.26-4.25,4.26c-2.35,0-4.25-1.91-4.25-4.26
	C1475.24,52.29,1477.14,50.38,1479.49,50.38z M1446.68,50.38c2.35,0,4.25,1.91,4.25,4.26c0,2.35-1.91,4.26-4.25,4.26
	c-2.35,0-4.25-1.91-4.25-4.26C1442.43,52.29,1444.33,50.38,1446.68,50.38z M1529.91,50.38c2.35,0,4.25,1.91,4.25,4.26
	c0,2.35-1.91,4.26-4.25,4.26c-2.35,0-4.25-1.91-4.25-4.26C1525.66,52.29,1527.56,50.38,1529.91,50.38z M1597.34,50.38
	c2.35,0,4.25,1.91,4.25,4.26c0,2.35-1.9,4.26-4.25,4.26c-2.35,0-4.25-1.91-4.25-4.26C1593.09,52.29,1595,50.38,1597.34,50.38z
	 M1395.66,50.38c2.35,0,4.25,1.91,4.25,4.26c0,2.35-1.9,4.26-4.25,4.26c-2.35,0-4.25-1.91-4.25-4.26
	C1391.4,52.29,1393.31,50.38,1395.66,50.38z M1563.93,50.38c2.35,0,4.25,1.91,4.25,4.26c0,2.35-1.91,4.26-4.25,4.26
	c-2.35,0-4.25-1.91-4.25-4.26C1559.68,52.29,1561.58,50.38,1563.93,50.38z M1463.09,50.38c2.35,0,4.25,1.91,4.25,4.26
	c0,2.35-1.9,4.26-4.25,4.26c-2.35,0-4.25-1.91-4.25-4.26C1458.83,52.29,1460.73,50.38,1463.09,50.38z M1497.11,50.38
	c2.35,0,4.25,1.91,4.25,4.26c0,2.35-1.91,4.26-4.25,4.26c-2.35,0-4.25-1.91-4.25-4.26C1492.85,52.29,1494.76,50.38,1497.11,50.38z
	 M1546.31,50.38c2.35,0,4.25,1.91,4.25,4.26c0,2.35-1.91,4.26-4.25,4.26c-2.35,0-4.25-1.91-4.25-4.26
	C1542.06,52.29,1543.96,50.38,1546.31,50.38z M1580.33,50.38c2.35,0,4.25,1.91,4.25,4.26c0,2.35-1.91,4.26-4.25,4.26
	c-2.35,0-4.25-1.91-4.25-4.26C1576.08,52.29,1577.99,50.38,1580.33,50.38z M1412.66,50.38c2.35,0,4.25,1.91,4.25,4.26
	c0,2.35-1.9,4.26-4.25,4.26c-2.35,0-4.25-1.91-4.25-4.26C1408.41,52.29,1410.31,50.38,1412.66,50.38z M1513.51,50.38
	c2.35,0,4.25,1.91,4.25,4.26c0,2.35-1.91,4.26-4.25,4.26c-2.35,0-4.25-1.91-4.25-4.26C1509.26,52.29,1511.16,50.38,1513.51,50.38z
	 M1412.66,67.44c2.35,0,4.25,1.91,4.25,4.27c0,2.35-1.9,4.26-4.25,4.26c-2.35,0-4.25-1.91-4.25-4.26
	C1408.41,69.35,1410.31,67.44,1412.66,67.44z M1513.51,67.44c2.35,0,4.25,1.91,4.25,4.27c0,2.35-1.91,4.26-4.25,4.26
	c-2.35,0-4.25-1.91-4.25-4.26C1509.26,69.35,1511.16,67.44,1513.51,67.44z M1463.09,67.44c2.35,0,4.25,1.91,4.25,4.27
	c0,2.35-1.9,4.26-4.25,4.26c-2.35,0-4.25-1.91-4.25-4.26C1458.83,69.35,1460.73,67.44,1463.09,67.44z M1529.91,67.44
	c2.35,0,4.25,1.91,4.25,4.27c0,2.35-1.91,4.26-4.25,4.26c-2.35,0-4.25-1.91-4.25-4.26C1525.66,69.35,1527.56,67.44,1529.91,67.44z
	 M1546.31,67.44c2.35,0,4.25,1.91,4.25,4.27c0,2.35-1.91,4.26-4.25,4.26c-2.35,0-4.25-1.91-4.25-4.26
	C1542.06,69.35,1543.96,67.44,1546.31,67.44z M1429.67,67.44c2.35,0,4.25,1.91,4.25,4.27c0,2.35-1.91,4.26-4.25,4.26
	c-2.35,0-4.25-1.91-4.25-4.26C1425.42,69.35,1427.32,67.44,1429.67,67.44z M1446.68,67.44c2.35,0,4.25,1.91,4.25,4.27
	c0,2.35-1.91,4.26-4.25,4.26c-2.35,0-4.25-1.91-4.25-4.26C1442.43,69.35,1444.33,67.44,1446.68,67.44z M1479.49,67.44
	c2.35,0,4.25,1.91,4.25,4.27c0,2.35-1.91,4.26-4.25,4.26c-2.35,0-4.25-1.91-4.25-4.26C1475.24,69.35,1477.14,67.44,1479.49,67.44z
	 M1497.11,67.44c2.35,0,4.25,1.91,4.25,4.27c0,2.35-1.91,4.26-4.25,4.26c-2.35,0-4.25-1.91-4.25-4.26
	C1492.85,69.35,1494.76,67.44,1497.11,67.44z M1580.33,67.44c2.35,0,4.25,1.91,4.25,4.27c0,2.35-1.91,4.26-4.25,4.26
	c-2.35,0-4.25-1.91-4.25-4.26C1576.08,69.35,1577.99,67.44,1580.33,67.44z M1395.66,67.44c2.35,0,4.25,1.91,4.25,4.27
	c0,2.35-1.9,4.26-4.25,4.26c-2.35,0-4.25-1.91-4.25-4.26C1391.4,69.35,1393.31,67.44,1395.66,67.44z M1597.34,67.44
	c2.35,0,4.25,1.91,4.25,4.27c0,2.35-1.9,4.26-4.25,4.26c-2.35,0-4.25-1.91-4.25-4.26C1593.09,69.35,1595,67.44,1597.34,67.44z
	 M1563.93,67.44c2.35,0,4.25,1.91,4.25,4.27c0,2.35-1.91,4.26-4.25,4.26c-2.35,0-4.25-1.91-4.25-4.26
	C1559.68,69.35,1561.58,67.44,1563.93,67.44z M1463.09,83.89c2.35,0,4.25,1.91,4.25,4.26c0,2.35-1.9,4.27-4.25,4.27
	c-2.35,0-4.25-1.91-4.25-4.27C1458.83,85.8,1460.73,83.89,1463.09,83.89z M1412.66,83.89c2.35,0,4.25,1.91,4.25,4.26
	c0,2.35-1.9,4.27-4.25,4.27c-2.35,0-4.25-1.91-4.25-4.27C1408.41,85.8,1410.31,83.89,1412.66,83.89z M1580.33,83.89
	c2.35,0,4.25,1.91,4.25,4.26c0,2.35-1.91,4.27-4.25,4.27c-2.35,0-4.25-1.91-4.25-4.27C1576.08,85.8,1577.99,83.89,1580.33,83.89z
	 M1597.34,83.89c2.35,0,4.25,1.91,4.25,4.26c0,2.35-1.9,4.27-4.25,4.27c-2.35,0-4.25-1.91-4.25-4.27
	C1593.09,85.8,1595,83.89,1597.34,83.89z M1513.51,83.89c2.35,0,4.25,1.91,4.25,4.26c0,2.35-1.91,4.27-4.25,4.27
	c-2.35,0-4.25-1.91-4.25-4.27C1509.26,85.8,1511.16,83.89,1513.51,83.89z M1479.49,83.89c2.35,0,4.25,1.91,4.25,4.26
	c0,2.35-1.91,4.27-4.25,4.27c-2.35,0-4.25-1.91-4.25-4.27C1475.24,85.8,1477.14,83.89,1479.49,83.89z M1529.91,83.89
	c2.35,0,4.25,1.91,4.25,4.26c0,2.35-1.91,4.27-4.25,4.27c-2.35,0-4.25-1.91-4.25-4.27C1525.66,85.8,1527.56,83.89,1529.91,83.89z
	 M1546.31,83.89c2.35,0,4.25,1.91,4.25,4.26c0,2.35-1.91,4.27-4.25,4.27c-2.35,0-4.25-1.91-4.25-4.27
	C1542.06,85.8,1543.96,83.89,1546.31,83.89z M1497.11,83.89c2.35,0,4.25,1.91,4.25,4.26c0,2.35-1.91,4.27-4.25,4.27
	c-2.35,0-4.25-1.91-4.25-4.27C1492.85,85.8,1494.76,83.89,1497.11,83.89z M1613.75,83.89c2.35,0,4.25,1.91,4.25,4.26
	c0,2.35-1.9,4.27-4.25,4.27c-2.35,0-4.25-1.91-4.25-4.27C1609.5,85.8,1611.4,83.89,1613.75,83.89z M1563.93,83.89
	c2.35,0,4.25,1.91,4.25,4.26c0,2.35-1.91,4.27-4.25,4.27c-2.35,0-4.25-1.91-4.25-4.27C1559.68,85.8,1561.58,83.89,1563.93,83.89z
	 M1379.25,83.89c2.35,0,4.25,1.91,4.25,4.26c0,2.35-1.9,4.27-4.25,4.27c-2.35,0-4.25-1.91-4.25-4.27
	C1375,85.8,1376.91,83.89,1379.25,83.89z M1446.68,83.89c2.35,0,4.25,1.91,4.25,4.26c0,2.35-1.91,4.27-4.25,4.27
	c-2.35,0-4.25-1.91-4.25-4.27C1442.43,85.8,1444.33,83.89,1446.68,83.89z M1395.66,83.89c2.35,0,4.25,1.91,4.25,4.26
	c0,2.35-1.9,4.27-4.25,4.27c-2.35,0-4.25-1.91-4.25-4.27C1391.4,85.8,1393.31,83.89,1395.66,83.89z M1429.67,83.89
	c2.35,0,4.25,1.91,4.25,4.26c0,2.35-1.91,4.27-4.25,4.27c-2.35,0-4.25-1.91-4.25-4.27C1425.42,85.8,1427.32,83.89,1429.67,83.89z
	 M1597.34,100.34c2.35,0,4.25,1.91,4.25,4.26c0,2.35-1.9,4.27-4.25,4.27c-2.35,0-4.25-1.91-4.25-4.27
	C1593.09,102.25,1595,100.34,1597.34,100.34z M1395.66,100.34c2.35,0,4.25,1.91,4.25,4.26c0,2.35-1.9,4.27-4.25,4.27
	c-2.35,0-4.25-1.91-4.25-4.27C1391.4,102.25,1393.31,100.34,1395.66,100.34z M1529.91,100.34c2.35,0,4.25,1.91,4.25,4.26
	c0,2.35-1.91,4.27-4.25,4.27c-2.35,0-4.25-1.91-4.25-4.27C1525.66,102.25,1527.56,100.34,1529.91,100.34z M1379.25,100.34
	c2.35,0,4.25,1.91,4.25,4.26c0,2.35-1.9,4.27-4.25,4.27c-2.35,0-4.25-1.91-4.25-4.27C1375,102.25,1376.91,100.34,1379.25,100.34z
	 M1412.66,100.34c2.35,0,4.25,1.91,4.25,4.26c0,2.35-1.9,4.27-4.25,4.27c-2.35,0-4.25-1.91-4.25-4.27
	C1408.41,102.25,1410.31,100.34,1412.66,100.34z M1479.49,100.34c2.35,0,4.25,1.91,4.25,4.26c0,2.35-1.91,4.27-4.25,4.27
	c-2.35,0-4.25-1.91-4.25-4.27C1475.24,102.25,1477.14,100.34,1479.49,100.34z M1513.51,100.34c2.35,0,4.25,1.91,4.25,4.26
	c0,2.35-1.91,4.27-4.25,4.27c-2.35,0-4.25-1.91-4.25-4.27C1509.26,102.25,1511.16,100.34,1513.51,100.34z M1613.75,100.34
	c2.35,0,4.25,1.91,4.25,4.26c0,2.35-1.9,4.27-4.25,4.27c-2.35,0-4.25-1.91-4.25-4.27C1609.5,102.25,1611.4,100.34,1613.75,100.34z
	 M1580.33,100.34c2.35,0,4.25,1.91,4.25,4.26c0,2.35-1.91,4.27-4.25,4.27c-2.35,0-4.25-1.91-4.25-4.27
	C1576.08,102.25,1577.99,100.34,1580.33,100.34z M1463.09,100.34c2.35,0,4.25,1.91,4.25,4.26c0,2.35-1.9,4.27-4.25,4.27
	c-2.35,0-4.25-1.91-4.25-4.27C1458.83,102.25,1460.73,100.34,1463.09,100.34z M1429.67,100.34c2.35,0,4.25,1.91,4.25,4.26
	c0,2.35-1.91,4.27-4.25,4.27c-2.35,0-4.25-1.91-4.25-4.27C1425.42,102.25,1427.32,100.34,1429.67,100.34z M1546.31,100.34
	c2.35,0,4.25,1.91,4.25,4.26c0,2.35-1.91,4.27-4.25,4.27c-2.35,0-4.25-1.91-4.25-4.27C1542.06,102.25,1543.96,100.34,1546.31,100.34
	z M1497.11,100.34c2.35,0,4.25,1.91,4.25,4.26c0,2.35-1.91,4.27-4.25,4.27c-2.35,0-4.25-1.91-4.25-4.27
	C1492.85,102.25,1494.76,100.34,1497.11,100.34z M1563.93,100.34c2.35,0,4.25,1.91,4.25,4.26c0,2.35-1.91,4.27-4.25,4.27
	c-2.35,0-4.25-1.91-4.25-4.27C1559.68,102.25,1561.58,100.34,1563.93,100.34z M1446.68,100.34c2.35,0,4.25,1.91,4.25,4.26
	c0,2.35-1.91,4.27-4.25,4.27c-2.35,0-4.25-1.91-4.25-4.27C1442.43,102.25,1444.33,100.34,1446.68,100.34z M1497.11,118
	c2.35,0,4.25,1.91,4.25,4.26c0,2.35-1.91,4.26-4.25,4.26c-2.35,0-4.25-1.91-4.25-4.26C1492.85,119.92,1494.76,118,1497.11,118z
	 M1463.09,118c2.35,0,4.25,1.91,4.25,4.26c0,2.35-1.9,4.26-4.25,4.26c-2.35,0-4.25-1.91-4.25-4.26
	C1458.83,119.92,1460.73,118,1463.09,118z M1546.31,118c2.35,0,4.25,1.91,4.25,4.26c0,2.35-1.91,4.26-4.25,4.26
	c-2.35,0-4.25-1.91-4.25-4.26C1542.06,119.92,1543.96,118,1546.31,118z M1395.66,118c2.35,0,4.25,1.91,4.25,4.26
	c0,2.35-1.9,4.26-4.25,4.26c-2.35,0-4.25-1.91-4.25-4.26C1391.4,119.92,1393.31,118,1395.66,118z M1513.51,118
	c2.35,0,4.25,1.91,4.25,4.26c0,2.35-1.91,4.26-4.25,4.26c-2.35,0-4.25-1.91-4.25-4.26C1509.26,119.92,1511.16,118,1513.51,118z
	 M1563.93,118c2.35,0,4.25,1.91,4.25,4.26c0,2.35-1.91,4.26-4.25,4.26c-2.35,0-4.25-1.91-4.25-4.26
	C1559.68,119.92,1561.58,118,1563.93,118z M1580.33,118c2.35,0,4.25,1.91,4.25,4.26c0,2.35-1.91,4.26-4.25,4.26
	c-2.35,0-4.25-1.91-4.25-4.26C1576.08,119.92,1577.99,118,1580.33,118z M1379.25,118c2.35,0,4.25,1.91,4.25,4.26
	c0,2.35-1.9,4.26-4.25,4.26c-2.35,0-4.25-1.91-4.25-4.26C1375,119.92,1376.91,118,1379.25,118z M1412.66,118
	c2.35,0,4.25,1.91,4.25,4.26c0,2.35-1.9,4.26-4.25,4.26c-2.35,0-4.25-1.91-4.25-4.26C1408.41,119.92,1410.31,118,1412.66,118z
	 M1597.34,118c2.35,0,4.25,1.91,4.25,4.26c0,2.35-1.9,4.26-4.25,4.26c-2.35,0-4.25-1.91-4.25-4.26
	C1593.09,119.92,1595,118,1597.34,118z M1446.68,118c2.35,0,4.25,1.91,4.25,4.26c0,2.35-1.91,4.26-4.25,4.26
	c-2.35,0-4.25-1.91-4.25-4.26C1442.43,119.92,1444.33,118,1446.68,118z M1613.75,118c2.35,0,4.25,1.91,4.25,4.26
	c0,2.35-1.9,4.26-4.25,4.26c-2.35,0-4.25-1.91-4.25-4.26C1609.5,119.92,1611.4,118,1613.75,118z M1529.91,118
	c2.35,0,4.25,1.91,4.25,4.26c0,2.35-1.91,4.26-4.25,4.26c-2.35,0-4.25-1.91-4.25-4.26C1525.66,119.92,1527.56,118,1529.91,118z
	 M1429.67,118c2.35,0,4.25,1.91,4.25,4.26c0,2.35-1.91,4.26-4.25,4.26c-2.35,0-4.25-1.91-4.25-4.26
	C1425.42,119.92,1427.32,118,1429.67,118z M1479.49,118c2.35,0,4.25,1.91,4.25,4.26c0,2.35-1.91,4.26-4.25,4.26
	c-2.35,0-4.25-1.91-4.25-4.26C1475.24,119.92,1477.14,118,1479.49,118z M1395.66,134.45c2.35,0,4.25,1.91,4.25,4.27
	c0,2.35-1.9,4.26-4.25,4.26c-2.35,0-4.25-1.91-4.25-4.26C1391.4,136.36,1393.31,134.45,1395.66,134.45z M1379.25,134.45
	c2.35,0,4.25,1.91,4.25,4.27c0,2.35-1.9,4.26-4.25,4.26c-2.35,0-4.25-1.91-4.25-4.26C1375,136.36,1376.91,134.45,1379.25,134.45z
	 M1412.66,134.45c2.35,0,4.25,1.91,4.25,4.27c0,2.35-1.9,4.26-4.25,4.26c-2.35,0-4.25-1.91-4.25-4.26
	C1408.41,136.36,1410.31,134.45,1412.66,134.45z M1597.34,134.45c2.35,0,4.25,1.91,4.25,4.27c0,2.35-1.9,4.26-4.25,4.26
	c-2.35,0-4.25-1.91-4.25-4.26C1593.09,136.36,1595,134.45,1597.34,134.45z M1529.91,134.45c2.35,0,4.25,1.91,4.25,4.27
	c0,2.35-1.91,4.26-4.25,4.26c-2.35,0-4.25-1.91-4.25-4.26C1525.66,136.36,1527.56,134.45,1529.91,134.45z M1563.93,134.45
	c2.35,0,4.25,1.91,4.25,4.27c0,2.35-1.91,4.26-4.25,4.26c-2.35,0-4.25-1.91-4.25-4.26C1559.68,136.36,1561.58,134.45,1563.93,134.45
	z M1513.51,134.45c2.35,0,4.25,1.91,4.25,4.27c0,2.35-1.91,4.26-4.25,4.26c-2.35,0-4.25-1.91-4.25-4.26
	C1509.26,136.36,1511.16,134.45,1513.51,134.45z M1479.49,134.45c2.35,0,4.25,1.91,4.25,4.27c0,2.35-1.91,4.26-4.25,4.26
	c-2.35,0-4.25-1.91-4.25-4.26C1475.24,136.36,1477.14,134.45,1479.49,134.45z M1613.75,134.45c2.35,0,4.25,1.91,4.25,4.27
	c0,2.35-1.9,4.26-4.25,4.26c-2.35,0-4.25-1.91-4.25-4.26C1609.5,136.36,1611.4,134.45,1613.75,134.45z M1463.09,134.45
	c2.35,0,4.25,1.91,4.25,4.27c0,2.35-1.9,4.26-4.25,4.26c-2.35,0-4.25-1.91-4.25-4.26C1458.83,136.36,1460.73,134.45,1463.09,134.45z
	 M1497.11,134.45c2.35,0,4.25,1.91,4.25,4.27c0,2.35-1.91,4.26-4.25,4.26c-2.35,0-4.25-1.91-4.25-4.26
	C1492.85,136.36,1494.76,134.45,1497.11,134.45z M1580.33,134.45c2.35,0,4.25,1.91,4.25,4.27c0,2.35-1.91,4.26-4.25,4.26
	c-2.35,0-4.25-1.91-4.25-4.26C1576.08,136.36,1577.99,134.45,1580.33,134.45z M1429.67,134.45c2.35,0,4.25,1.91,4.25,4.27
	c0,2.35-1.91,4.26-4.25,4.26c-2.35,0-4.25-1.91-4.25-4.26C1425.42,136.36,1427.32,134.45,1429.67,134.45z M1546.31,134.45
	c2.35,0,4.25,1.91,4.25,4.27c0,2.35-1.91,4.26-4.25,4.26c-2.35,0-4.25-1.91-4.25-4.26C1542.06,136.36,1543.96,134.45,1546.31,134.45
	z M1446.68,134.45c2.35,0,4.25,1.91,4.25,4.27c0,2.35-1.91,4.26-4.25,4.26c-2.35,0-4.25-1.91-4.25-4.26
	C1442.43,136.36,1444.33,134.45,1446.68,134.45z M1513.51,150.9c2.35,0,4.25,1.91,4.25,4.27c0,2.35-1.91,4.26-4.25,4.26
	c-2.35,0-4.25-1.91-4.25-4.26C1509.26,152.81,1511.16,150.9,1513.51,150.9z M1446.68,150.9c2.35,0,4.25,1.91,4.25,4.27
	c0,2.35-1.91,4.26-4.25,4.26c-2.35,0-4.25-1.91-4.25-4.26C1442.43,152.81,1444.33,150.9,1446.68,150.9z M1379.25,150.9
	c2.35,0,4.25,1.91,4.25,4.27c0,2.35-1.9,4.26-4.25,4.26c-2.35,0-4.25-1.91-4.25-4.26C1375,152.81,1376.91,150.9,1379.25,150.9z
	 M1395.66,150.9c2.35,0,4.25,1.91,4.25,4.27c0,2.35-1.9,4.26-4.25,4.26c-2.35,0-4.25-1.91-4.25-4.26
	C1391.4,152.81,1393.31,150.9,1395.66,150.9z M1412.66,150.9c2.35,0,4.25,1.91,4.25,4.27c0,2.35-1.9,4.26-4.25,4.26
	c-2.35,0-4.25-1.91-4.25-4.26C1408.41,152.81,1410.31,150.9,1412.66,150.9z M1597.34,150.9c2.35,0,4.25,1.91,4.25,4.27
	c0,2.35-1.9,4.26-4.25,4.26c-2.35,0-4.25-1.91-4.25-4.26C1593.09,152.81,1595,150.9,1597.34,150.9z M1580.33,150.9
	c2.35,0,4.25,1.91,4.25,4.27c0,2.35-1.91,4.26-4.25,4.26c-2.35,0-4.25-1.91-4.25-4.26C1576.08,152.81,1577.99,150.9,1580.33,150.9z
	 M1497.11,150.9c2.35,0,4.25,1.91,4.25,4.27c0,2.35-1.91,4.26-4.25,4.26c-2.35,0-4.25-1.91-4.25-4.26
	C1492.85,152.81,1494.76,150.9,1497.11,150.9z M1463.09,150.9c2.35,0,4.25,1.91,4.25,4.27c0,2.35-1.9,4.26-4.25,4.26
	c-2.35,0-4.25-1.91-4.25-4.26C1458.83,152.81,1460.73,150.9,1463.09,150.9z M1546.31,150.9c2.35,0,4.25,1.91,4.25,4.27
	c0,2.35-1.91,4.26-4.25,4.26c-2.35,0-4.25-1.91-4.25-4.26C1542.06,152.81,1543.96,150.9,1546.31,150.9z M1613.75,150.9
	c2.35,0,4.25,1.91,4.25,4.27c0,2.35-1.9,4.26-4.25,4.26c-2.35,0-4.25-1.91-4.25-4.26C1609.5,152.81,1611.4,150.9,1613.75,150.9z
	 M1563.93,150.9c2.35,0,4.25,1.91,4.25,4.27c0,2.35-1.91,4.26-4.25,4.26c-2.35,0-4.25-1.91-4.25-4.26
	C1559.68,152.81,1561.58,150.9,1563.93,150.9z M1429.67,150.9c2.35,0,4.25,1.91,4.25,4.27c0,2.35-1.91,4.26-4.25,4.26
	c-2.35,0-4.25-1.91-4.25-4.26C1425.42,152.81,1427.32,150.9,1429.67,150.9z M1479.49,150.9c2.35,0,4.25,1.91,4.25,4.27
	c0,2.35-1.91,4.26-4.25,4.26c-2.35,0-4.25-1.91-4.25-4.26C1475.24,152.81,1477.14,150.9,1479.49,150.9z M1529.91,150.9
	c2.35,0,4.25,1.91,4.25,4.27c0,2.35-1.91,4.26-4.25,4.26c-2.35,0-4.25-1.91-4.25-4.26C1525.66,152.81,1527.56,150.9,1529.91,150.9z
	 M1529.91,167.35c2.35,0,4.25,1.91,4.25,4.26s-1.91,4.27-4.25,4.27c-2.35,0-4.25-1.91-4.25-4.27S1527.56,167.35,1529.91,167.35z
	 M1395.66,167.35c2.35,0,4.25,1.91,4.25,4.26s-1.9,4.27-4.25,4.27c-2.35,0-4.25-1.91-4.25-4.27S1393.31,167.35,1395.66,167.35z
	 M1597.34,167.35c2.35,0,4.25,1.91,4.25,4.26s-1.9,4.27-4.25,4.27c-2.35,0-4.25-1.91-4.25-4.27S1595,167.35,1597.34,167.35z
	 M1463.09,167.35c2.35,0,4.25,1.91,4.25,4.26s-1.9,4.27-4.25,4.27c-2.35,0-4.25-1.91-4.25-4.27S1460.73,167.35,1463.09,167.35z
	 M1563.93,167.35c2.35,0,4.25,1.91,4.25,4.26s-1.91,4.27-4.25,4.27c-2.35,0-4.25-1.91-4.25-4.27S1561.58,167.35,1563.93,167.35z
	 M1429.67,167.35c2.35,0,4.25,1.91,4.25,4.26s-1.91,4.27-4.25,4.27c-2.35,0-4.25-1.91-4.25-4.27S1427.32,167.35,1429.67,167.35z
	 M1497.11,167.35c2.35,0,4.25,1.91,4.25,4.26s-1.91,4.27-4.25,4.27c-2.35,0-4.25-1.91-4.25-4.27S1494.76,167.35,1497.11,167.35z
	 M1446.68,167.35c2.35,0,4.25,1.91,4.25,4.26s-1.91,4.27-4.25,4.27c-2.35,0-4.25-1.91-4.25-4.27S1444.33,167.35,1446.68,167.35z
	 M1412.66,167.35c2.35,0,4.25,1.91,4.25,4.26s-1.9,4.27-4.25,4.27c-2.35,0-4.25-1.91-4.25-4.27S1410.31,167.35,1412.66,167.35z
	 M1513.51,167.35c2.35,0,4.25,1.91,4.25,4.26s-1.91,4.27-4.25,4.27c-2.35,0-4.25-1.91-4.25-4.27S1511.16,167.35,1513.51,167.35z
	 M1479.49,167.35c2.35,0,4.25,1.91,4.25,4.26s-1.91,4.27-4.25,4.27c-2.35,0-4.25-1.91-4.25-4.27S1477.14,167.35,1479.49,167.35z
	 M1580.33,167.35c2.35,0,4.25,1.91,4.25,4.26s-1.91,4.27-4.25,4.27c-2.35,0-4.25-1.91-4.25-4.27S1577.99,167.35,1580.33,167.35z
	 M1546.31,167.35c2.35,0,4.25,1.91,4.25,4.26s-1.91,4.27-4.25,4.27c-2.35,0-4.25-1.91-4.25-4.27S1543.96,167.35,1546.31,167.35z
	 M1395.66,185.02c2.35,0,4.25,1.91,4.25,4.26s-1.9,4.26-4.25,4.26c-2.35,0-4.25-1.91-4.25-4.26S1393.31,185.02,1395.66,185.02z
	 M1429.67,185.02c2.35,0,4.25,1.91,4.25,4.26s-1.91,4.26-4.25,4.26c-2.35,0-4.25-1.91-4.25-4.26S1427.32,185.02,1429.67,185.02z
	 M1529.91,185.02c2.35,0,4.25,1.91,4.25,4.26s-1.91,4.26-4.25,4.26c-2.35,0-4.25-1.91-4.25-4.26S1527.56,185.02,1529.91,185.02z
	 M1412.66,185.02c2.35,0,4.25,1.91,4.25,4.26s-1.9,4.26-4.25,4.26c-2.35,0-4.25-1.91-4.25-4.26S1410.31,185.02,1412.66,185.02z
	 M1546.31,185.02c2.35,0,4.25,1.91,4.25,4.26s-1.91,4.26-4.25,4.26c-2.35,0-4.25-1.91-4.25-4.26S1543.96,185.02,1546.31,185.02z
	 M1497.11,185.02c2.35,0,4.25,1.91,4.25,4.26s-1.91,4.26-4.25,4.26c-2.35,0-4.25-1.91-4.25-4.26S1494.76,185.02,1497.11,185.02z
	 M1513.51,185.02c2.35,0,4.25,1.91,4.25,4.26s-1.91,4.26-4.25,4.26c-2.35,0-4.25-1.91-4.25-4.26S1511.16,185.02,1513.51,185.02z
	 M1479.49,185.02c2.35,0,4.25,1.91,4.25,4.26s-1.91,4.26-4.25,4.26c-2.35,0-4.25-1.91-4.25-4.26S1477.14,185.02,1479.49,185.02z
	 M1563.93,185.02c2.35,0,4.25,1.91,4.25,4.26s-1.91,4.26-4.25,4.26c-2.35,0-4.25-1.91-4.25-4.26S1561.58,185.02,1563.93,185.02z
	 M1463.09,185.02c2.35,0,4.25,1.91,4.25,4.26s-1.9,4.26-4.25,4.26c-2.35,0-4.25-1.91-4.25-4.26S1460.73,185.02,1463.09,185.02z
	 M1597.34,185.02c2.35,0,4.25,1.91,4.25,4.26s-1.9,4.26-4.25,4.26c-2.35,0-4.25-1.91-4.25-4.26S1595,185.02,1597.34,185.02z
	 M1446.68,185.02c2.35,0,4.25,1.91,4.25,4.26s-1.91,4.26-4.25,4.26c-2.35,0-4.25-1.91-4.25-4.26S1444.33,185.02,1446.68,185.02z
	 M1580.33,185.02c2.35,0,4.25,1.91,4.25,4.26s-1.91,4.26-4.25,4.26c-2.35,0-4.25-1.91-4.25-4.26S1577.99,185.02,1580.33,185.02z
	 M1580.33,201.47c2.35,0,4.25,1.91,4.25,4.26s-1.91,4.26-4.25,4.26c-2.35,0-4.25-1.91-4.25-4.26S1577.99,201.47,1580.33,201.47z
	 M1429.67,201.47c2.35,0,4.25,1.91,4.25,4.26s-1.91,4.26-4.25,4.26c-2.35,0-4.25-1.91-4.25-4.26S1427.32,201.47,1429.67,201.47z
	 M1412.66,201.47c2.35,0,4.25,1.91,4.25,4.26s-1.9,4.26-4.25,4.26c-2.35,0-4.25-1.91-4.25-4.26S1410.31,201.47,1412.66,201.47z
	 M1563.93,201.47c2.35,0,4.25,1.91,4.25,4.26s-1.91,4.26-4.25,4.26c-2.35,0-4.25-1.91-4.25-4.26S1561.58,201.47,1563.93,201.47z
	 M1529.91,201.47c2.35,0,4.25,1.91,4.25,4.26s-1.91,4.26-4.25,4.26c-2.35,0-4.25-1.91-4.25-4.26S1527.56,201.47,1529.91,201.47z
	 M1497.11,201.47c2.35,0,4.25,1.91,4.25,4.26s-1.91,4.26-4.25,4.26c-2.35,0-4.25-1.91-4.25-4.26S1494.76,201.47,1497.11,201.47z
	 M1479.49,201.47c2.35,0,4.25,1.91,4.25,4.26s-1.91,4.26-4.25,4.26c-2.35,0-4.25-1.91-4.25-4.26S1477.14,201.47,1479.49,201.47z
	 M1463.09,201.47c2.35,0,4.25,1.91,4.25,4.26s-1.9,4.26-4.25,4.26c-2.35,0-4.25-1.91-4.25-4.26S1460.73,201.47,1463.09,201.47z
	 M1513.51,201.47c2.35,0,4.25,1.91,4.25,4.26s-1.91,4.26-4.25,4.26c-2.35,0-4.25-1.91-4.25-4.26S1511.16,201.47,1513.51,201.47z
	 M1446.68,201.47c2.35,0,4.25,1.91,4.25,4.26s-1.91,4.26-4.25,4.26c-2.35,0-4.25-1.91-4.25-4.26S1444.33,201.47,1446.68,201.47z
	 M1546.31,201.47c2.35,0,4.25,1.91,4.25,4.26s-1.91,4.26-4.25,4.26c-2.35,0-4.25-1.91-4.25-4.26S1543.96,201.47,1546.31,201.47z
	 M1429.67,218.52c2.35,0,4.25,1.91,4.25,4.27c0,2.35-1.91,4.26-4.25,4.26c-2.35,0-4.25-1.91-4.25-4.26
	C1425.42,220.43,1427.32,218.52,1429.67,218.52z M1497.11,218.52c2.35,0,4.25,1.91,4.25,4.27c0,2.35-1.91,4.26-4.25,4.26
	c-2.35,0-4.25-1.91-4.25-4.26C1492.85,220.43,1494.76,218.52,1497.11,218.52z M1479.49,218.52c2.35,0,4.25,1.91,4.25,4.27
	c0,2.35-1.91,4.26-4.25,4.26c-2.35,0-4.25-1.91-4.25-4.26C1475.24,220.43,1477.14,218.52,1479.49,218.52z M1529.91,218.52
	c2.35,0,4.25,1.91,4.25,4.27c0,2.35-1.91,4.26-4.25,4.26c-2.35,0-4.25-1.91-4.25-4.26C1525.66,220.43,1527.56,218.52,1529.91,218.52
	z M1463.09,218.52c2.35,0,4.25,1.91,4.25,4.27c0,2.35-1.9,4.26-4.25,4.26c-2.35,0-4.25-1.91-4.25-4.26
	C1458.83,220.43,1460.73,218.52,1463.09,218.52z M1446.68,218.52c2.35,0,4.25,1.91,4.25,4.27c0,2.35-1.91,4.26-4.25,4.26
	c-2.35,0-4.25-1.91-4.25-4.26C1442.43,220.43,1444.33,218.52,1446.68,218.52z M1513.51,218.52c2.35,0,4.25,1.91,4.25,4.27
	c0,2.35-1.91,4.26-4.25,4.26c-2.35,0-4.25-1.91-4.25-4.26C1509.26,220.43,1511.16,218.52,1513.51,218.52z M1563.93,218.52
	c2.35,0,4.25,1.91,4.25,4.27c0,2.35-1.91,4.26-4.25,4.26c-2.35,0-4.25-1.91-4.25-4.26C1559.68,220.43,1561.58,218.52,1563.93,218.52
	z M1546.31,218.52c2.35,0,4.25,1.91,4.25,4.27c0,2.35-1.91,4.26-4.25,4.26c-2.35,0-4.25-1.91-4.25-4.26
	C1542.06,220.43,1543.96,218.52,1546.31,218.52z M1463.09,234.97c2.35,0,4.25,1.91,4.25,4.26c0,2.35-1.9,4.27-4.25,4.27
	c-2.35,0-4.25-1.91-4.25-4.27C1458.83,236.88,1460.73,234.97,1463.09,234.97z M1497.11,234.97c2.35,0,4.25,1.91,4.25,4.26
	c0,2.35-1.91,4.27-4.25,4.27c-2.35,0-4.25-1.91-4.25-4.27C1492.85,236.88,1494.76,234.97,1497.11,234.97z M1479.49,234.97
	c2.35,0,4.25,1.91,4.25,4.26c0,2.35-1.91,4.27-4.25,4.27c-2.35,0-4.25-1.91-4.25-4.27C1475.24,236.88,1477.14,234.97,1479.49,234.97
	z M1529.91,234.97c2.35,0,4.25,1.91,4.25,4.26c0,2.35-1.91,4.27-4.25,4.27c-2.35,0-4.25-1.91-4.25-4.27
	C1525.66,236.88,1527.56,234.97,1529.91,234.97z M1513.51,234.97c2.35,0,4.25,1.91,4.25,4.26c0,2.35-1.91,4.27-4.25,4.27
	c-2.35,0-4.25-1.91-4.25-4.27C1509.26,236.88,1511.16,234.97,1513.51,234.97z M1774.7,0.5v52.69h-6.4V0.5H1774.7z M1792.35,28.06
	c2.09,0.46,4.15,0.98,6.18,1.6l-6.78,26.5l-6.2-1.6L1792.35,28.06z M1746.23,10.77l11.22,43.78l-6.2,1.6l-11.22-43.78
	C1742.08,11.77,1744.14,11.23,1746.23,10.77z M1823.63,20.6c1.9,1.01,3.76,2.04,5.6,3.12l-21.71,39.55l-5.61-3.09L1823.63,20.6z
	 M1715.75,14.02l25.33,46.17l-5.61,3.09l-25.33-46.17L1715.75,14.02z M1716.42,58.82l10.22,10.9l-4.66,4.39l-10.19-10.87
	C1713.26,61.69,1714.8,60.22,1716.42,58.82z M1852.37,31.31l4.66,4.39l-36,38.41l-4.66-4.39L1852.37,31.31z M1670.59,54.32
	l44.4,28.23l-3.43,5.41l-44.4-28.23L1670.59,54.32z M1840.52,74.59c1.2,1.76,2.34,3.58,3.4,5.44l-12.49,7.94l-3.43-5.42
	L1840.52,74.59z M1886.1,81.6l1.97,6.1l-50.01,16.28l-1.98-6.1L1886.1,81.6z M1681.31,89.55l25.59,8.33l-1.97,6.1l-25.56-8.32
	C1679.95,93.6,1680.6,91.55,1681.31,89.55z M1650.4,111.43l52.48,3.31l-0.4,6.4l-52.48-3.31L1650.4,111.43z M1892.6,111.43l0.4,6.4
	l-52.48,3.31l-0.4-6.4L1892.6,111.43z M1703.17,132.08l1.19,6.29l-14.07,2.69c-0.49-2.06-0.91-4.16-1.24-6.28L1703.17,132.08z
	 M1839.83,132.08l43.61,8.33c-0.33,2.12-0.76,4.22-1.22,6.29l-43.59-8.33L1839.83,132.08z M1707.75,148.79l2.73,5.81l-47.58,22.43
	l-2.72-5.8L1707.75,148.79z M1835.25,148.79l47.58,22.44l-2.72,5.8l-47.58-22.43L1835.25,148.79z M1826.67,163.85l29.08,24.11
	c-0.02,0.04-0.05,0.07-0.08,0.12c-1.23,1.58-2.53,3.15-3.88,4.64c-0.04,0.05-0.1,0.11-0.14,0.16l-29.06-24.08L1826.67,163.85z
	 M1716.33,163.84l4.07,4.95l-33.94,28.13c-1.43-1.58-2.8-3.24-4.11-4.91L1716.33,163.84z M1743.14,185.34l5.95,2.36l-5.11,12.92
	c-2.03-0.71-4.01-1.49-5.95-2.34L1743.14,185.34z M1814.62,176.29L1830,197.5c-1.68,1.31-3.41,2.57-5.18,3.75l-15.38-21.2
	L1814.62,176.29z M1728.38,176.29l5.18,3.77l-30.91,42.63l-5.18-3.77L1728.38,176.29z M1783.31,190.43l5.5,43.6
	c-2.09,0.33-4.2,0.59-6.34,0.8h-0.01l-5.49-43.6L1783.31,190.43z M1799.86,185.34l19.36,48.99l-5.95,2.36l-19.36-48.99
	L1799.86,185.34z M1759.68,190.42l6.35,0.8l-6.59,52.27l-6.35-0.8L1759.68,190.42z"/>
</svg>
