<svg xmlns="http://www.w3.org/2000/svg" width="659" height="440" viewBox="0 0 659 440">
    <rect fill="#F0F0F0" width="659" height="440"/>
    <path fill="#000000" fill-opacity="0.3" d="M233.92,160.07c-6.9,0-12.87,4.11-15.57,10.01h31.15C246.79,164.18,240.83,160.07,233.92,160.07zM455.14,145.79c3.94,0,7.14,3.2,7.14,7.14v23.88c0,17.33-14.09,31.44-31.4,31.44c-17.31,0-31.39-14.11-31.39-31.44v-23.88c0-3.95,3.19-7.14,7.13-7.14c3.94,0,7.13,3.2,7.13,7.14v23.88c0,9.46,7.68,17.16,17.13,17.16c9.45,0,17.14-7.69,17.14-17.16v-23.88C448.01,148.99,451.2,145.79,455.14,145.79z M303.44,145.79c17.3,0,31.39,14.11,31.39,31.44v23.89c0,3.95-3.19,7.14-7.13,7.14c-3.94,0-7.13-3.19-7.13-7.14v-23.89c0-9.46-7.68-17.16-17.13-17.16c-9.45,0-17.14,7.69-17.14,17.16v23.89c0,3.95-3.19,7.14-7.12,7.14c-3.94,0-7.13-3.19-7.13-7.14v-23.89C272.05,159.9,286.13,145.79,303.44,145.79z M495.29,145.81c5.13,0,9.6,1.05,13.17,2.37c2.72,0.94,4.68,3.46,4.68,6.47c0,3.69-2.98,6.68-6.66,6.68c-1.05,0-1.97-0.26-2.94-0.64c-2.37-0.9-5.22-1.63-8.25-1.63c-5.66,0-10.83,2.02-10.83,5.67c0,3.66,4.03,4.54,14.11,6.69c11.85,2.52,20.28,6.43,20.28,18.8c0,10.22-10.83,18.42-26.08,18.42c-8.45,0-15.02-2.53-19.55-5.15c-2.2-1.14-3.78-3.4-3.78-6.07c0-3.72,3.01-6.74,6.73-6.74c0.9,0,1.76,0.19,2.54,0.52l0.36,0.18c3.63,1.83,7.81,4.01,13.19,4.01c6.17,0,11.33-1.77,11.33-5.42c0-3.91-2.77-4.67-11.84-6.56c-11.84-2.52-22.17-7.58-22.17-18.93C469.59,155.14,478.91,145.81,495.29,145.81z M368.74,145.81c5.13,0,9.6,1.05,13.17,2.37c2.73,0.83,4.68,3.46,4.68,6.47c0,3.69-2.99,6.68-6.67,6.68c-1.05,0-2.02-0.28-2.94-0.64c-2.37-0.9-5.23-1.63-8.25-1.63c-5.66,0-10.84,2.02-10.84,5.67c0,3.66,4.03,4.54,14.11,6.69c11.85,2.52,20.29,6.43,20.29,18.8c0,10.22-10.83,18.42-26.08,18.42c-8.45,0-15.01-2.53-19.55-5.15c-2.24-1.09-3.78-3.4-3.78-6.07c0-3.72,3.01-6.74,6.73-6.74c0.9,0,1.89,0.26,2.68,0.57l-0.03-0.01c0,0,0.01,0.01,0.02,0.01c3.71,1.87,7.86,4.14,13.42,4.14c6.18,0,11.34-1.77,11.34-5.42c0-3.91-2.77-4.67-11.84-6.56c-11.86-2.52-22.18-7.58-22.18-18.93C343.04,155.14,352.36,145.81,368.74,145.81z M171.53,145.79c8.66,0,17.02,3.65,22.95,10.02c2.68,2.89,2.52,7.4-0.35,10.09c-2.88,2.69-7.4,2.53-10.08-0.35c-3.29-3.54-7.72-5.48-12.52-5.48c-9.44,0-17.13,7.7-17.13,17.16c0,9.46,7.68,17.16,17.13,17.16c4.79,0,9.23-1.95,12.52-5.49c2.68-2.89,7.2-3.05,10.08-0.36c2.87,2.69,3.03,7.21,0.35,10.09c-5.93,6.38-14.3,10.04-22.95,10.04c-17.3,0-31.38-14.1-31.38-31.44C140.15,159.89,154.23,145.79,171.53,145.79z M233.92,145.79c17.31,0,31.39,14.11,31.39,31.44c0,3.94-3.19,7.14-7.13,7.14h-39.83c2.71,5.91,8.67,10.02,15.57,10.02c3.93,0,7.14,3.2,7.14,7.14c0,3.95-3.2,7.14-7.14,7.14c-17.3,0-31.39-14.11-31.39-31.44C202.53,159.9,216.62,145.79,233.92,145.79z M220.51,239.7c-9.71,0-15.27,7.23-15.27,19.84v6.77c0,12.61,5.65,19.84,15.27,19.84c9.91,0,15.46-7.14,15.46-19.75v-6.68C235.98,247.12,230.24,239.7,220.51,239.7z M167.01,231.82c13.06,0,20.92,6.77,20.92,17.89c0,10.09-7.5,14.47-15.92,18.42l-0.67,0.31l-0.67,0.31c-0.11,0.05-0.22,0.1-0.34,0.15c-7.86,3.52-14.35,6.86-15.91,13.26c-0.19,0.83-0.38,1.76-0.38,2.69h30.36c3.15,0,4.54,1.3,4.54,3.71v0.56c0,2.5-1.39,3.89-4.54,3.89H151.1c-4.17,0-5.93-1.39-5.93-5.19v-2.32c0-11.47,8.25-17.01,16.63-21.3l0.63-0.32l0.63-0.32l0.63-0.31l0.37-0.18l0.73-0.36c7.41-3.64,13.8-6.62,13.8-12.81c0-6.22-4.54-9.92-12.21-9.92c-8.8,0-12.97,5.38-14.63,11.49c0,0.28-6.29,0.37-6.29-4.63c0-3.15,1.85-6.86,5.46-9.83C154.51,234.04,159.98,231.82,167.01,231.82z M275.31,231.82c13.06,0,20.93,6.77,20.93,17.89c0,10.22-7.7,14.58-16.26,18.57l-0.67,0.31c-0.22,0.1-0.45,0.21-0.67,0.31c-7.86,3.52-14.34,6.86-15.91,13.26c-0.19,0.83-0.37,1.76-0.37,2.69h30.36c3.15,0,4.53,1.3,4.53,3.71v0.56c0,2.5-1.39,3.89-4.53,3.89H259.4c-4.17,0-5.93-1.39-5.93-5.19v-2.32c0-11.76,8.67-17.28,17.26-21.62l0.63-0.32c0.21-0.1,0.42-0.21,0.63-0.31c7.86-3.89,14.9-6.86,14.9-13.35c0-6.22-4.54-9.92-12.21-9.92c-8.8,0-12.97,5.38-14.63,11.49c0,0.28-6.29,0.37-6.29-4.63c0-3.15,1.85-6.86,5.46-9.83C262.81,234.04,268.28,231.82,275.31,231.82z M328.26,232.56c2.68,0,4.26,1.48,4.26,4.36l-0.09,48.03h8.05c2.87,0,4.35,1.21,4.35,3.89v0.46c0,2.59-1.48,3.71-4.35,3.71h-26.66c-2.87,0-4.35-1.12-4.35-3.71v-0.46c0-2.69,1.48-3.89,4.35-3.89h10V242.2c-3.61,2.88-5.09,4.54-6.84,5.93c-1.86,1.48-3.33,2.04-4.91,2.04c-3.15,0-4.9-2.69-4.9-5.84l17.87-11.78H328.26z M220.51,231.82c15.56,0,25,10.75,25,28.09v6.03c0,17.34-9.54,28.28-25,28.28c-15.55,0-24.9-10.76-24.9-28.09V260C195.62,242.67,205.15,231.82,220.51,231.82z"/>
</svg>
