<svg xmlns="http://www.w3.org/2000/svg" width="140" height="92" viewBox="0 0 140 92">
    <rect fill="#F0F0F0" width="140" height="92"/>
    <path fill="#000000" fill-opacity="0.3" d="M49.95,33.03c-1.47,0-2.74,0.87-3.31,2.13h6.63C52.68,33.91,51.42,33.03,49.95,33.03z M97,30c0.84,0,1.52,0.68,1.52,1.52v5.07c0,3.68-3,6.68-6.68,6.68c-3.68,0-6.68-3-6.68-6.68v-5.07c0-0.84,0.68-1.52,1.52-1.52s1.52,0.68,1.52,1.52v5.07c0,2.01,1.63,3.64,3.64,3.64c2.01,0,3.64-1.63,3.64-3.64v-5.07C95.49,30.68,96.17,30,97,30z M64.73,30c3.68,0,6.68,3,6.68,6.68v5.07c0,0.84-0.68,1.52-1.52,1.52s-1.52-0.68-1.52-1.52v-5.07c0-2.01-1.63-3.64-3.64-3.64c-2.01,0-3.65,1.63-3.65,3.64v5.07c0,0.84-0.68,1.52-1.51,1.52c-0.84,0-1.52-0.68-1.52-1.52v-5.07C58.06,33,61.05,30,64.73,30zM105.54,30c1.09,0,2.04,0.22,2.8,0.5c0.58,0.2,1,0.73,1,1.37c0,0.78-0.63,1.42-1.42,1.42c-0.22,0-0.42-0.06-0.63-0.14c-0.51-0.19-1.11-0.35-1.75-0.35c-1.21,0-2.3,0.43-2.3,1.21s0.86,0.97,3,1.42c2.52,0.54,4.31,1.37,4.31,3.99c0,2.17-2.3,3.91-5.55,3.91c-1.8,0-3.19-0.54-4.16-1.09c-0.47-0.24-0.8-0.72-0.8-1.29c0-0.79,0.64-1.43,1.43-1.43c0.19,0,0.37,0.04,0.54,0.11l0.2,0.1c0.74,0.37,1.6,0.79,2.68,0.79c1.31,0,2.41-0.38,2.41-1.15c0-0.83-0.59-0.99-2.52-1.39c-2.52-0.54-4.72-1.61-4.72-4.02C100.08,31.99,102.06,30,105.54,30z M78.63,30c1.09,0,2.04,0.22,2.8,0.5c0.58,0.18,1,0.73,1,1.37c0,0.78-0.64,1.42-1.42,1.42c-0.22,0-0.43-0.06-0.62-0.14c-0.51-0.19-1.11-0.35-1.75-0.35c-1.21,0-2.31,0.43-2.31,1.21s0.86,0.97,3,1.42c2.52,0.54,4.31,1.37,4.31,3.99c0,2.17-2.3,3.91-5.55,3.91c-1.8,0-3.19-0.54-4.16-1.09c-0.48-0.23-0.8-0.72-0.8-1.29c0-0.79,0.64-1.43,1.43-1.43c0.19,0,0.4,0.06,0.57,0.12l0.2,0.1c0.74,0.37,1.57,0.78,2.65,0.78c1.32,0,2.41-0.38,2.41-1.15c0-0.83-0.59-0.99-2.52-1.39c-2.52-0.54-4.72-1.61-4.72-4.02C73.16,31.99,75.14,30,78.63,30z M36.68,30c1.84,0,3.62,0.78,4.88,2.13c0.57,0.61,0.54,1.57-0.07,2.14c-0.61,0.57-1.57,0.54-2.15-0.08c-0.7-0.75-1.64-1.16-2.66-1.16c-2.01,0-3.64,1.63-3.64,3.64c0,2.01,1.63,3.64,3.64,3.64c1.02,0,1.96-0.41,2.66-1.17c0.57-0.61,1.53-0.65,2.15-0.08c0.61,0.57,0.65,1.53,0.07,2.14c-1.26,1.35-3.04,2.13-4.88,2.13c-3.68,0-6.68-2.99-6.68-6.68C30,33,32.99,30,36.68,30z M49.95,30c3.68,0,6.68,3,6.68,6.68c0,0.84-0.68,1.52-1.52,1.52h-8.47c0.58,1.25,1.85,2.13,3.31,2.13c0.84,0,1.52,0.68,1.52,1.52c0,0.84-0.68,1.52-1.52,1.52c-3.68,0-6.68-3-6.68-6.68S46.27,30,49.95,30z M47.09,49.95c-2.07,0-3.25,1.53-3.25,4.21v1.44c0,2.68,1.2,4.21,3.25,4.21c2.11,0,3.29-1.52,3.29-4.19V54.2C50.38,51.52,49.16,49.95,47.09,49.95z M35.71,48.27c2.78,0,4.45,1.44,4.45,3.8c0,2.28-1.81,3.19-3.74,4.08c-1.67,0.75-3.05,1.46-3.38,2.82c-0.04,0.18-0.08,0.37-0.08,0.57h6.46c0.67,0,0.97,0.28,0.97,0.79v0.12c0,0.53-0.29,0.83-0.97,0.83h-7.09c-0.89,0-1.26-0.3-1.26-1.1v-0.49c0-2.45,1.77-3.62,3.57-4.54l0.37-0.19c1.67-0.83,3.17-1.46,3.17-2.83c0-1.32-0.97-2.11-2.6-2.11c-1.87,0-2.76,1.14-3.11,2.44c0,0.06-1.34,0.08-1.34-0.98c0-0.67,0.39-1.46,1.16-2.09C33.06,48.74,34.22,48.27,35.71,48.27z M58.75,48.27c2.78,0,4.45,1.44,4.45,3.8c0,2.28-1.81,3.19-3.74,4.08c-1.67,0.75-3.05,1.46-3.39,2.82C56.03,59.14,56,59.34,56,59.53h6.46c0.67,0,0.96,0.28,0.96,0.79v0.12c0,0.53-0.3,0.83-0.96,0.83h-7.09c-0.89,0-1.26-0.3-1.26-1.1v-0.49c0-2.45,1.77-3.62,3.57-4.54l0.37-0.19c1.67-0.83,3.17-1.46,3.17-2.83c0-1.32-0.97-2.11-2.6-2.11c-1.87,0-2.76,1.14-3.11,2.44c0,0.06-1.34,0.08-1.34-0.98c0-0.67,0.39-1.46,1.16-2.09C56.09,48.74,57.25,48.27,58.75,48.27z M70.01,48.43c0.57,0,0.91,0.31,0.91,0.93l-0.02,10.2h1.71c0.61,0,0.93,0.26,0.93,0.83v0.1c0,0.55-0.32,0.79-0.93,0.79h-5.67c-0.61,0-0.93-0.24-0.93-0.79v-0.1c0-0.57,0.32-0.83,0.93-0.83h2.13v-9.08c-0.77,0.61-1.08,0.97-1.46,1.26c-0.4,0.31-0.71,0.43-1.04,0.43c-0.67,0-1.04-0.57-1.04-1.24l3.8-2.5H70.01zM47.09,48.27c3.31,0,5.32,2.28,5.32,5.97v1.28c0,3.68-2.03,6.01-5.32,6.01c-3.31,0-5.3-2.28-5.3-5.97v-1.3C41.8,50.58,43.83,48.27,47.09,48.27z"/>
</svg>
