<?xml version="1.0" encoding="UTF-8"?>
<svg width="140px" height="92px" viewBox="0 0 140 92" version="1.1" xmlns="http://www.w3.org/2000/svg" xmlns:xlink="http://www.w3.org/1999/xlink">
    <title>Content</title>
    <g id="Symbols" stroke="none" stroke-width="1" fill="none" fill-rule="evenodd">
        <g id="Styles-/-Placeholder-/-3:2" transform="translate(-2.000000, -2.000000)">
            <g id="Content" transform="translate(2.000000, 2.000000)">
                <rect fill="#F0F0F0" x="0" y="0" width="140" height="92"></rect>
                <g id="Group" transform="translate(30.000000, 30.000000)" fill="#000000" fill-opacity="0.3">
                    <g id="Placeholder">
                        <path d="M17.0948,18.2719 C20.4038,18.2719 22.4128,20.5559 22.4128,24.2379 L22.4128,25.5179 C22.4128,29.1999 20.3838,31.5239 17.0948,31.5239 C13.7878,31.5239 11.7988,29.2389 11.7988,25.5569 L11.7988,24.2579 C11.7988,20.5759 13.8278,18.2719 17.0948,18.2719 Z M40.0138,18.4289 C40.5848,18.4289 40.9198,18.7439 40.9198,19.3549 L40.8998,29.5549 L42.6128,29.5549 C43.2238,29.5549 43.5388,29.8109 43.5388,30.3819 L43.5388,30.4799 C43.5388,31.0309 43.2238,31.2679 42.6128,31.2679 L36.9418,31.2679 C36.3318,31.2679 36.0168,31.0309 36.0168,30.4799 L36.0168,30.3819 C36.0168,29.8109 36.3318,29.5549 36.9418,29.5549 L39.0688,29.5549 L39.0688,20.4769 C38.3008,21.0879 37.9858,21.4419 37.6128,21.7369 C37.2178,22.0519 36.9038,22.1709 36.5678,22.1709 C35.8988,22.1709 35.5248,21.5999 35.5248,20.9299 L39.3258,18.4289 L40.0138,18.4289 Z M28.7508,18.2719 C31.5288,18.2719 33.2028,19.7089 33.2028,22.0719 C33.2028,24.3559 31.3898,25.2619 29.4598,26.1479 C27.7878,26.8959 26.4088,27.6049 26.0748,28.9639 C26.0348,29.1409 25.9958,29.3379 25.9958,29.5349 L32.4538,29.5349 C33.1228,29.5349 33.4178,29.8109 33.4178,30.3219 L33.4178,30.4409 C33.4178,30.9719 33.1228,31.2679 32.4538,31.2679 L25.3658,31.2679 C24.4788,31.2679 24.1048,30.9719 24.1048,30.1649 L24.1048,29.6729 C24.1048,27.2228677 25.8795638,26.0479 27.6722254,25.1328459 L28.0428,24.9469 L28.0428,24.9469 C29.7158,24.1199 31.2128,23.4899 31.2128,22.1119 C31.2128,20.7919 30.2478,20.0049 28.6148,20.0049 C26.7438,20.0049 25.8568,21.1469 25.5028,22.4459 C25.5028,22.5049 24.1638,22.5249 24.1638,21.4619 C24.1638,20.7919 24.5568,20.0049 25.3258,19.3749 C26.0928,18.7439 27.2548,18.2719 28.7508,18.2719 Z M5.7148,18.2719 C8.4918,18.2719 10.1648,19.7089 10.1648,22.0719 C10.1648,24.3559 8.3528,25.2619 6.4228,26.1479 C4.7498,26.8959 3.3708,27.6049 3.0378,28.9639 C2.9968,29.1409 2.9578,29.3379 2.9578,29.5349 L9.4158,29.5349 C10.0858,29.5349 10.3808,29.8109 10.3808,30.3219 L10.3808,30.4409 C10.3808,30.9719 10.0858,31.2679 9.4158,31.2679 L2.3288,31.2679 C1.4418,31.2679 1.0678,30.9719 1.0678,30.1649 L1.0678,29.6729 C1.0678,27.2228677 2.84256379,26.0479 4.6352254,25.1328459 L5.0058,24.9469 L5.0058,24.9469 C6.6788,24.1199 8.1758,23.4899 8.1758,22.1119 C8.1758,20.7919 7.2108,20.0049 5.5778,20.0049 C3.7058,20.0049 2.8198,21.1469 2.4658,22.4459 C2.4658,22.5049 1.1268,22.5249 1.1268,21.4619 C1.1268,20.7919 1.5198,20.0049 2.2878,19.3749 C3.0558,18.7439 4.2178,18.2719 5.7148,18.2719 Z M17.0948,19.9459 C15.0288,19.9459 13.8458,21.4809 13.8458,24.1589 L13.8458,25.5969 C13.8458,28.2749 15.0478,29.8109 17.0948,29.8109 C19.2028,29.8109 20.3838,28.2939 20.3838,25.6169 L20.3838,24.1989 C20.3838,21.5209 19.1628,19.9459 17.0948,19.9459 Z M19.9475,0.0004 C23.6285,0.0004 26.6245,2.9964 26.6245,6.6774 C26.6245,7.5144 25.9455,8.1934 25.1075,8.1934 L16.6345,8.1934 C17.2105,9.4484 18.4795,10.3214 19.9475,10.3214 C20.7845,10.3214 21.4655,11.0004 21.4655,11.8374 C21.4655,12.6754 20.7845,13.3544 19.9475,13.3544 C16.2665,13.3544 13.2705,10.3584 13.2705,6.6774 C13.2705,2.9964 16.2665,0.0004 19.9475,0.0004 Z M6.676,-4.08562073e-14 C8.519,-4.08562073e-14 10.297,0.776 11.558,2.129 C12.129,2.742 12.095,3.701 11.484,4.272 C10.871,4.843 9.91,4.809 9.339,4.197 C8.64,3.446 7.696,3.033 6.676,3.033 C4.667,3.033 3.033,4.668 3.033,6.677 C3.033,8.687 4.667,10.321 6.676,10.321 C7.694,10.321 8.639,9.907 9.339,9.155 C9.91,8.542 10.87,8.507 11.484,9.078 C12.095,9.649 12.129,10.609 11.558,11.222 C10.297,12.577 8.517,13.354 6.676,13.354 C2.995,13.354 -5.86197757e-14,10.359 -5.86197757e-14,6.677 C-5.86197757e-14,2.996 2.995,-4.08562073e-14 6.676,-4.08562073e-14 Z M48.6255,0.0043 C49.7165,0.0043 50.6665,0.2283 51.4265,0.5073 C52.0065,0.6843 52.4225,1.2423 52.4225,1.8813 C52.4225,2.6643 51.7865,3.2993 51.0045,3.2993 C50.7805,3.2993 50.5755,3.2393 50.3795,3.1643 C49.8745,2.9723 49.2675,2.8183 48.6255,2.8183 C47.4205,2.8183 46.3205,3.2463 46.3205,4.0233 C46.3205,4.8003 47.1775,4.9883 49.3225,5.4443 C51.8435,5.9803 53.6375,6.8103 53.6375,9.4373 C53.6375,11.6083 51.3335,13.3503 48.0905,13.3503 C46.2925,13.3503 44.8975,12.8133 43.9315,12.2573 C43.4545,12.0253 43.1275,11.5343 43.1275,10.9683 C43.1275,10.1773 43.7675,9.5363 44.5595,9.5363 C44.7515,9.5363 44.9625,9.5913 45.1295,9.6583 L45.1295,9.6583 L45.3285972,9.75876296 C46.0667431,10.1312861 46.899,10.5363 47.9825,10.5363 C49.2975,10.5363 50.3945,10.1613 50.3945,9.3843 C50.3945,8.5533 49.8045,8.3923 47.8765,7.9903 C45.3545,7.4543 43.1585,6.3813 43.1585,3.9703 C43.1585,1.9873 45.1405,0.0043 48.6255,0.0043 Z M75.5434,0.0043 C76.6354,0.0043 77.5844,0.2283 78.3444,0.5073 C78.9234,0.7063 79.3394,1.2423 79.3394,1.8813 C79.3394,2.6643 78.7054,3.2993 77.9234,3.2993 C77.6994,3.2993 77.5054,3.2433 77.2974,3.1643 C76.7924,2.9723 76.1864,2.8183 75.5434,2.8183 C74.3384,2.8183 73.2394,3.2463 73.2394,4.0233 C73.2394,4.8003 74.0964,4.9883 76.2414,5.4443 C78.7614,5.9803 80.5554,6.8103 80.5554,9.4373 C80.5554,11.6083 78.2514,13.3503 75.0084,13.3503 C73.2104,13.3503 71.8144,12.8133 70.8494,12.2573 C70.3824,12.0143 70.0454,11.5343 70.0454,10.9683 C70.0454,10.1773 70.6854,9.5363 71.4774,9.5363 C71.6694,9.5363 71.8514,9.5773 72.0184,9.6463 L72.0184,9.6463 L72.2182785,9.746789 C72.9611222,10.1203625 73.8169833,10.5363 74.9014,10.5363 C76.2144,10.5363 77.3124,10.1613 77.3124,9.3843 C77.3124,8.5533 76.7224,8.3923 74.7934,7.9903 C72.2744,7.4543 70.0774,6.3813 70.0774,3.9703 C70.0774,1.9873 72.0594,0.0043 75.5434,0.0043 Z M34.7338,0.0006 C38.4148,0.0006 41.4108,2.9966 41.4108,6.6776 L41.4108,11.7506 C41.4108,12.5886 40.7318,13.2666 39.8938,13.2666 C39.0558,13.2666 38.3768,12.5886 38.3768,11.7506 L38.3768,6.6776 C38.3768,4.6676 36.7428,3.0336 34.7338,3.0336 C32.7238,3.0336 31.0888,4.6676 31.0888,6.6776 L31.0888,11.7506 C31.0888,12.5886 30.4098,13.2666 29.5738,13.2666 C28.7358,13.2666 28.0568,12.5886 28.0568,11.7506 L28.0568,6.6776 C28.0568,2.9966 31.0518,0.0006 34.7338,0.0006 Z M67.002,0.0006 C67.84,0.0006 68.52,0.6796 68.52,1.5176 L68.52,6.5896 C68.52,10.2706 65.523,13.2666 61.841,13.2666 C58.16,13.2666 55.164,10.2706 55.164,6.5896 L55.164,1.5176 C55.164,0.6796 55.843,0.0006 56.681,0.0006 C57.519,0.0006 58.198,0.6796 58.198,1.5176 L58.198,6.5896 C58.198,8.5996 59.832,10.2336 61.841,10.2336 C63.852,10.2336 65.486,8.5996 65.486,6.5896 L65.486,1.5176 C65.486,0.6796 66.165,0.0006 67.002,0.0006 Z M19.9475,3.0334 C18.4795,3.0334 17.2105,3.9064 16.6345,5.1604 L23.2605,5.1604 C22.6845,3.9064 21.4155,3.0334 19.9475,3.0334 Z"></path>
                    </g>
                </g>
            </g>
        </g>
    </g>
</svg>
