<svg xmlns="http://www.w3.org/2000/svg" width="379" height="248" viewBox="0 0 379 248">
    <rect fill="#ffffff" width="379" height="248"/>
    <path fill="#000000" fill-opacity="0.3" d="M134.53,89.53c-3.97,0-7.4,2.36-8.96,5.76h17.91C141.93,91.9,138.5,89.53,134.53,89.53zM261.75,81.32c2.27,0,4.1,1.84,4.1,4.11v13.73c0,9.97-8.1,18.08-18.06,18.08c-9.95,0-18.05-8.11-18.05-18.08V85.43c0-2.27,1.84-4.11,4.1-4.11s4.1,1.84,4.1,4.11v13.73c0,5.44,4.42,9.87,9.85,9.87c5.44,0,9.85-4.42,9.85-9.87V85.43C257.66,83.16,259.49,81.32,261.75,81.32z M174.51,81.32c9.95,0,18.05,8.11,18.05,18.08v13.74c0,2.27-1.84,4.11-4.1,4.11c-2.27,0-4.1-1.84-4.1-4.11V99.4c0-5.44-4.42-9.87-9.85-9.87c-5.43,0-9.85,4.42-9.85,9.87v13.74c0,2.27-1.84,4.11-4.1,4.11c-2.27,0-4.1-1.84-4.1-4.11V99.4C156.46,89.43,164.56,81.32,174.51,81.32z M284.85,81.33c2.95,0,5.52,0.61,7.57,1.36c1.57,0.54,2.69,1.99,2.69,3.72c0,2.12-1.71,3.84-3.83,3.84c-0.61,0-1.13-0.15-1.69-0.37c-1.37-0.52-3-0.94-4.74-0.94c-3.26,0-6.23,1.16-6.23,3.26c0,2.1,2.32,2.61,8.12,3.85c6.81,1.45,11.66,3.7,11.66,10.81c0,5.88-6.23,10.6-15,10.6c-4.86,0-8.64-1.45-11.24-2.96c-1.26-0.66-2.17-1.96-2.17-3.49c0-2.14,1.73-3.88,3.87-3.88c0.52,0,1.01,0.11,1.46,0.3l0.28,0.14c2.07,1.04,4.46,2.27,7.51,2.27c3.55,0,6.52-1.02,6.52-3.12c0-2.25-1.6-2.69-6.81-3.77c-6.81-1.45-12.75-4.36-12.75-10.89C270.07,86.7,275.43,81.33,284.85,81.33z M212.07,81.33c2.95,0,5.52,0.61,7.57,1.36c1.57,0.48,2.69,1.99,2.69,3.72c0,2.12-1.72,3.84-3.83,3.84c-0.61,0-1.16-0.16-1.69-0.37c-1.37-0.52-3.01-0.94-4.74-0.94c-3.26,0-6.23,1.16-6.23,3.26c0,2.1,2.32,2.61,8.12,3.85c6.82,1.45,11.67,3.7,11.67,10.81c0,5.88-6.23,10.6-15,10.6c-4.86,0-8.63-1.45-11.24-2.96c-1.29-0.63-2.17-1.96-2.17-3.49c0-2.14,1.73-3.88,3.87-3.88c0.52,0,1.09,0.15,1.54,0.33c-0.04-0.02,0,0,0,0l0.28,0.14c2.06,1.04,4.38,2.24,7.43,2.24c3.56,0,6.52-1.02,6.52-3.12c0-2.25-1.6-2.69-6.81-3.77c-6.82-1.45-12.76-4.36-12.76-10.89C197.29,86.7,202.65,81.33,212.07,81.33z M98.65,81.32c4.98,0,9.79,2.1,13.2,5.76c1.54,1.66,1.45,4.26-0.2,5.8c-1.66,1.55-4.26,1.45-5.8-0.2c-1.89-2.03-4.44-3.15-7.2-3.15c-5.43,0-9.85,4.43-9.85,9.87c0,5.44,4.42,9.87,9.85,9.87c2.75,0,5.31-1.12,7.2-3.16c1.54-1.66,4.14-1.75,5.8-0.21c1.65,1.55,1.74,4.15,0.2,5.81c-3.41,3.67-8.22,5.77-13.2,5.77c-9.95,0-18.05-8.11-18.05-18.08C80.6,89.43,88.7,81.32,98.65,81.32z M134.53,81.32c9.95,0,18.05,8.11,18.05,18.08c0,2.27-1.84,4.11-4.1,4.11h-22.91c1.56,3.4,4.99,5.76,8.96,5.76c2.26,0,4.1,1.84,4.1,4.11c0,2.27-1.84,4.11-4.1,4.11c-9.95,0-18.05-8.11-18.05-18.08S124.58,81.32,134.53,81.32z M126.82,135.33c-5.59,0-8.78,4.16-8.78,11.41v3.89c0,7.25,3.25,11.41,8.78,11.41c5.7,0,8.89-4.11,8.89-11.36v-3.84C135.71,139.59,132.41,135.33,126.82,135.33z M96.05,130.8c7.51,0,12.03,3.89,12.03,10.29c0,5.63-4.06,8.17-8.73,10.39l-0.55,0.26c-0.09,0.04-0.18,0.09-0.28,0.13l-0.56,0.26c-4.52,2.03-8.25,3.95-9.15,7.63c-0.11,0.48-0.22,1.01-0.22,1.55h17.46c1.81,0,2.61,0.75,2.61,2.13v0.32c0,1.44-0.8,2.24-2.61,2.24H86.9c-2.4,0-3.41-0.8-3.41-2.99v-1.33c0-6.36,4.41-9.55,9.04-11.98l0.54-0.28l0.54-0.27c0.18-0.09,0.36-0.18,0.54-0.27c4.52-2.24,8.57-3.95,8.57-7.68c0-3.57-2.61-5.71-7.02-5.71c-5.06,0-7.46,3.09-8.41,6.61c0,0.16-3.62,0.21-3.62-2.66c0-1.81,1.06-3.95,3.14-5.65C88.86,132.07,92,130.8,96.05,130.8z M158.33,130.8c7.51,0,12.04,3.89,12.04,10.29c0,5.96-4.56,8.46-9.56,10.78l-0.56,0.26c-4.52,2.03-8.25,3.95-9.15,7.63c-0.11,0.48-0.21,1.01-0.21,1.55h17.46c1.81,0,2.61,0.75,2.61,2.13v0.32c0,1.44-0.8,2.24-2.61,2.24h-19.16c-2.4,0-3.41-0.8-3.41-2.99v-1.33c0-6.36,4.41-9.55,9.04-11.98l0.54-0.28l0.54-0.27c0.18-0.09,0.36-0.18,0.54-0.27c4.52-2.24,8.57-3.95,8.57-7.68c0-3.57-2.61-5.71-7.02-5.71c-5.06,0-7.46,3.09-8.41,6.61c0,0.16-3.62,0.21-3.62-2.66c0-1.81,1.06-3.95,3.14-5.65C151.15,132.07,154.29,130.8,158.33,130.8zM188.79,131.22c1.54,0,2.45,0.85,2.45,2.51l-0.05,27.62h4.63c1.65,0,2.5,0.69,2.5,2.24v0.27c0,1.49-0.85,2.13-2.5,2.13h-15.33c-1.65,0-2.5-0.64-2.5-2.13v-0.27c0-1.55,0.85-2.24,2.5-2.24h5.75v-24.58c-2.08,1.65-2.93,2.61-3.94,3.41c-1.07,0.85-1.92,1.18-2.83,1.18c-1.81,0-2.82-1.55-2.82-3.36l10.28-6.77H188.79z M126.82,130.8c8.95,0,14.38,6.18,14.38,16.15v3.47c0,9.97-5.49,16.26-14.38,16.26c-8.94,0-14.32-6.19-14.32-16.16v-3.52C112.5,137.04,117.99,130.8,126.82,130.8z"/>
</svg>
