<svg xmlns="http://www.w3.org/2000/svg" viewBox="0 0 83.63 83.63"><defs><style>.a{stroke:#000;stroke-miterlimit:10;stroke-width:0.5px;}</style></defs><title>icons--bsl-square</title><path class="a" d="M.25.25V83.38H83.38V.25ZM42,8.16A1.32,1.32,0,0,1,43.76,9c2.86,5.65,5.73,11.29,8.62,17-.84.89-1.48,1.83-2.85,1.81-.56,0-.86,0-1.1-.54q-3.57-7.83-7.14-15.66a5,5,0,0,1-.46-1.6A1.58,1.58,0,0,1,42,8.16Zm5.3,23.21c-.07-.9,1.17-1.95,3.1-2.21,0,.32.11,8.55.1,12.35,0,1.93-.49,3.63-2.4,4.57a3,3,0,0,1-.88.16c0-1.59,0-3.17,0-4.75C47.29,41.18,47.1,32.06,47.33,31.37ZM36.84,12.17c.76-.84,1.51-.83,2.09.13.72,1.18,1.34,2.42,2,3.64,2,3.89,3.92,7.79,5.91,11.67.38.75.5,1.27-.25,1.9a2.21,2.21,0,0,0-.79,1.61c.19,1.47-.61,2.1-1.93,2.66-.72-1.87-1.42-3.66-2.11-5.46q-2.59-6.72-5.19-13.45A2.37,2.37,0,0,1,36.84,12.17Zm18,56.16c-.33,0-.67,0-1,0H28.42a2.39,2.39,0,0,0-.89,0,5.42,5.42,0,0,0-1,.7c.33.26.65.74,1,.75,1.89.08,3.8,0,5.7,0h1.07c0,.1.05.21.07.31-1.61.94-3.16,2-4.84,2.78a5.84,5.84,0,0,1-6.15-.6c-2.27-1.64-4.5-3.33-6.64-5.12a7.25,7.25,0,0,1-2.65-6.78c.23-1.88.48-3.77.76-5.65a7,7,0,0,1,4.89-6,60.3,60.3,0,0,1,7.9-2.15c2.77-.51,6.1-.65,8.48,1a4.93,4.93,0,0,1,2.1,2.1c.48.87.12,3.8-.52,6.14-1.73-.14-4-.24-7.41-.43-.07,0,.46-2.28.41-2.28A40.75,40.75,0,0,0,25,55.75c.29.27.56.73.88.77,1.58.19,3.19.25,4.78.39q9.8.9,19.59,1.83a3.56,3.56,0,0,1,3.2,1.9c.65,1.32.35,1.87-1.13,1.87l-25.62,0a3,3,0,0,0-1,0c-.3.12-.74.48-.71.66a1.67,1.67,0,0,0,.68.85c.14.11.43,0,.66,0q12.12.28,24.25.57a18.35,18.35,0,0,1,2.22.23,3.58,3.58,0,0,1,2.71,2.53C55.64,68,55.45,68.3,54.81,68.33Zm1.7-15.54a23,23,0,0,1-9-2.56,12.15,12.15,0,0,1-4.87-4.32C40.58,42.2,41,38.94,44,36a19.39,19.39,0,0,1,2-1.59s-.29,10.55-.28,11.82c0,1.75.41,2.11,2.07,1.59a22.59,22.59,0,0,0,2.63-1.18.21.21,0,0,1,.08.11c.17,2,.32,2.05,2.24,1.51,3.14-.9,4.24-2.17,4.57-5.41.16-1.59.35-9.09,0-9.07-1,.06-1,1.05-1.06,1.71-.18,2.52-.28,5.06-.52,7.58-.22,2.28-1.18,3.2-3.64,3.68,0-.4-.06-.79-.06-1.18v-15c0-.3,0-.6,0-.9.17-2,1-2.68,2.95-2.28,3.9.81,7.52,2.12,9.4,6a13.49,13.49,0,0,1,1.12,3.37c.37,2,.58,4.14.84,6.21C67.12,49,62.51,53.49,56.51,52.79Z"/></svg>