<?xml version="1.0" encoding="UTF-8"?>
<svg width="19px" height="22px" viewBox="0 0 19 22" version="1.1" xmlns="http://www.w3.org/2000/svg" xmlns:xlink="http://www.w3.org/1999/xlink">
    <!-- Generator: Sketch 63.1 (92452) - https://sketch.com -->
    <title>Group 2</title>
    <desc>Created with Sketch.</desc>
    <g id="v3---Header-toggle-with-icon" stroke="none" stroke-width="1" fill="none" fill-rule="evenodd">
        <g id="RespondentHome--initial" transform="translate(-1158.000000, -14.000000)" fill="#030104" fill-rule="nonzero">
            <g id="Group-2" transform="translate(1151.900000, 9.500000)">
                <g id="icons--bsl-small" transform="translate(14.087767, 14.507509) rotate(33.000000) translate(-14.087767, -14.507509) translate(5.087767, 3.507509)">
                    <circle id="Oval" cx="16.4686308" cy="4.59038462" r="1.25192308"></circle>
                    <circle id="Oval" cx="13.1301692" cy="2.08653846" r="1.25192308"></circle>
                    <circle id="Oval" cx="9.79170769" cy="1.25192308" r="1.25192308"></circle>
                    <circle id="Oval" cx="6.45324615" cy="2.92115385" r="1.25192308"></circle>
                    <path d="M15.2167077,4.59038462 L15.2167077,10.0153846 C15.2167077,10.2457385 15.0297538,10.4326923 14.7994,10.4326923 C14.5690462,10.4326923 14.3820923,10.2457385 14.3820923,10.0153846 L14.3820923,2.08653846 L11.8782462,2.08653846 L11.8782462,9.18076923 C11.8782462,9.41112308 11.6912923,9.59807692 11.4609385,9.59807692 C11.2305846,9.59807692 11.0436308,9.41112308 11.0436308,9.18076923 L11.0436308,1.25192308 L8.53978462,1.25192308 L8.53978462,9.18076923 C8.53978462,9.41112308 8.35283077,9.59807692 8.12247692,9.59807692 C7.89212308,9.59807692 7.70516923,9.41112308 7.70516923,9.18076923 L7.70516923,2.92115385 L5.20132308,2.92115385 L5.20132308,13.3538462 L3.51122692,11.0411269 C3.01045769,10.2691077 2.03312308,10.0103769 1.31702308,10.4527231 C0.603426923,10.9050846 0.426488462,11.8916 0.920580769,12.6611154 C0.920580769,12.6611154 3.64643462,16.7866192 4.80821923,18.5526654 C5.97000385,20.3187115 7.85206154,21.7 11.3716346,21.7 C17.1989192,21.7 17.7205538,17.1997538 17.7205538,15.8576923 C17.7205538,14.5156308 17.7205538,4.59038462 17.7205538,4.59038462 L15.2167077,4.59038462 Z" id="Path"></path>
                </g>
            </g>
        </g>
    </g>
</svg>