<svg xmlns="http://www.w3.org/2000/svg" viewBox="0 0 37.65 31.97"><title>bsl</title><path d="M36.37,8.84c-2,1.18-3.11,1.66-5.21,1.55-.79,0-1.21-.35-2-.27a5.73,5.73,0,0,0-1.82.54c-1.12.35-1.73.66-2.9,1-.74.21-1.22.22-2,.48s-.34.06-.81.59-.45,1.18-1,2.32c-.7,1.48-.62,1.68-.22,1.87A4.48,4.48,0,0,0,20.16,19c.07.63-.19,1.07.48,1.56.91.69,2.84,2.28,3.33,2.31.74,0,2.88.06,4-.7.24-.15.32-.31.11.28a22.28,22.28,0,0,1-3,2.14,8.33,8.33,0,0,0-2.49.21c-.23-.09-1.81-2-2.77-1.28a1.41,1.41,0,0,0-.7.85,4.55,4.55,0,0,0,1.28,1c.8.51.88,1,1.68,1.23a21,21,0,0,0,2.62.16,13,13,0,0,0,3.71-1.28c1.24-.64-1.7,1.22-2.41,2.14-2.16.68-1.55.71-2.58.92a12.16,12.16,0,0,0-1.56.37c-.68.16-1.23,1.08-.59,1.56.38.32,1.57-.13,2.74-.16a15.76,15.76,0,0,0,3.11-1.24,21.42,21.42,0,0,0,2.79-2c1-.68-1.11,1.88-2,2.95-.25.34-.37.42-.69.86-.52.68.15,1.72.48,1.55s.65-.92,1.07-1.18c.22-.11.8-1,1.35-1.55.4-.45.69-.65,1.07-1.12a23.32,23.32,0,0,0,1.34-2.27,8,8,0,0,0,.91-1.12c1.68-3.18,1.19-4.61,2.8-6.88A4.23,4.23,0,0,1,38,17.1,11.37,11.37,0,0,0,36.37,8.84Zm-7.79,8.42c-.38,1.34-.34,1.49-1.07,2-.88.67-.93.17-3,1.29a5.69,5.69,0,0,0-2.15-1.29A5,5,0,0,0,21.34,17c1.7-1.3,1.66-2.4,1.93-2.36a5.91,5.91,0,0,0,3.38-.32C27.68,16.28,28.94,16.18,28.58,17.26Z" transform="translate(-0.52 -0.5)"/><path d="M18.33,7.6c-.8-.53-.88-1.07-1.67-1.24A25.29,25.29,0,0,0,14,6.15a15.1,15.1,0,0,0-3.71,1.29C9.08,8.1,12,6.24,12.75,5.29c2.15-.65,1.53-.68,2.57-.91a13.88,13.88,0,0,0,1.56-.33c.66-.18,1.22-1.09.59-1.61-.39-.29-1.57.16-2.74.17a16,16,0,0,0-3.12,1.28,22.73,22.73,0,0,0-2.79,2c-1,.71,1.11-1.84,2-2.9.26-.36.37-.44.7-.86C12,1.42,11.36.38,11,.51s-.65,1-1.14,1.24c-.17.1-.75,1-1.28,1.55A13,13,0,0,0,7.53,4.43a22.66,22.66,0,0,0-1.34,2.2,11.14,11.14,0,0,0-.91,1.18C3.6,11,4.08,12.4,2.49,14.63A4.13,4.13,0,0,1,.66,15.92c-.73,5.28,1.67,8.24,1.66,8.22,2-1.16,3.11-1.64,5.21-1.56.79,0,1.21.38,2,.32a7.44,7.44,0,0,0,1.83-.53c1.11-.38,1.72-.68,2.84-1a19.71,19.71,0,0,0,2-.54c.67-.24.35,0,.81-.53.59-.68.45-1.2,1-2.31.76-1.51.68-1.71.28-1.88A4.81,4.81,0,0,0,18.54,14c-.08-.64.19-1.09-.48-1.56-.92-.71-2.84-2.3-3.33-2.31-.74,0-2.88-.08-4,.64-.25.19-.32.35-.11-.21a21.74,21.74,0,0,1,3-2.2,10.77,10.77,0,0,0,2.48-.17c.19,0,1.81,2,2.79,1.29a1.62,1.62,0,0,0,.7-.85A4,4,0,0,0,18.33,7.6Zm-7.15,6.12c.88-.64.93-.13,3-1.23a6,6,0,0,0,2.16,1.23A4.94,4.94,0,0,0,17.36,16c-1.71,1.28-1.66,2.38-1.94,2.36a5.79,5.79,0,0,0-3.37.27c-1.05-1.94-2.29-1.83-1.94-3C10.49,14.41,10.45,14.25,11.18,13.72Z" transform="translate(-0.52 -0.5)"/></svg>