<svg xmlns="http://www.w3.org/2000/svg" xmlns:xlink="http://www.w3.org/1999/xlink" viewBox="0 0 362.41 305.83"><defs><clipPath id="a" transform="translate(8.73)"><path d="M148.69,62.06c-1.53,2.93-2.85,4.64-2.65,6.88s2.57,3.87,3.7,6.14c1-2.64,2.71-4.63,2.52-6.7s-3.06-4.81-3.57-6.32" style="fill:none;clip-rule:evenodd"/></clipPath><clipPath id="b" transform="translate(8.73)"><rect x="-4506.5" y="-4938.72" width="5997.02" height="5467.87" style="fill:none"/></clipPath><clipPath id="c" transform="translate(8.73)"><path d="M187.92,62.06c1.53,2.93,2.85,4.64,2.64,6.88s-2.57,3.87-3.69,6.14c-1-2.64-2.71-4.63-2.52-6.7s3.06-4.81,3.57-6.32" style="fill:none;clip-rule:evenodd"/></clipPath><clipPath id="e" transform="translate(8.73)"><path d="M126.11,60.37a2.65,2.65,0,1,0-2.65-2.65,2.64,2.64,0,0,0,2.65,2.65" style="fill:none;clip-rule:evenodd"/></clipPath><clipPath id="g" transform="translate(8.73)"><path d="M127.88,64.16a2.65,2.65,0,1,0-2.66,2.65,2.66,2.66,0,0,0,2.66-2.65" style="fill:none;clip-rule:evenodd"/></clipPath><clipPath id="i" transform="translate(8.73)"><path d="M129.17,70.58a2.65,2.65,0,1,0-2.65,2.65,2.65,2.65,0,0,0,2.65-2.65" style="fill:none;clip-rule:evenodd"/></clipPath><clipPath id="k" transform="translate(8.73)"><path d="M140.78,47.74a2.66,2.66,0,1,0-2.65-2.66,2.66,2.66,0,0,0,2.65,2.66" style="fill:none;clip-rule:evenodd"/></clipPath><clipPath id="m" transform="translate(8.73)"><path d="M134.19,49.77a2.66,2.66,0,1,0-2.65-2.66,2.65,2.65,0,0,0,2.65,2.66" style="fill:none;clip-rule:evenodd"/></clipPath><clipPath id="o" transform="translate(8.73)"><path d="M129,54.31a2.66,2.66,0,1,0-2.65-2.65A2.66,2.66,0,0,0,129,54.31" style="fill:none;clip-rule:evenodd"/></clipPath><clipPath id="q" transform="translate(8.73)"><path d="M147.7,48.37A2.65,2.65,0,1,0,145,45.72a2.64,2.64,0,0,0,2.66,2.65" style="fill:none;clip-rule:evenodd"/></clipPath><clipPath id="s" transform="translate(8.73)"><path d="M154.28,50.27a2.65,2.65,0,1,0-2.66-2.67,2.66,2.66,0,0,0,2.66,2.67" style="fill:none;clip-rule:evenodd"/></clipPath><clipPath id="u" transform="translate(8.73)"><path d="M160.46,53.18a2.66,2.66,0,1,0-2.65-2.66,2.65,2.65,0,0,0,2.65,2.66" style="fill:none;clip-rule:evenodd"/></clipPath><clipPath id="w" transform="translate(8.73)"><path d="M207.76,57.72a2.65,2.65,0,1,0,2.65-2.66,2.65,2.65,0,0,0-2.65,2.66" style="fill:none;clip-rule:evenodd"/></clipPath><clipPath id="y" transform="translate(8.73)"><path d="M211.29,61.51A2.65,2.65,0,1,0,214,64.16a2.65,2.65,0,0,0-2.66-2.65" style="fill:none;clip-rule:evenodd"/></clipPath><clipPath id="aa" transform="translate(8.73)"><path d="M210,67.93a2.65,2.65,0,1,0,2.66,2.65A2.65,2.65,0,0,0,210,67.93" style="fill:none;clip-rule:evenodd"/></clipPath><clipPath id="ac" transform="translate(8.73)"><path d="M195.74,47.74a2.66,2.66,0,1,0-2.66-2.66,2.66,2.66,0,0,0,2.66,2.66" style="fill:none;clip-rule:evenodd"/></clipPath><clipPath id="ae" transform="translate(8.73)"><path d="M202.33,49.77a2.66,2.66,0,1,0-2.65-2.66,2.66,2.66,0,0,0,2.65,2.66" style="fill:none;clip-rule:evenodd"/></clipPath><clipPath id="ag" transform="translate(8.73)"><path d="M207.51,54.31a2.66,2.66,0,1,0-2.65-2.65,2.65,2.65,0,0,0,2.65,2.65" style="fill:none;clip-rule:evenodd"/></clipPath><clipPath id="ai" transform="translate(8.73)"><path d="M188.82,48.37a2.65,2.65,0,1,0-2.66-2.65,2.63,2.63,0,0,0,2.66,2.65" style="fill:none;clip-rule:evenodd"/></clipPath><clipPath id="ak" transform="translate(8.73)"><path d="M182.25,50.27a2.65,2.65,0,1,0-2.65-2.67,2.66,2.66,0,0,0,2.65,2.67" style="fill:none;clip-rule:evenodd"/></clipPath><clipPath id="am" transform="translate(8.73)"><path d="M173.42,50.52a2.65,2.65,0,1,0,2.64-2.66,2.65,2.65,0,0,0-2.64,2.66" style="fill:none;clip-rule:evenodd"/></clipPath><clipPath id="ao" transform="translate(8.73)"><path d="M163.74,64.87h3V53.51a10.11,10.11,0,0,1-3-.92Z" style="fill:none;clip-rule:evenodd"/></clipPath><clipPath id="aq" transform="translate(8.73)"><path d="M172.79,52.59a10.59,10.59,0,0,1-3,.92V64.87h3Z" style="fill:none;clip-rule:evenodd"/></clipPath><clipPath id="as" transform="translate(8.73)"><path d="M166.56,40.06V33.33A8.34,8.34,0,0,0,160,40.06Z" style="fill:none;clip-rule:evenodd"/></clipPath><clipPath id="au" transform="translate(8.73)"><path d="M170,40.06h6.47A8.34,8.34,0,0,0,170,33.33Z" style="fill:none;clip-rule:evenodd"/></clipPath><clipPath id="aw" transform="translate(8.73)"><path d="M160.13,43.31a8.33,8.33,0,0,0,16.26,0Z" style="fill:none;clip-rule:evenodd"/></clipPath><clipPath id="ay" transform="translate(8.73)"><rect x="161.3" y="18.37" width="13.93" height="13.89" style="fill:none"/></clipPath><clipPath id="az" transform="translate(8.73)"><rect x="160.3" y="14.7" width="18.37" height="18.37" style="fill:none"/></clipPath><clipPath id="ba" transform="translate(8.73)"><path d="M172.83,32.27a9.23,9.23,0,0,1-3.62-5.88,10.68,10.68,0,0,1,6,3.83V21.09a10.61,10.61,0,0,1-6,3.83c.24-2.22,1.61-4.24,3.47-6.55h-8.83c1.86,2.31,3.22,4.33,3.47,6.55a10.55,10.55,0,0,1-6-3.83v9.13a10.62,10.62,0,0,1,6-3.83,9.27,9.27,0,0,1-3.62,5.88Z" style="fill:none;clip-rule:evenodd"/></clipPath><clipPath id="bb" transform="translate(8.73)"><rect x="160.3" y="18.37" width="18.37" height="14.7" style="fill:none"/></clipPath><clipPath id="bc" transform="translate(8.73)"><path d="M182.58,214.36A169.93,169.93,0,0,1,155,204.48v-.11a7.23,7.23,0,0,0-1.89-5.63,7.09,7.09,0,0,0-5.26-2.58,7.38,7.38,0,0,0-2.53.49,42.17,42.17,0,0,1-3.84-3.94,45.72,45.72,0,0,1-8.18-14.22,50.57,50.57,0,0,1-2.41-9.45c-.44,2.71-3.49,6.28-8.7,6.34.08-.56,0-1.91-.46-2-1.37,1.52-3.43,3.17-8.15,1.5a69.54,69.54,0,0,0,3.06,10.82,63.76,63.76,0,0,0,12,20.12,58.62,58.62,0,0,0,5.34,5.35,9.59,9.59,0,0,0-.06,1.07c0,2,1.88,5.06,4.6,6.39a6.39,6.39,0,0,0,6.8-.78,75.12,75.12,0,0,0,14.78,5.73,66.81,66.81,0,0,0,17,2.71c4.07,0,9.44-1.93,14.75-5.26a37.09,37.09,0,0,0,5.58-4.23c.21-.19.4-.36.57-.54-4.13.58-10.35-.58-15.45-1.85M152,201.81l-.87-.66c-1.61-1.21-3-1.2-4.44.06a16.66,16.66,0,0,0-1.92,2l-.9,1,.61.5c1.7,1.37,2,2.86,1.48,3.73a1.48,1.48,0,0,1-.89.69,4.61,4.61,0,0,1-3.27-.82l-.65-.38-.39.64c-.1.16-.21.31-.32.47a7.62,7.62,0,0,0-.44.69,6.47,6.47,0,0,0-1.09,3,2.08,2.08,0,0,0,.09.63,3,3,0,0,0,1.67,1.74l.41.24c.76.49,1.84,1.13,2.65,1.58a4.65,4.65,0,0,1-4.55.19c-2.29-1.11-3.74-3.72-3.74-5a14,14,0,0,1,2.51-7.05l.25-.38-.24-.41a15.55,15.55,0,0,1-1.17-2.29,24.74,24.74,0,0,1,2.57.48l.43.1.3-.32c1-1.09,4.51-4.64,7.77-4.64a5.54,5.54,0,0,1,4.11,2.06,6.14,6.14,0,0,1,1.52,3.18c-.45-.31-1-.71-1.49-1.11m5.41,15.88a3.57,3.57,0,1,1,3.56-3.57,3.58,3.58,0,0,1-3.56,3.57m15.63,4.84a3.27,3.27,0,1,1,3.27-3.27,3.28,3.28,0,0,1-3.27,3.27" style="fill:none;clip-rule:evenodd"/></clipPath><clipPath id="be" transform="translate(8.73)"><path d="M177.37,239a6.36,6.36,0,0,0-1.67.23v-10a69.52,69.52,0,0,1-14.6-2.19v12.21a5.71,5.71,0,0,0-7.45,5.41,10.35,10.35,0,0,0,2.83,6.43c.66-1.56,1.26-2.82,2.12-2.82,1.74,0,1,8.66,6,8.9a3.68,3.68,0,0,0-.26,1.38,4,4,0,1,0,7.94,0,3.68,3.68,0,0,0-.25-1.38c5.08-.23,4.23-8.9,6-8.9.87,0,1.41,1.19,2.18,2.82a10.29,10.29,0,0,0,2.82-6.43,5.68,5.68,0,0,0-5.68-5.68m-9,21.79a2.22,2.22,0,1,1,2.22-2.22,2.22,2.22,0,0,1-2.22,2.22m11.89-12.59a2.89,2.89,0,0,0-2.23-1.76c-3.41,0-2.08,9-6.14,9a2.45,2.45,0,0,1-2.72-2.41c0-1.25.88-1.63.88-2.65s-.79-1.38-1.68-1.38-1.68.37-1.68,1.38.89,1.4.89,2.65a2.45,2.45,0,0,1-2.73,2.41c-4.05,0-2.71-9-6.12-9a2.88,2.88,0,0,0-2.24,1.76,8,8,0,0,1-1.06-3.52,3.92,3.92,0,0,1,3.92-3.92c4.55,0,3.5,6.2,5.67,6.2a1.52,1.52,0,0,0,1.67-1.52c0-1.77-3.16-3.45-3.16-6s2.31-4.65,4.84-6.69c2.54,2,4.85,4.17,4.85,6.69s-3.17,4.21-3.17,6A1.52,1.52,0,0,0,171.7,247c2.18,0,1.12-6.2,5.67-6.2a3.92,3.92,0,0,1,3.93,3.92,8.18,8.18,0,0,1-1.06,3.52" style="fill:none;clip-rule:evenodd"/></clipPath><clipPath id="bg" transform="translate(8.73)"><path d="M294.6,251a1.05,1.05,0,0,0-1.3-.64c-11.69,3.4-26.2-6.27-40.23-15.63-11.8-7.86-22.95-15.29-32.51-15.29a19.49,19.49,0,0,0-9.38,2.21,16.87,16.87,0,0,0-7.43,8.64,53.18,53.18,0,0,1-4.66,8.72c-1.63,2.57-2.81,4.41-2.81,6.73a7.27,7.27,0,0,0,2.44,5.22,25.73,25.73,0,0,0,6.13,4.19c.6.31,1.2.6,1.79.88,2.32,1.14,3.76,1.9,4,3.21a77.75,77.75,0,0,1-17.4,4.91,154.4,154.4,0,0,1-49.91,0,77.09,77.09,0,0,1-17.43-4.93c.19-2,1.63-2.72,4.16-3.93.6-.28,1.2-.56,1.82-.88a32.8,32.8,0,0,0,6-3.77,6.31,6.31,0,0,0,2.42-4.9c0-2.31-1.18-4.14-2.79-6.73a53.53,53.53,0,0,1-4.66-8.72,16.73,16.73,0,0,0-7.45-8.62,19.41,19.41,0,0,0-9.36-2.22c-9.56,0-20.72,7.42-32.51,15.3-14,9.34-28.54,19-40.23,15.61A1.08,1.08,0,0,0,42,251a1.1,1.1,0,0,0,.57,1.35,47.35,47.35,0,0,1,9.73,6.38c4.22,3.28,8.2,6.38,12.59,6.38,4.15,0,8.61-1.32,14-4.15a148.9,148.9,0,0,0,14.32-9c9.24-6.32,18.78-12.83,27.84-13.55-.95,1-1.87,1.81-2.74,2.57-2.67,2.39-5,4.46-5,8.66,0,3.3,1.13,5.64,2.69,8.92.46.93,1,2,1.52,3.23a33.37,33.37,0,0,1,2,6.51c.26,1.07.55,2.26.93,3.68.58,2.15,1.65,6.18,8.3,9.55,7.7,3.92,21,5.91,39.45,5.91s31.75-2,39.45-5.91c6.64-3.37,7.72-7.4,8.29-9.55.38-1.42.67-2.61.93-3.68a33.39,33.39,0,0,1,2.05-6.51c.73-1.64,1.44-3,2.08-4.16,1.38-2.61,2.48-4.66,2.48-7.64,0-4.21-2.43-6.39-5.24-8.91-.9-.8-1.85-1.68-2.83-2.68,9.07.72,18.6,7.22,27.85,13.55a150.77,150.77,0,0,0,14.31,9c5.43,2.83,9.9,4.15,14.05,4.15,4.38,0,8.36-3.11,12.58-6.4a49.49,49.49,0,0,1,9.71-6.38,1.06,1.06,0,0,0,.58-1.34" style="fill:none;clip-rule:evenodd"/></clipPath><clipPath id="bi" transform="translate(8.73)"><path d="M224.37,157.44a15.42,15.42,0,0,1-4.5-5.23c-1.38-2.88-7.18-14.28-8.09-15.81a6.9,6.9,0,0,1-1.14-3.41,5.12,5.12,0,0,1,1.24-3c.46-.57,1.71-1.8,2.19-2.55a9.24,9.24,0,0,1,1-1.35,55.62,55.62,0,0,0-7-9.54,57.67,57.67,0,0,0-11.34-9.81c2.23-1.45,4.48-3.52,4.48-7a6.37,6.37,0,0,0-2.33-5c2.33-7.49,6.53-16.51,10.1-20.47l-7.51-3.17a11.84,11.84,0,0,1,1.65,8.48,9.6,9.6,0,0,1-4.18-5.69,33.55,33.55,0,0,1-2.77,8.17c2.17-1,3.91-1.49,6.12-.58a8.92,8.92,0,0,1-9.45,3.16c-2.67-.64-5.32-2-5.21-4.12A2.52,2.52,0,0,1,190.26,78c1.63.16,1.72,2.65,1.22,3.77,2.14-1.22,4.37-7.51,1-8.45-2.64-.73-5.06,2.89-5.93,5.68-.5-3.36-1.89-6.57-4.55-6.39-3.46.23-2.33,6.61-1.12,8.24.21-2.24,1.44-3.44,2.46-3.35s2.13.71,1.93,2.74-3.11,3.29-6.44,3.29-8.75-1-9.28-7.1c2.07.37,5.3,1.93,6.68,4a39.86,39.86,0,0,1,0-10.18,10.47,10.47,0,0,1-6.58,4,12.34,12.34,0,0,1,5.46-7H161.49a12.32,12.32,0,0,1,5.45,7,10.33,10.33,0,0,1-6.46-4,41.28,41.28,0,0,1,0,10.18c1.34-2,4.49-3.57,6.55-4-.52,6.11-6.1,7.08-9.26,7.08-3.32,0-6.22-1.25-6.44-3.29s1-2.68,1.94-2.74,2.24,1.11,2.45,3.35c1.2-1.63,2.32-8-1.13-8.24-2.66-.18-4.05,3-4.55,6.39-.87-2.79-3.28-6.41-5.93-5.68-3.36.94-1.12,7.23,1,8.45-.52-1.12-.42-3.61,1.21-3.77A2.52,2.52,0,0,1,149,80.52c.12,2.07-2.55,3.48-5.22,4.12a8.93,8.93,0,0,1-9.42-3.13c2.24-1,4-.48,6.2.55a33.13,33.13,0,0,1-2.77-8.17,9.62,9.62,0,0,1-4.28,5.74,11.79,11.79,0,0,1,1.65-8.53l-7.51,3.17c3.58,4,7.78,13,10.12,20.54a6.3,6.3,0,0,0-2.25,4.89c0,3.49,2.24,5.58,4.46,7a57.27,57.27,0,0,0-11.32,9.81,63.14,63.14,0,0,0-12,20c1,1.06,5.53,6,6.59,7.3,1.87,2.36,3,4.72,3,6.56a9.82,9.82,0,0,0,2.64,7,12.67,12.67,0,0,1,1.47,5h37.29V203a5.57,5.57,0,0,0-4.28,2c4.31,1.74,8.41,3.29,12.53,4.58.39-2.67.93-4.31,2.27-5.94,0,0-5.42-.54-8.33-.7V162.42h36.45a51,51,0,0,1-3,16.07,45.72,45.72,0,0,1-8.18,14.22,37.81,37.81,0,0,1-12.1,9.56c-.73.36-.71.88-1.45,1.18a10.38,10.38,0,0,0-1.79,3.29,13.94,13.94,0,0,0-.84,3.7c1.71.53,2.63.81,4.26,1.21,12.81,3.2,16,2.26,16.7,1.7l0,0a57.25,57.25,0,0,0,8.06-7.56,63.92,63.92,0,0,0,12-20.12,69.92,69.92,0,0,0,4.39-24.6C224.42,159.5,224.46,159,224.37,157.44Zm-56.68,2.79H130.34a51.37,51.37,0,0,1,3-16.68,45.88,45.88,0,0,1,8.18-14.23,38.35,38.35,0,0,1,12.09-9.55,33,33,0,0,1,14.09-3.45Zm.65-62.16c-12.44,0-21,3.66-26,7-2.89-1.7-4.12-3.38-4.12-5.36,0-7.07,20-7.7,30.11-7.7h0c10.14,0,30.12.63,30.12,7.7,0,2-1.25,3.66-4.14,5.36C189.34,101.73,180.78,98.07,168.34,98.07Zm1.54,62.16V116.37a33.11,33.11,0,0,1,13.21,3.4,38.05,38.05,0,0,1,12.1,9.55,45.88,45.88,0,0,1,8.18,14.23,51.06,51.06,0,0,1,3,16.68Z" style="fill:none;clip-rule:evenodd"/></clipPath><clipPath id="bk" transform="translate(8.73)"><path d="M200.57,153.07a.71.71,0,0,1-.39,1.33,41.37,41.37,0,0,0-7-18.5l.1-.11a2.33,2.33,0,0,0,1.55-1.91,2.41,2.41,0,0,0-2.35,1c-.26-.35-.53-.69-.8-1a35.13,35.13,0,0,0-7.9-7.4,29,29,0,0,0-8.79-4,.71.71,0,0,1,1.35-.2,1.27,1.27,0,0,0-1.47-1.51,1,1,0,0,0-.65.91,2.4,2.4,0,0,0-1.66-.87,2.39,2.39,0,0,0,.53,1.74,1,1,0,0,0-1,.48,1.29,1.29,0,0,0,1.26,1.71.7.7,0,0,1,.39-1.29v14.26a2.39,2.39,0,0,0-2.38.61,2.37,2.37,0,0,0,2.38.62V154.4a.7.7,0,0,1-.36-1.32,1.29,1.29,0,0,0-1.4,1.59,1.08,1.08,0,0,0,1.18.56,2.43,2.43,0,0,0-.61,1.63,2.3,2.3,0,0,0,1.62-.62,1.08,1.08,0,0,0,.58,1.18,1.28,1.28,0,0,0,1.58-1.39.71.71,0,0,1-1.33-.3h10.75a2.38,2.38,0,0,0,.62,2.35,2.36,2.36,0,0,0,.62-2.35h12a.7.7,0,0,1-1.3.37,1.28,1.28,0,0,0,1.61,1.35,1.08,1.08,0,0,0,.55-1.2,2.4,2.4,0,0,0,1.64.58,2.44,2.44,0,0,0-.67-1.61,1.1,1.1,0,0,0,1.18-.59,1.29,1.29,0,0,0-1.44-1.56m-10.3-18.89a1.05,1.05,0,0,0-.37,1,1.07,1.07,0,0,0,1.1.72,2.46,2.46,0,0,0-.86,1.53,2.39,2.39,0,0,0,1.71-.39,1.06,1.06,0,0,0,.39,1.24,1,1,0,0,0,1,0,40.29,40.29,0,0,1,5.47,14.79,2.45,2.45,0,0,0-1.36-.37,2.32,2.32,0,0,0,.74,1.68H189a1.09,1.09,0,0,0-.61-1.2,1.06,1.06,0,0,0-1.23.43,2.44,2.44,0,0,0-.71-1.6,2.38,2.38,0,0,0-.71,1.6,1.07,1.07,0,0,0-1.24-.43,1.14,1.14,0,0,0-.6,1.2h-7.78a2.35,2.35,0,0,0,.55-1.54,2.32,2.32,0,0,0-1.56.58V140.84a1.09,1.09,0,0,0,1.25-.58,1.08,1.08,0,0,0-.44-1.24,2.46,2.46,0,0,0,1.61-.72,2.43,2.43,0,0,0-1.61-.7,1.09,1.09,0,0,0,.44-1.25,1.12,1.12,0,0,0-1.25-.59V125.1a2.52,2.52,0,0,0,1.34.54,2.43,2.43,0,0,0-.36-1.52,28.51,28.51,0,0,1,7,3.43,33.86,33.86,0,0,1,7.21,6.63" style="fill:none;clip-rule:evenodd"/></clipPath><clipPath id="bm" transform="translate(8.73)"><path d="M194.19,149.14a2,2,0,0,0,1-.92,1.16,1.16,0,0,1-1-.14c.36-.21.79,0,.36-.65s-.71-.7-1.15-.21-3.33-.12-3.32-2.29a2,2,0,0,0,1,.82l.34.17.38.07a2.07,2.07,0,0,0,.83.12h.15v-.07a1.32,1.32,0,0,0,1.14-1.13c.1-1.19-1-1.76-2.29-2.8-.49-.42-.85-.76-1.17-1.07-.43-.86-.14-1.64-1.23-3.2a7,7,0,0,0-.36-1.39,4,4,0,0,0,.68,4.6c1.2,1.33,3.79,2.6,3.69,3.75a.75.75,0,0,1-.66.57c-.12,0-.24,0-.36,0a.91.91,0,0,1-.23-.08,2,2,0,0,1-.55-.24,3.69,3.69,0,0,1-.9-.71,28.19,28.19,0,0,1-2.68-3.28c-1.21-1.53-.66-3-.47-4.29.84-1.16-.51-3.55-1.32-4.14a2.1,2.1,0,0,0,0-1.23,1.14,1.14,0,0,1-.73.09c-.22-.44-.32-.53-.61-.59-.52-.08-.51-.37-.56-.57-.3.27-.41.53-.72.56s-.61,0-.77.14a1.07,1.07,0,0,1-.9.31c-.49,0-.48.28-.44.63s.06.57.36.7a.59.59,0,0,0,.14.06l.39.47.26-.5c.2-.19.85-.23,1,.21s.15.41-.25.45a9.64,9.64,0,0,1-1.05.08c-.28,0-.27.37-.26.59s.33.43.91.28,1.6-.25,1.6.24c0,1.29-1.47,1.25-1.81,2.78a2.75,2.75,0,0,1-.91-.84,5.54,5.54,0,0,0-1.08-1.34,6.39,6.39,0,0,0-1.12-.92c-.51-.31-.53-.56-.53-1.08s.21-.88.19-1.31a2,2,0,0,0-.12-.39.72.72,0,0,0-.71-.45.59.59,0,0,1,.29.46,1.63,1.63,0,0,0-.22.25.3.3,0,0,0,0,.44s0,0,0,.1a1.12,1.12,0,0,1,0,.22c0,.07,0,0-.06,0-.12-.31-.26-.79-.57-.82h-.21a.09.09,0,0,0,0-.06c0-.34-.38-.6-.78-.2.09,0,.25,0,.31.13a2.13,2.13,0,0,0-.08.34c0,.33.22.49.6.49a.11.11,0,0,1,.11.07s0,.1,0,.14,0,.05-.06,0c-.59-.26-.84,0-.86.28a1.2,1.2,0,0,0,0,.24c-.22.13-.26.46.12.7,0-.11,0-.31.13-.37a.2.2,0,0,0,.08,0,.5.5,0,0,0,.17.15s.15,0,.33-.12a.12.12,0,0,1,.15,0,.81.81,0,0,0,.18.12s0,.06,0,.08c-.38.39-.3.72.14.84-.23.42-.91.26-.87-.36-.5.81.33,1.38,1,1.09,0,.28,0,.87.12.88a.15.15,0,0,1,.16-.16s.06,0,.06.08a.44.44,0,0,0,.36.47.19.19,0,0,1,.08-.26c.1.19.25.4.34.57a5.61,5.61,0,0,0,2.56,2.81,7,7,0,0,0-1.82,1.73c-.43.41-1.07.87-1.46.64-.18-.12-.22-.28-.46-.46a.74.74,0,0,0-.49-.13,1.72,1.72,0,0,0-.25.11.75.75,0,0,0-.81.24.68.68,0,0,1,.55.09c0,.11,0,.27,0,.27,0,.19.14.4.94.35,0,0,.14,0,.1.08a.42.42,0,0,1-.42.13c-.37-.1-.53-.39-.8-.06a.79.79,0,0,1-.16.21s0,0-.08,0c-.31.11-.61.71-.24,1a.58.58,0,0,1,.23-.48,1.59,1.59,0,0,0,.17.18c.22.34.48.54,1-.27.06-.07.07,0,.07,0,0,.38-.39.91.09,1l.23,0a.34.34,0,0,0,0,.1.71.71,0,0,0,.9.43.86.86,0,0,1-.51-.53.59.59,0,0,0,.24,0c.29-.29-.06-.66.09-.86s.08,0,.11,0,.34.52.77.3a.66.66,0,0,0,.31-.52,2.24,2.24,0,0,1,1.42-.27c-.07-.28.24-.67.83-.82a.91.91,0,0,1,1,.19,2.57,2.57,0,0,1,.58-1c-.06,2.27,3,2.22,3.72,3.59a5.22,5.22,0,0,0-2.52-.49c-.75.14-2,.83-2.23,1.68a3.16,3.16,0,0,0,1.33,2.44c-.88.17-1.2-.09-2,.11l-.09,0c-.69.07-.79-1.15-1.62-.83a1,1,0,0,0-.22.16h0c-.32,0-.77.4-.69.72a1,1,0,0,1,.52-.3,1.6,1.6,0,0,0,0,.17c0,.13,0,.28.31.28s.22-.08.33-.08a.09.09,0,0,1,.09.09c0,.32-1-.18-.84.7a1.4,1.4,0,0,0,.16.25c0,.26.18.53.64.38-.1-.06-.26-.18-.22-.32l.2,0c.06,0,.09,0,.12-.13s0,0,0,0,.1,0,.1.08-.06.09-.06.19a1.35,1.35,0,0,0,.07.27.51.51,0,0,0,.87.32c-.12,0-.41-.07-.44-.24a.56.56,0,0,0,.21-.08.4.4,0,0,0,.1-.3c0-.09,0-.09.09-.09l.22,0a.1.1,0,0,1,.13.08.55.55,0,0,0,.65.26.4.4,0,0,0,.27-.23,2.49,2.49,0,0,1,.37.23c-.09-.33.15-.6.86-.12l.52-.4s.67.28.93,0c.43-.37.2-.39.2-.75-.3-.68-.47-.63-.62-1.28-.22-1.13,1.35-1.77,2.27-1.59a5.15,5.15,0,0,0,2.88,3.18c1,.37,1.47-.78,1.81-.63.08,0,.14.14.19.32a5.36,5.36,0,0,1-.11,1.23c-.12.25-.68,0-1.06,0a.49.49,0,0,0-.41.17c-.32.06-.7.35-.68.72a1.26,1.26,0,0,1,.59-.31.86.86,0,0,1,0,.15.49.49,0,0,0,.84.3c0-.07.16,0,.09.05-.25.19-.73.63-.33.79l.23.11a.56.56,0,0,0,.42.59c-.08-.15-.11-.24,0-.54h.22c.29,0,.16-.54.47-.7,0-.05.09,0,.06,0-.1.32-.16.71.13.8l.23.06a.55.55,0,0,0,.82.22c-.1,0-.32-.14-.37-.27a1.72,1.72,0,0,0,.2-.28c.21-.68-.39-.69-.39-1s.68-.13.68-.79a.61.61,0,0,0,0-.11c.34-.18.67-.38.7-.64a1.92,1.92,0,0,1-.86-.17Z" style="fill:none;clip-rule:evenodd"/></clipPath><clipPath id="bo" transform="translate(8.73)"><path d="M163.46,169.7l-.64,0,0-.6a3.39,3.39,0,0,0-3.58-3.81c-2.09,0-6.14,2.72-11.81,2.72a15.79,15.79,0,0,1-7.08-2.22l-.71,1.69a1,1,0,0,0,0-.17,1.4,1.4,0,1,0-2.8,0,1.4,1.4,0,0,0,2.5.87l-.71,1.69a7.15,7.15,0,0,0,.74.31c-.83,8.59,5.53,19.55,16.75,22.88,1.67-.45,3.37-.2,3.37,1.62a1.41,1.41,0,0,1-1.57,1.61c-.67,0-1.09-.39-1.09-.84,0-.75,1.3-.29,1.44-.82.17-.68-.28-1-1-1a1.88,1.88,0,0,0-2,1.81,2.44,2.44,0,0,0,2.56,2.46c1.25,0,3.87-.7,3.51-3.77.6,0,1.27-.07,1.42-.65l.13-1.74-.6-.08.47-19.69.44,0a1.15,1.15,0,1,0,.24-2.27m-20.31,1.54,13.65,19.62c-7.31-2.85-14.56-9.39-13.65-19.62m14,17.74L144.77,171.1c.41,0,.8,0,1.14,0a12.18,12.18,0,0,0,1.91-.13l10,14.31c-.22,1.39-.43,2.65-.6,3.67m.91-5.67-8.77-12.59a22.35,22.35,0,0,0,2.81-.83l6.6,9.42c-.2,1.33-.42,2.69-.64,4m2.12-13.84-.5-.05a1.2,1.2,0,0,0-1.39,1,1.17,1.17,0,0,0,1.22,1.27l.37,0c0,.17-.05.34-.07.52l-.79,5.1-5.57-8c2.6-1,4.71-2.17,5.84-2.17.89,0,1.09.44.89,2.26" style="fill:none;clip-rule:evenodd"/></clipPath><clipPath id="bq" transform="translate(8.73)"><path d="M161.07,130.07c2.67,0,4-.86,4-1.69,0-3-7.31-1.13-7.31-2.93a1.08,1.08,0,0,1,.53-.8h.1c3.68-.34,3.74-2.87,6.37-3.39-3.17-.45-3.62,2-5,2.17a1.7,1.7,0,0,0,.92-1.53c-.64.86-2.07.93-2.86,1.93a.64.64,0,0,0-.12.52,1.31,1.31,0,0,0-.78,1.07c0,2.8,7.43.88,7.43,2.91,0,.71-1.28,1.19-3.32,1.19-1.53,0-2.62-1.09-5.48-.36,0-.47,1-1.37.59-1.81a.66.66,0,0,0,.47-.56.93.93,0,0,0-.55-.25c.1-.14,0-.3-.14-.4a1.29,1.29,0,0,0-.15-.39,2.49,2.49,0,0,0-.65-.44,1.78,1.78,0,0,0-.67-.18,1.5,1.5,0,0,0-.4.05c-.18,0-.36,0-.37.17a.9.9,0,0,0-.53-.22,1,1,0,0,0-.07.78c-.26,0-.55.7-.8.64.09.18.17.27.25.28-.21.4-.31.87-.56.89a1.18,1.18,0,0,0,.2.23,6.88,6.88,0,0,0-.39,1.68h0a3,3,0,0,0-.6-.47c-.42-.25-.4-.46-.33-.88s.3-.7.33-1c0,0,0-.26-.05-.34a.55.55,0,0,0-.57-.38.37.37,0,0,1,.18.38c-.09.07-.18.17-.21.18s-.17.25-.06.37,0,.05,0,.08a.58.58,0,0,1-.06.17c0,.07,0,0,0,0-.06-.27-.14-.64-.39-.67h-.2l0,0c0-.28-.26-.49-.67-.17.08,0,.22,0,.26.11a1.15,1.15,0,0,0-.12.28c-.06.27.15.39.47.4.07,0,.1,0,.1,0a.27.27,0,0,1,0,.13s0,0-.05,0c-.51-.22-.76,0-.82.19,0,0,0,.15,0,.21-.19.12-.29.36,0,.57,0-.09,0-.27.16-.31l.08,0a.44.44,0,0,0,.11.12s.14,0,.34-.08c0,0,.07,0,.13,0l.14.1s0,0,0,.07c-.42.31-.41.62.06.71.06,0,.07,0,.06.09-.13.61-1,.47-.86-.12-.58.67.19,1.2.88.87.05,0,.06,0,.08,0a.25.25,0,0,0,.19.23s0-.14.16-.14,0,0,0,.07,0,.36.25.39c0-.12,0-.24.12-.24s.29.5.68.93A9.42,9.42,0,0,1,150,132a3.63,3.63,0,0,0-1.29.06c-.42.22-1.45.6-1.76.17-.1-.14-.07-.29-.19-.51a.66.66,0,0,0-.34-.27h-.25a.55.55,0,0,0-.7-.08.5.5,0,0,1,.4.25,2.21,2.21,0,0,0-.11.22c-.09.12,0,.35.62.57,0,0,.08.08,0,.11a.34.34,0,0,1-.36,0c-.26-.2-.29-.51-.61-.32l-.19.11a.11.11,0,0,0-.07,0c-.29,0-.75.33-.54.66a.54.54,0,0,1,.36-.3c0,.09.05.19.06.21.06.33.21.59.89.14.07,0,.07,0,.06,0-.16.29-.62.58-.27.81a.91.91,0,0,1,.16.11.09.09,0,0,0,0,.06.6.6,0,0,0,.57.65.62.62,0,0,1-.21-.58l.19.06c.32-.13.18-.53.35-.65s.09,0,.1,0,.09.53.49.5a.55.55,0,0,0,.51-.56s0,0,0,0a.39.39,0,0,1,.2.43.58.58,0,0,0,.28-.28.58.58,0,0,1-.15.68,1,1,0,0,0,.64-.67.71.71,0,0,1,.13.22s0,0,0,0a1.28,1.28,0,0,0,.79,0c.05,0,.06,0,.05.05a.45.45,0,0,0,0,.4c0-.05.11-.2.15-.2s0,.39.24.63c.08-1,.62-.61,1.24-1,.07-.06.08,0,.06,0a.64.64,0,0,1-.26.32c.23,0,.76-.23.76-.58,0-.07.19-.2.39-.33a.7.7,0,0,0,.71-.33c0,.11.14.4,0,.48.64,0,1.32-.69,1.58-.76,1.38-.29-.88-1.3,2-1.13a1.4,1.4,0,0,0,.83-.31c-.22.44-.23,1.3.21,1.36a1.82,1.82,0,0,1,.73.31c0,.05,0,.07,0,.08a1.64,1.64,0,0,0-.61.16c-.68.44-.69-1-1.41-.74l-.18.14c-.28,0-.66.34-.61.63a.75.75,0,0,1,.46-.25v.14c0,.11,0,.23.27.23s.17-.06.28-.06.07,0,.07.07c0,.28-.87-.16-.72.59a1,1,0,0,0,.13.23c0,.22.17.45.56.32-.07-.06-.22-.15-.19-.27l.18,0s.07,0,.09-.12,0,0,0,0,.09,0,.09.06-.06.09-.06.16a.91.91,0,0,0,.08.23c-.05.26.35.54.74.27-.11,0-.35-.06-.38-.19a.46.46,0,0,0,.18-.07.35.35,0,0,0,.08-.27c0-.06,0-.06.08-.06a.52.52,0,0,0,.18,0,.17.17,0,0,1,.14.05.41.41,0,0,0,.54.23c.48-.16.07-.57.46-.65a.41.41,0,0,1,.29,0c.37.08.92.07,1-.1a1.05,1.05,0,0,0-.35-1.1c-.24-.12,0-.4-.22-.75a3.53,3.53,0,0,0,1.41.35c1,0,.05-.15.5-.42a1.52,1.52,0,0,1,1.23-.13c.14,0,.25.08.21.23-.11.55.05.6-.06.84s-.54,0-.84,0a.35.35,0,0,0-.32.13.65.65,0,0,0-.54.58.94.94,0,0,1,.46-.23s0,.08,0,.1a.38.38,0,0,0,.67.24c0-.05.13,0,.08.05-.21.16-.58.5-.27.65a.68.68,0,0,1,.17.07.48.48,0,0,0,.34.5c-.06-.13-.08-.19,0-.45H163c.23,0,.13-.45.38-.58,0,0,.07,0,0,0-.08.27-.13.58.11.65l.18.05c.07.19.3.33.62.17a.56.56,0,0,1-.27-.2.89.89,0,0,0,.16-.25c.15-.54-.31-.55-.31-.77s.54-.11.54-.66a.37.37,0,0,0-.23-.34s0,0,0,0h0c.15,0,.3,0,.38-.17-.39,0-.27-.31-.34-.53,0,0,0-.06,0-.1a.56.56,0,0,0,.17-.58c-.13.18-.58.39-.62,0,0,0,0-.29-.44-.22-.67.07-1-.28-2.3-.4-.07,0-.13-.07,0-.08m-6.21-3.46a3.35,3.35,0,0,0,.87.34c-.4.09-.3.25-.56.24s-.37-.34-.31-.58m-.54-.29c-.11.22-.37.37-.56.19s0-.25-.2-.61a3.15,3.15,0,0,0,.76.42m-.82,1.81c.06-.15.13-.27.21-.27a.23.23,0,0,0,.28-.18c.08-.17-.1-.24-.23-.36.16,0,.23-.09.15-.18s-.26.06-.31,0,.11-.14.16-.19.13-.05.21,0l.71.35c.09,0,.14.07.14.17s0,.2,0,.23-.07-.21-.19-.23-.12.09-.05.26c-.17-.07-.32-.14-.4,0a.27.27,0,0,0,.05.35c.06.07,0,.2-.05.36a.37.37,0,0,1-.51.25.38.38,0,0,1-.13-.56" style="fill:none;clip-rule:evenodd"/></clipPath><clipPath id="bs" transform="translate(8.73)"><path d="M164.76,140c0-.81-.9-1.32-3.5-1.32s-8.48,1-8.48-.49c0-.73,1.14-.67,2.52-.58a1.07,1.07,0,0,0,.57.3c3.36,1,7.32-.79,9.36-.22-2.4-1.82-4.4.06-7-.49,1.49,0,2-.41,2.08-.83-1.16.76-3.36-.38-4.73.47a1.4,1.4,0,0,0-.22.17c-1.87-.05-3.35-.05-3.35,1.18,0,2.6,7,1.08,9.18,1.08s2.66.22,2.66.64c0,.62-2.18.78-3.41.78-1.9,0-7.62-1-11.09-.31.28-.56.9-1.29.57-1.7a.84.84,0,0,0,.54-.66,1.26,1.26,0,0,0-.63-.3c.1-.15,0-.32-.17-.45s-.1-.4-.18-.45a2.66,2.66,0,0,0-1.55-.74,2.53,2.53,0,0,0-.47.08c-.18,0-.4,0-.44.18a1,1,0,0,0-.6-.25,1.27,1.27,0,0,0-.09.92c-.31,0-.63.83-.93.72.11.22.21.31.3.34-.26.46-.37,1-.67,1,.19.26.32.36.44.39,0,.34,0,.7-.07,1l-.56-.19-.15,0a.39.39,0,0,1-.22-.09,1,1,0,0,1,.23.06l-.31-.12a9.58,9.58,0,0,0-1.14-1c-.51-.29-.52-.55-.48-1.07s.25-.89.25-1.29c0-.06-.07-.29-.11-.41a.64.64,0,0,0-.67-.46.56.56,0,0,1,.26.47,2.23,2.23,0,0,0-.23.24.35.35,0,0,0,0,.46.1.1,0,0,1,0,.09.59.59,0,0,1-.05.21c0,.09,0,0,0,0-.1-.32-.23-.8-.51-.81a.75.75,0,0,0-.22,0s0,0,0-.05c0-.34-.34-.61-.75-.2a.48.48,0,0,1,.31.14,1.05,1.05,0,0,0-.11.35c0,.33.2.45.57.46a.11.11,0,0,1,.11.07s0,.09,0,.16,0,0-.06,0c-.58-.26-.84,0-.86.29a.85.85,0,0,0,0,.23c-.23.15-.3.46.08.71,0-.12,0-.33.14-.37l.1-.05a.41.41,0,0,0,.14.15c.05,0,.15,0,.35-.11,0,0,.09-.05.14,0l.17.11c.05,0,0,.08,0,.11-.42.39-.38.76.14.86a.1.1,0,0,1,.1.11.49.49,0,1,1-1-.14c-.58.85.34,1.49,1.07,1.07,0,0,.06,0,.08,0s.1.26.23.28a.19.19,0,0,1,.17-.17s0,0,0,.09.06.43.33.46c0-.13,0-.29.11-.29s.46.57,1,.91.83.74,1.15.41c-.06.5.41,1.09.3,1.09a6.83,6.83,0,0,0-1.83.07c-.5.26-1.71.7-2,.2-.13-.18-.08-.33-.24-.6a.67.67,0,0,0-.39-.31h-.28a.72.72,0,0,0-.82-.09.56.56,0,0,1,.46.31c-.06.07-.11.22-.13.23-.1.16,0,.42.73.69,0,0,.09.09,0,.12a.37.37,0,0,1-.41,0c-.31-.24-.35-.57-.71-.37l-.24.12a.11.11,0,0,0-.07,0c-.34,0-.86.37-.63.76a.63.63,0,0,1,.42-.34c0,.1.06.2.07.25.07.38.24.69,1,.16.08-.07.08,0,.06,0-.2.34-.71.66-.3.93a1.19,1.19,0,0,0,.17.14l0,.07a.72.72,0,0,0,.66.77.82.82,0,0,1-.24-.67l.22.05c.39-.15.21-.62.42-.75s.11,0,.11,0c0,.2.12.63.57.58a.63.63,0,0,0,.61-.64s0,0,0,0a.42.42,0,0,1,.22.48.69.69,0,0,0,.33-.33.67.67,0,0,1-.17.8,1.18,1.18,0,0,0,.73-.78.92.92,0,0,1,.16.27s0,0,0,0a1.65,1.65,0,0,0,.9,0c.05,0,.07,0,.07.05a.42.42,0,0,0,0,.44c0-.06.12-.23.18-.23s0,.45.27.72c.1-1.16.73-.7,1.44-1.17.1,0,.1,0,.07.05a.57.57,0,0,1-.3.38c.79.17,2.06-1,2.24-1.55a5.19,5.19,0,0,1,.77-.06c2.28.2.69-2.06,4.36-1.41a1.79,1.79,0,0,0,.9-.41c-.27.47-.28,1.48.22,1.56a1.89,1.89,0,0,1,.87.38c.05,0,0,.05,0,.08a2.79,2.79,0,0,0-.71.16c-.77.53-.8-1.17-1.63-.84l-.23.16c-.32,0-.77.39-.69.73a.82.82,0,0,1,.53-.29v.18c0,.11,0,.26.3.26s.2-.08.32-.08.11,0,.11.09c0,.31-1-.19-.85.69a1.6,1.6,0,0,0,.15.26c0,.25.18.53.64.37-.09-.05-.25-.16-.22-.31l.21,0c.05,0,.09,0,.11-.15s0,0,0,0,.08,0,.08.07-.05.1-.05.19a.7.7,0,0,0,.08.26c-.05.32.41.66.87.33-.13,0-.41-.06-.46-.22a1.67,1.67,0,0,0,.22-.09.44.44,0,0,0,.11-.32c0-.07,0-.08.08-.08h.21c.11,0,.13,0,.16.06a.5.5,0,0,0,.64.27c.55-.19.09-.67.53-.78a.69.69,0,0,1,.32,0c.44.12,1.1.1,1.21-.1a1.18,1.18,0,0,0-.42-1.28c-.27-.13,0-.47-.24-.87a4.08,4.08,0,0,0,1.63.4,3,3,0,0,0,2-.51,2,2,0,0,1,1.44-.14c.16,0,.28.09.24.3-.14.62.06.67-.07,1s-.63,0-1,0a.4.4,0,0,0-.37.16c-.29.07-.64.32-.61.68a1,1,0,0,1,.53-.29c0,.06,0,.12,0,.14a.45.45,0,0,0,.78.28c0-.05.15,0,.09.07-.25.17-.68.58-.32.72a1,1,0,0,0,.22.12.53.53,0,0,0,.39.57c-.09-.15-.11-.22,0-.53a1,1,0,0,0,.21,0c.26,0,.14-.52.43-.69,0,0,.08,0,0,0-.1.31-.15.68.12.76a1,1,0,0,0,.22,0,.48.48,0,0,0,.73.22.63.63,0,0,1-.32-.25,2.72,2.72,0,0,0,.19-.29c.19-.64-.37-.64-.37-.91s.63-.1.63-.74a.39.39,0,0,0-.27-.4.05.05,0,0,1,0-.05h0c.19,0,.36,0,.46-.21-.48,0-.34-.37-.4-.62,0-.05,0-.08,0-.11s.26-.31.21-.68c-.15.22-.68.46-.74,0,0,0,0-.33-.5-.24a16.83,16.83,0,0,1-2.84-.22c1.71,0,4.24-.45,4.24-1.41m-16.25-2.23a3.55,3.55,0,0,0,1,.4c-.48.1-.35.29-.65.28s-.41-.41-.37-.68m-.63-.32c-.13.23-.41.43-.65.2s0-.29-.23-.71a4.28,4.28,0,0,0,.88.51m-1,2.1c.09-.18.17-.32.27-.32a.28.28,0,0,0,.33-.2c.07-.21-.11-.3-.29-.43.19,0,.29-.13.19-.22s-.3.08-.35,0,.11-.15.17-.21.14-.06.26,0l.81.39c.12.06.18.1.18.2s0,.26-.06.29-.07-.25-.22-.29-.14.13,0,.32c-.2-.07-.39-.17-.48,0a.32.32,0,0,0,.06.42c.07.08,0,.23-.06.42s-.3.46-.58.29a.47.47,0,0,1-.18-.65" style="fill:none;clip-rule:evenodd"/></clipPath><clipPath id="bu" transform="translate(8.73)"><path d="M163.6,151.43c0-.76-.83-1.24-3.32-1.24s-10.12.93-10.12-.48c0-.87,2.59-.52,4.48-.47a.92.92,0,0,0,.55.35c3.19.91,6.54-1.24,8.82-.47-1.81-1.65-4.14.17-6.56-.32,1.42,0,2.9-.3,3-.68-1.1.72-4.21-.49-5.51.33a.63.63,0,0,0-.21.18c-2.36,0-5.24-.32-5.24,1.08,0,2.48,8.69,1,10.78,1s2.53.22,2.53.61c0,.59-2.08.73-3.25.73-1.93,0-10.06-1.05-13.29-.08.18-.56,1-1.38.59-1.81a.8.8,0,0,0,.54-.62,1.21,1.21,0,0,0-.61-.3c.1-.13,0-.31-.14-.42s-.12-.37-.17-.43a3.76,3.76,0,0,0-.74-.5,3.27,3.27,0,0,0-.73-.2c-.1,0-.42.08-.46.06s-.39,0-.42.18a1,1,0,0,0-.56-.24,1.13,1.13,0,0,0-.09.88c-.3,0-.61.77-.88.68.1.22.19.31.27.33-.23.44-.34,1-.62,1a1.3,1.3,0,0,0,.27.29,3.94,3.94,0,0,0-.09.76l-.26-.1a2.41,2.41,0,0,1-.39,0,4,4,0,0,0-.41-.06c-.4,0-.68-.67-1.35-1.06-.49-.29-.51-.52-.51-1s.21-.83.18-1.23c0,0-.08-.26-.12-.37a.65.65,0,0,0-.66-.43.53.53,0,0,1,.26.43c-.08.09-.18.2-.18.24a.29.29,0,0,0,0,.43.14.14,0,0,1,0,.09,1.19,1.19,0,0,1,0,.2c0,.08-.05,0-.05,0-.12-.32-.26-.77-.54-.79a1.21,1.21,0,0,0-.2,0s0,0,0-.06c0-.31-.36-.56-.73-.18.08,0,.23,0,.29.12s-.09.31-.09.33c0,.33.23.45.58.46a.09.09,0,0,1,.1.06c0,.05,0,.1,0,.14s0,.06,0,0c-.55-.25-.8,0-.81.26a.8.8,0,0,0,0,.21c-.21.16-.26.45.12.68,0-.1,0-.31.13-.35l.06,0c.06.06.15.12.16.14s.14,0,.32-.11a.14.14,0,0,1,.15,0l.16.1a.07.07,0,0,1,0,.11c-.38.36-.31.72.19.81,0,0,.07.05.07.12,0,.69-1,.55-.92-.14-.5.79.4,1.41,1.08,1,0,0,.06,0,.07,0s.11.24.24.25,0-.14.16-.14,0,0,0,.07a.41.41,0,0,0,.34.45c0-.15,0-.29.08-.29a7.79,7.79,0,0,0,1.63,1.51c.2,0,.49,0,.58-.29,0,.09.1.17.22.25,0,.46.33,1,.23,1a8.66,8.66,0,0,0-2.05.09c-.47.26-1.61.68-1.94.19-.12-.16-.09-.31-.23-.55a.53.53,0,0,0-.37-.3h-.27a.64.64,0,0,0-.78-.09.56.56,0,0,1,.45.29c-.06.08-.12.2-.14.22s0,.39.69.66c0,0,.1.07,0,.09a.35.35,0,0,1-.41,0c-.27-.22-.32-.54-.65-.35,0,0-.13.06-.23.11l-.08,0c-.32,0-.81.39-.59.76a.54.54,0,0,1,.4-.34.82.82,0,0,1,.06.22c.07.38.23.67,1,.15.07,0,.07,0,.06.06-.19.31-.69.63-.31.88l.18.14s0,0,0,.06a.67.67,0,0,0,.62.73.79.79,0,0,1-.23-.66c.1,0,.19.09.21.06.36-.13.2-.58.4-.71s.11,0,.11,0,.1.58.54.54a.58.58,0,0,0,.57-.61s0,0,0,0a.42.42,0,0,1,.21.45.71.71,0,0,0,.31-.3.64.64,0,0,1-.17.75,1.08,1.08,0,0,0,.71-.73.71.71,0,0,1,.14.23l0,0a1.44,1.44,0,0,0,.88,0s0,0,0,0a.68.68,0,0,0,0,.45s.12-.22.19-.22,0,.43.23.67c.1-1.08,1.39-.54,2.08-1,.09-.06.1,0,.07,0a.68.68,0,0,1-.3.36,1.59,1.59,0,0,0,.91-.35l-.08.09,1.11-.5a1.92,1.92,0,0,0,.05-.32c.14,0,.27-.06.38-.1s0,0,0,0c.72.06.65-.54.93-.48,4.06.54,1.73-1.75,6.5-1.29.24,0,.33-.1.53-.28-.25.46-.25,1.24.23,1.32a1.77,1.77,0,0,1,.82.35s0,.07,0,.08a2.11,2.11,0,0,0-.67.17c-.74.48-.76-1.11-1.55-.81a2.35,2.35,0,0,0-.21.16c-.32,0-.75.37-.66.7a.77.77,0,0,1,.5-.3,1.31,1.31,0,0,0,0,.17c0,.13,0,.25.28.25s.21-.08.32-.08.09,0,.09.1c0,.29-1-.17-.79.66a2.76,2.76,0,0,0,.14.25c0,.23.17.49.62.35-.09-.05-.25-.17-.22-.29h.2s.08,0,.09-.12,0,0,.05,0,.08,0,.08.08,0,.08,0,.16a.92.92,0,0,0,.08.27c0,.3.4.61.84.31-.13,0-.4-.06-.43-.21a.61.61,0,0,1,.2-.09.37.37,0,0,0,.09-.3.08.08,0,0,1,.09-.07l.19,0a.12.12,0,0,1,.15.06.47.47,0,0,0,.61.26c.52-.19.09-.65.51-.74a.54.54,0,0,1,.31,0c.41.11,1,.08,1.14-.11a1.11,1.11,0,0,0-.4-1.21c-.26-.13,0-.45-.23-.83a3.89,3.89,0,0,0,1.56.38,2.88,2.88,0,0,0,1.93-.48,1.87,1.87,0,0,1,1.37-.13c.14,0,.27.09.23.28-.14.59.06.65-.07.91s-.61.05-.93,0a.38.38,0,0,0-.36.17.67.67,0,0,0-.6.63,1.21,1.21,0,0,1,.51-.26.43.43,0,0,0,0,.12.42.42,0,0,0,.73.27c.05,0,.14,0,.09,0-.23.18-.66.58-.3.72l.2.1a.52.52,0,0,0,.37.54c-.07-.13-.09-.22,0-.48h.2c.25,0,.14-.51.42-.66,0,0,.06,0,.06,0-.11.28-.15.64.11.72l.19,0a.47.47,0,0,0,.7.21c-.08,0-.26-.12-.31-.24a1,1,0,0,0,.18-.26c.18-.61-.34-.62-.34-.87s.61-.1.61-.73a.42.42,0,0,0-.27-.37s0,0,0,0h0c.17,0,.34,0,.43-.18-.46,0-.3-.35-.37-.61,0,0,0-.08,0-.1a.68.68,0,0,0,.2-.66c-.15.22-.65.46-.69,0,0,0,0-.33-.49-.24a15.35,15.35,0,0,1-2.71-.22c1.43-.09,4-.4,4-1.34m-18.15-2a5.83,5.83,0,0,0,1,.39c-.44.08-.34.24-.64.23s-.37-.38-.33-.62m-.6-.32c-.13.21-.41.4-.62.19s0-.26-.23-.67a3.51,3.51,0,0,0,.85.48m-.91,2c.07-.17.14-.3.23-.3s.27,0,.32-.2-.1-.29-.28-.39c.18-.05.27-.14.18-.23s-.29.07-.33,0,.1-.15.15-.19.15-.07.25,0l.8.38c.09.05.15.1.15.21s0,.23,0,.25-.07-.24-.23-.25-.1.09,0,.27c-.19-.06-.37-.15-.46,0a.31.31,0,0,0,.06.39c.06.08,0,.22,0,.39s-.3.43-.56.3a.44.44,0,0,1-.15-.63" style="fill:none;clip-rule:evenodd"/></clipPath><clipPath id="bw" transform="translate(8.73)"><path d="M198.93,170.56s0-.06,0-.09a.68.68,0,0,0,.26-.67c-.17.23-.69.47-.7,0,0,0,0-.32-.47-.24a17.44,17.44,0,0,1-2.89-.19c-.09,0-.16-.08,0-.1,1.42-.12,4-.33,4-1.24,0-.76-.85-1.25-3.33-1.25s-10.11.9-10.11-.49c0-.88,2.57-.52,4.47-.46a1,1,0,0,0,.55.34c3.21.91,6.85-1.48,8.78-.93-2.52-.87-4.09.64-6.51.14,1.41,0,2.91-.29,3-.68-1.1.71-4.2-.49-5.51.34a1,1,0,0,0-.22.17c-2.35,0-5.22-.3-5.22,1.08,0,2.47,8.68,1,10.76,1s2.54.21,2.54.6c0,.6-2.07.75-3.24.75-2,0-10.06-1.08-13.31-.09.18-.55,1-1.38.62-1.81a.8.8,0,0,0,.52-.64,1.12,1.12,0,0,0-.61-.29c.1-.14,0-.29-.15-.42s-.1-.37-.18-.42a3,3,0,0,0-.73-.51,2.17,2.17,0,0,0-.74-.19,2.46,2.46,0,0,0-.44.06c-.18,0-.38,0-.41.19a1.08,1.08,0,0,0-.59-.25,1.2,1.2,0,0,0-.07.89c-.3,0-.61.75-.89.66.11.22.2.31.28.33-.23.44-.34,1-.63,1,.18.24.31.36.42.37,0,.26-.06.52-.07.74l-.42-.15-.4,0a3,3,0,0,0-.4-.07c-.39-.05-.69-.68-1.36-1.06-.49-.28-.5-.52-.5-1s.2-.81.18-1.2a2.52,2.52,0,0,0-.13-.39.67.67,0,0,0-.66-.43.54.54,0,0,1,.27.43c-.09.1-.19.22-.21.23a.38.38,0,0,0,0,.44.09.09,0,0,1,0,.08.48.48,0,0,1,0,.2c0,.09,0,0-.05,0-.09-.3-.25-.74-.52-.78h-.22s0,0,0-.06c0-.3-.35-.56-.72-.18.09,0,.25,0,.31.14s-.09.29-.1.31c0,.33.22.45.56.45.08,0,.11,0,.11.08s0,.09.05.13,0,.05-.05,0c-.56-.25-.81,0-.82.27a.88.88,0,0,0,0,.22c-.19.14-.24.45.12.67,0-.09,0-.31.13-.36h.07c.06,0,.13.12.16.12s.13,0,.33-.11a.21.21,0,0,1,.14,0,.37.37,0,0,0,.15.11.06.06,0,0,1,0,.1c-.39.37-.32.74.19.83,0,0,.07,0,.07.11,0,.7-1,.56-.93-.14-.5.81.4,1.41,1.08,1,0,0,.07,0,.08,0s.11.26.23.26a.15.15,0,0,1,.16-.14s0,0,0,.07.09.42.34.45c0-.15,0-.27.08-.27s.58,1,1.61,1.58c0-.09.38-.25.59-.38a.63.63,0,0,0,.35.45l.18-.08c-.07.47.49,1,.39,1a4.1,4.1,0,0,0-1.42,0c-.46.26-1.62.67-1.95.2-.11-.19-.08-.33-.23-.58a.54.54,0,0,0-.37-.3h-.27a.64.64,0,0,0-.77-.09.57.57,0,0,1,.42.29,1.43,1.43,0,0,1-.11.22c-.09.17,0,.41.68.65,0,0,.11.07,0,.11a.33.33,0,0,1-.4,0c-.28-.21-.33-.53-.67-.34a1.11,1.11,0,0,1-.23.1h-.06c-.32,0-.81.37-.59.75a.52.52,0,0,1,.39-.35c0,.09.05.2.06.23.08.38.22.67,1,.16.08,0,.08,0,.05,0-.16.33-.69.64-.29.88l.16.14s0,0,0,.07a.68.68,0,0,0,.63.72.77.77,0,0,1-.25-.64.94.94,0,0,0,.23.06c.36-.15.19-.59.41-.73,0,0,.08,0,.1.05s.09.59.54.54a.55.55,0,0,0,.55-.6s0-.05.06,0a.44.44,0,0,1,.2.47.87.87,0,0,0,.32-.32.7.7,0,0,1-.18.77,1.12,1.12,0,0,0,.71-.75.6.6,0,0,1,.15.23s0,0,0,0a1.46,1.46,0,0,0,.86,0c.06,0,.06,0,.06.05a.57.57,0,0,0,0,.44c0-.05.11-.23.18-.23s0,.43.24.7c.1-1.11.7-.67,1.39-1.11.08,0,.08,0,.07,0a.74.74,0,0,1-.31.36c.25.2,1.26-.43,1.26-.85,0-.1.38-.14.72-.2.7,0,.61-.53.89-.49,4.07.55,1.74-1.74,6.51-1.27.22,0,.34-.27.53-.45-.25.45-.26,1.39.24,1.49a1.76,1.76,0,0,1,.81.34c.05,0,0,.07,0,.08a2.28,2.28,0,0,0-.68.17c-.72.49-.74-1.11-1.53-.82a1.74,1.74,0,0,0-.22.18c-.33,0-.74.38-.68.69a.83.83,0,0,1,.51-.29v.16c0,.14,0,.25.29.25s.2-.07.3-.07a.08.08,0,0,1,.09.09c0,.3-1-.15-.8.65a2.33,2.33,0,0,0,.16.26c0,.24.17.49.6.35-.08-.07-.24-.18-.2-.3l.19,0c.05,0,.08,0,.11-.13s0,0,0,0a.08.08,0,0,1,.08.07s-.07.09-.06.17,0,.23.07.26c0,.3.39.62.83.31-.12,0-.39-.07-.44-.21l.23-.1a.39.39,0,0,0,.08-.29c0-.07,0-.07.07-.07h.22a.11.11,0,0,1,.14,0,.49.49,0,0,0,.61.25c.53-.18.08-.63.51-.73a.73.73,0,0,1,.33,0c.4.1,1,.09,1.12-.11a1.1,1.1,0,0,0-.39-1.2c-.26-.12,0-.47-.23-.84a3.85,3.85,0,0,0,1.55.38,3.32,3.32,0,0,0,2-.47,1.82,1.82,0,0,1,1.4-.14c.12,0,.24.09.18.28-.17.59,0,.65-.15.92s-.6,0-.94,0a.45.45,0,0,0-.35.16c-.3.06-.65.31-.66.63a1.18,1.18,0,0,1,.54-.25v.11a.4.4,0,0,0,.71.28s.14,0,.08.05c-.25.17-.7.56-.35.7l.18.11a.47.47,0,0,0,.33.54c-.06-.14-.08-.22.06-.49h.2c.25,0,.18-.49.48-.65,0,0,.06,0,0,0-.11.29-.21.65,0,.72l.2.05c.06.22.32.39.67.21-.07,0-.25-.12-.28-.23a2,2,0,0,0,.21-.28c.23-.61-.29-.62-.27-.86s.6-.11.66-.74a.32.32,0,0,0-.23-.34.13.13,0,0,1,0-.06h0c.17,0,.33.06.46-.18C198.81,171.2,199,170.81,198.93,170.56ZM181,165.94a4.62,4.62,0,0,0,1,.39c-.45.1-.35.26-.61.26S181,166.2,181,165.94Zm-.6-.31c-.12.24-.39.41-.62.2s0-.26-.23-.67A4.48,4.48,0,0,0,180.43,165.63Zm-.93,2c.1-.18.17-.32.27-.32s.26,0,.32-.19-.12-.28-.29-.39c.18-.06.29-.14.17-.22s-.28.07-.31,0,.09-.15.15-.22.14,0,.25,0l.79.38c.08.06.15.09.14.22s0,.23-.05.25-.08-.24-.21-.27-.12.11,0,.3c-.2-.07-.37-.17-.47,0a.31.31,0,0,0,.07.39c.06.07,0,.21-.06.41s-.29.41-.55.27A.46.46,0,0,1,179.5,167.64Z" style="fill:none;clip-rule:evenodd"/></clipPath><clipPath id="by" transform="translate(8.73)"><path d="M187.78,176.81a.85.85,0,0,0,.56.4c3,.88,6.53-1.41,8.37-.89-2.41-.84-3.91.61-6.23.15,1.36,0,2.78-.3,2.86-.67-1.05.7-4-.43-5.26.33a1.39,1.39,0,0,0-.19.15c-1.68,0-3,0-3,1.06,0,2.36,6.32,1,8.31,1s1.74.21,1.74.59c0,.56-2.26.7-3.38.7-1.71,0-6.88-.89-10-.27.25-.51.82-1.18.51-1.55a.73.73,0,0,0,.49-.6,1,1,0,0,0-.59-.26c.1-.14,0-.3-.13-.42s-.1-.35-.17-.4a2.55,2.55,0,0,0-.69-.47,2.21,2.21,0,0,0-.71-.2,4.28,4.28,0,0,0-.43,0c-.16,0-.36,0-.39.19a.93.93,0,0,0-.54-.24,1.2,1.2,0,0,0-.09.85c-.27,0-.56.74-.82.65.08.2.17.28.26.31-.24.41-.34.91-.59.94a1.26,1.26,0,0,0,.23.26,4.14,4.14,0,0,0-.15.89l-.28-.1h-.12a2.27,2.27,0,0,1-1.23-.36c-.48-.26-.49-.5-.49-1s.2-.78.17-1.16a2.35,2.35,0,0,0-.1-.37.67.67,0,0,0-.65-.4.53.53,0,0,1,.26.4,2.18,2.18,0,0,0-.18.22.28.28,0,0,0,0,.41.1.1,0,0,1,0,.1s0,.09,0,.19-.05,0-.06,0c-.11-.31-.24-.73-.51-.74a.92.92,0,0,0-.18,0v-.05c0-.31-.32-.55-.68-.2.08,0,.22,0,.28.14a1.57,1.57,0,0,0-.09.31c0,.31.23.42.55.43a.09.09,0,0,1,.1.07.68.68,0,0,1,0,.12c0,.06,0,.05-.05,0-.53-.23-.75,0-.77.25a.63.63,0,0,0,0,.22c-.19.13-.25.42.11.63,0-.1,0-.29.11-.32l.08,0,.14.14c.05,0,.13,0,.31-.11a.11.11,0,0,1,.12,0,1.77,1.77,0,0,0,.17.12s0,.06,0,.08c-.36.36-.31.71.16.78a.11.11,0,0,1,.08.12c0,.66-.91.53-.88-.13-.48.76.38,1.34,1,1,0,0,0,0,.06,0s.11.25.23.26a.14.14,0,0,1,.13-.15c.06,0,.06,0,.06.07a.41.41,0,0,0,.31.43c0-.13,0-.27.09-.27s.1-.29.91.16a.57.57,0,0,0,.3.31l.6-.1c-.07.45.07,1.15,0,1.15a4.11,4.11,0,0,0-1.37.06c-.43.24-1.53.64-1.83.19-.12-.17-.09-.32-.22-.55a.55.55,0,0,0-.35-.27h-.27a.61.61,0,0,0-.74-.1.51.51,0,0,1,.41.28c-.05.07-.09.19-.11.21s0,.38.66.62c0,0,.09.08,0,.11a.38.38,0,0,1-.38,0c-.27-.22-.31-.52-.62-.33l-.23.1a.24.24,0,0,0-.09,0c-.29,0-.75.36-.54.71a.48.48,0,0,1,.37-.31l.07.2c.06.37.22.64.93.15.08,0,.08,0,.07,0-.18.31-.64.61-.28.85l.16.12s0,0,0,.07a.65.65,0,0,0,.61.68.74.74,0,0,1-.23-.61.77.77,0,0,0,.23.06c.34-.14.17-.55.37-.69s.08,0,.08,0,.11.55.53.52a.53.53,0,0,0,.53-.58s0,0,.06,0a.42.42,0,0,1,.19.45,1.11,1.11,0,0,0,.3-.31.65.65,0,0,1-.17.73,1,1,0,0,0,.66-.71.51.51,0,0,1,.16.23l0,0a1.36,1.36,0,0,0,.81,0c.05,0,.06,0,.06,0a.47.47,0,0,0,0,.44c0-.06.11-.24.17-.24s0,.42.24.66c.09-1,.93-.78,1.59-1.21.06-.05.07,0,.06,0a.62.62,0,0,1-.29.34c.7.44,1.44-.53,1.65-1.06a.61.61,0,0,0,.19-.2c.05.1.06.21-.12.31.68,0,.6-.5.87-.47,2.07.17.49-1.73,3.81-1.16a1.3,1.3,0,0,0,.81-.35c-.24.42-.25,1.34.21,1.41a2.14,2.14,0,0,1,.79.33s0,.07,0,.08a1.51,1.51,0,0,0-.65.17c-.69.45-.71-1.06-1.46-.77a.76.76,0,0,0-.21.14c-.29,0-.71.35-.64.66a.79.79,0,0,1,.49-.27,1.08,1.08,0,0,1,0,.16c0,.11,0,.25.28.25s.19-.09.3-.09a.09.09,0,0,1,.09.1c0,.27-.93-.16-.77.62,0,0,.09.18.16.22,0,.24.16.49.57.35-.08,0-.23-.17-.2-.28h.18s.09,0,.1-.11,0,0,0,0,.09,0,.09.08-.06.08-.06.15a.7.7,0,0,0,.08.26c-.05.28.37.59.79.31-.12,0-.38-.08-.41-.23a1.62,1.62,0,0,0,.2-.08.36.36,0,0,0,.08-.28c0-.06.05-.06.08-.06l.19,0c.1,0,.13,0,.15,0a.45.45,0,0,0,.58.25c.5-.19.06-.63.47-.69a.46.46,0,0,1,.31,0c.39.09,1,.07,1.08-.1a1,1,0,0,0-.38-1.16c-.25-.11,0-.43-.21-.8a3.3,3.3,0,0,0,1.48.37,3.94,3.94,0,0,0,2.13-.44,1.76,1.76,0,0,1,1.34-.14c.13,0,.23.1.13.28-.24.55-.1.62-.27.85s-.59.06-.91,0a.57.57,0,0,0-.35.14,1,1,0,0,0-.74.63,1.22,1.22,0,0,1,.56-.26s0,.12,0,.13c-.06.38.33.5.64.24,0,0,.13,0,.07.06-.26.18-.77.53-.48.67l.19.1a.37.37,0,0,0,.2.51c0-.13,0-.21.15-.46h.2c.23,0,.25-.49.56-.63,0,0,.06,0,0,0-.17.28-.3.61-.07.69l.17.05c0,.21.26.36.63.19-.07,0-.25-.13-.25-.22s.22-.24.25-.26c.31-.59-.18-.59-.13-.83s.59-.09.76-.67a.32.32,0,0,0-.16-.36s0,0,0,0h0c.17,0,.32,0,.47-.2-.43,0-.2-.32-.2-.55,0,0,0-.08,0-.1a.74.74,0,0,0,.35-.62c-.18.2-.71.42-.67,0,0,0,.06-.29-.39-.23a19.82,19.82,0,0,1-3.11-.2c-.09,0-.15-.07,0-.1,1.35-.09,4.13-.29,4.13-1.17,0-.72-.15-1.2-2.5-1.2s-7.7.88-7.7-.44c0-.65,1-.6,2.28-.53m-7.69-.15c-.14.2-.39.38-.6.18s0-.26-.21-.65a4,4,0,0,0,.81.47m.47,1.43c-.08,0-.07-.23-.21-.25s-.11.09,0,.27c-.18-.06-.33-.16-.43,0s0,.24.06.37,0,.21-.06.37-.27.41-.53.27a.43.43,0,0,1-.16-.59c.09-.17.16-.28.24-.28s.26,0,.31-.18-.1-.28-.27-.39c.18,0,.27-.13.18-.2s-.28.06-.31,0,.08-.14.14-.19a.17.17,0,0,1,.23,0l.76.34c.08.06.14.09.13.21s.05.22,0,.25m.41-.53c-.27,0-.38-.38-.32-.63a3.15,3.15,0,0,0,.91.38c-.42.09-.32.26-.59.25" style="fill:none;clip-rule:evenodd"/></clipPath><clipPath id="ca" transform="translate(8.73)"><path d="M185.28,187.78a.82.82,0,0,0,.57.4c3,.86,6.51-1.41,8.37-.9-2.4-.84-3.93.63-6.23.14,1.35,0,2.78-.28,2.85-.63-1.05.68-4-.48-5.26.29a1,1,0,0,0-.23.23c-.93.2-1.74.71-1.74,1.4,0,2,7.79.41,7.79,1.09s-1.53,1-3.57,1c-1.55,0-4.24-1-7.61-.18v0c.24-.56,1-1.42.63-1.8a.66.66,0,0,0,.48-.56.87.87,0,0,0-.54-.25c.07-.16,0-.28-.14-.41s-.09-.33-.16-.38a2.49,2.49,0,0,0-.65-.44,3,3,0,0,0-.69-.2c-.07,0-.36.08-.39.08s-.36,0-.38.15a1.05,1.05,0,0,0-.5-.23,1,1,0,0,0-.08.82c-.27,0-.54.69-.79.61.09.2.17.27.25.29-.22.41-.32.87-.58.9a2.37,2.37,0,0,0,.28.28,5.4,5.4,0,0,0-.13,1.9,13.31,13.31,0,0,0-1.67-1.9c-.44-.27-.45-.49-.45-.94s.18-.73.15-1.09a2.3,2.3,0,0,0-.1-.36.59.59,0,0,0-.6-.38.52.52,0,0,1,.25.39,1.7,1.7,0,0,0-.18.21.27.27,0,0,0,0,.39.09.09,0,0,1,0,.08.74.74,0,0,1,0,.18c0,.08,0,0-.05,0-.08-.29-.23-.68-.47-.7h-.18a.15.15,0,0,0,0-.07c0-.28-.32-.5-.66-.16.07,0,.22,0,.26.11a2,2,0,0,0-.06.31c0,.28.19.4.5.4.06,0,.1,0,.1.06s0,.08,0,.12,0,.06,0,0c-.52-.21-.74,0-.75.24a.81.81,0,0,0,0,.21c-.18.13-.23.39.12.6,0-.11,0-.28.1-.32l.08,0,.13.13s.12,0,.31-.11c0,0,.05,0,.1,0l.15.1s0,.07,0,.08c-.34.34-.28.66.16.75a.08.08,0,0,1,.08.09c-.05.63-.87.51-.83-.12-.47.73.36,1.29,1,.92,0,0,.06,0,.07,0s.08.21.21.23a.14.14,0,0,1,.13-.15s0,0,0,.08a.38.38,0,0,0,.3.41c0-.14,0-.25.07-.25s0,1,.9,1.49a1,1,0,0,0,1.08.78c.15.38.39.73.31.73a5.15,5.15,0,0,0-1.5,0,3.11,3.11,0,0,1-1,.34l-.07.08a.24.24,0,0,1,.06-.08.78.78,0,0,1-.75-.17c-.1-.15-.08-.29-.2-.52a.6.6,0,0,0-.33-.27h-.26a.65.65,0,0,0-.7-.08.52.52,0,0,1,.39.27c0,.08-.09.19-.09.21s0,.35.61.58c0,0,.1.08,0,.09a.3.3,0,0,1-.36,0c-.26-.2-.29-.49-.61-.31a1,1,0,0,1-.2.09l-.08,0c-.28,0-.73.34-.52.68a.52.52,0,0,1,.36-.31,1.38,1.38,0,0,0,.07.2c0,.34.2.62.87.15.08,0,.08,0,.05.06-.16.27-.61.55-.25.79l.15.09a.16.16,0,0,0,0,.08.6.6,0,0,0,.57.65.64.64,0,0,1-.21-.58.57.57,0,0,0,.21.06c.31-.13.16-.54.35-.66s.07,0,.07,0,.11.53.51.5a.54.54,0,0,0,.51-.55s0,0,0,0a.35.35,0,0,1,.19.42.75.75,0,0,0,.29-.28.53.53,0,0,1-.16.65.88.88,0,0,0,.63-.65.39.39,0,0,1,.14.22s0,0,0,0a1.13,1.13,0,0,0,.78,0,.05.05,0,0,1,.07.05.46.46,0,0,0,0,.4s.11-.21.17-.21,0,.38.22.62c.09-1,.62-.6,1.25-1,.07,0,.08,0,.06.05a.76.76,0,0,1-.28.32c.24,0,.94-.31.94-.66a4.52,4.52,0,0,0,.58-1.71,2.08,2.08,0,0,0,.25,0c.83-.07,1.21-.66,2-.71a2,2,0,0,0-.26,1.19c0,.45.59.95.75,1.09s0,.06,0,.07a1.89,1.89,0,0,0-.6.16c-.68.45-.69-1-1.4-.73a1.25,1.25,0,0,0-.19.15c-.29,0-.68.33-.61.62a.78.78,0,0,1,.45-.26v.14c0,.12,0,.23.27.23s.17-.07.27-.07a.09.09,0,0,1,.1.09c0,.28-.9-.15-.72.59,0,0,.08.16.11.23s.17.44.56.32c-.08-.06-.23-.15-.19-.28a1.09,1.09,0,0,1,.17,0c.05,0,.09,0,.11-.13s0,0,0,0,.07,0,.07.08-.06.09-.05.16a.63.63,0,0,0,.07.22c0,.27.35.55.75.27-.1,0-.36,0-.39-.18l.19-.08c.07,0,.09-.15.09-.25s0-.08.06-.08h.19c.08,0,.11,0,.13.07a.44.44,0,0,0,.55.2c.48-.15.09-.56.46-.66a.92.92,0,0,1,.29,0c.38.1.67.17.77,0a1,1,0,0,0-.35-1.09c-.24-.13.34-1.61-.8-2.3.54.12,2.25.37,2.55-.05A3,3,0,0,1,187,193c.07.1.11.22-.05.31-.46.28-.39.43-.63.52l-.05,0a3.4,3.4,0,0,0-.45-.47.35.35,0,0,0-.36,0,.65.65,0,0,0-.73.3,1,1,0,0,1,.53,0s0,.08,0,.11a.22.22,0,0,0,.1.24h0s0,0,.05,0,0,.07-.05.07c-.26,0-.76-.08-.64.23,0,0,0,.12.05.2a.44.44,0,0,0-.11.57c0-.11.09-.18.32-.28,0,.07.12.13.12.15s.41-.25.69-.15c0,0,0,0,0,0-.27.12-.52.29-.41.51l.08.17a.43.43,0,0,0,.31.58.53.53,0,0,1,0-.36,1.6,1.6,0,0,0,.29,0c.52-.27.19-.61.36-.76s.43.32.84-.06a.37.37,0,0,0,.08-.39s0,0,0,0h0c.11.11.2.24.4.15-.3-.27,0-.4.16-.6,0,0,.05-.06.09,0a.58.58,0,0,0,.55-.28c-.23,0-.82-.31-.46-.44s.62-.48.39-.75c-.41-.53-1.25-.58-1.28-1.18h.77c2.64,0,4.3-.73,4.26-1.56-.1-1.77-7.95.14-7.95-1.15,0-.39.48-.68,1.09-.89m-5.71.27a3.44,3.44,0,0,0,.88.34c-.41.09-.31.25-.56.23s-.37-.35-.32-.57m-.52-.28c-.12.19-.37.36-.56.17s0-.24-.22-.6a3.72,3.72,0,0,0,.78.43m-.84,1.8c.08-.15.14-.28.22-.28s.24,0,.28-.17-.09-.26-.25-.34c.17-.07.25-.13.17-.22s-.27.06-.3,0,.09-.15.13-.2a.19.19,0,0,1,.23,0l.71.34c.08.06.14.09.14.19s0,.21,0,.24-.06-.22-.18-.24-.12.08-.05.25c-.17,0-.33-.15-.41,0a.26.26,0,0,0,.07.36c0,.06,0,.2-.06.35s-.26.4-.51.26a.39.39,0,0,1-.14-.56" style="fill:none;clip-rule:evenodd"/></clipPath><clipPath id="cc" transform="translate(8.73)"><path d="M57.88,50.7A1.9,1.9,0,1,0,56,52.6a1.91,1.91,0,0,0,1.91-1.9" style="fill:none;clip-rule:evenodd"/></clipPath><clipPath id="ce" transform="translate(8.73)"><path d="M57.22,45.62a1.91,1.91,0,1,0-1.91,1.91,1.91,1.91,0,0,0,1.91-1.91" style="fill:none;clip-rule:evenodd"/></clipPath><clipPath id="cg" transform="translate(8.73)"><path d="M58.3,43.37a1.91,1.91,0,1,0-1.89-1.91,1.91,1.91,0,0,0,1.89,1.91" style="fill:none;clip-rule:evenodd"/></clipPath><clipPath id="ci" transform="translate(8.73)"><path d="M63.38,43a1.91,1.91,0,1,0-1.89-1.9A1.9,1.9,0,0,0,63.38,43" style="fill:none;clip-rule:evenodd"/></clipPath><clipPath id="ck" transform="translate(8.73)"><path d="M85,39.51a1.91,1.91,0,1,0,0-2.71,1.91,1.91,0,0,0,0,2.71" style="fill:none;clip-rule:evenodd"/></clipPath><clipPath id="cm" transform="translate(8.73)"><path d="M84.61,35.44a1.9,1.9,0,1,0-2.69,0,1.89,1.89,0,0,0,2.69,0" style="fill:none;clip-rule:evenodd"/></clipPath><clipPath id="co" transform="translate(8.73)"><path d="M79.56,34.62a1.91,1.91,0,0,0-2.71-2.7,1.91,1.91,0,0,0,2.71,2.7" style="fill:none;clip-rule:evenodd"/></clipPath><clipPath id="cq" transform="translate(8.73)"><path d="M75.25,37.82a1.91,1.91,0,0,0,0-2.68,1.91,1.91,0,1,0-2.7,2.7,1.92,1.92,0,0,0,2.7,0" style="fill:none;clip-rule:evenodd"/></clipPath><clipPath id="cs" transform="translate(8.73)"><path d="M63.09,35.2l1.53,3.33,1.93-2.32a1.57,1.57,0,0,0,.23.09A36.35,36.35,0,0,1,67,40.45a2.43,2.43,0,1,0,3.56-2.15,20.22,20.22,0,0,1-2.68-2.5.91.91,0,0,0,.12-.31l3.23.29L70,32.35l-2.41,2-.13-.07-.17-3.54-3.34,1.27,2.22,2.62A1.11,1.11,0,0,0,66,35Z" style="fill:none;clip-rule:evenodd"/></clipPath><clipPath id="cu" transform="translate(8.73)"><path d="M85.16,41.13a4.82,4.82,0,0,1,1.06,2.63,5.54,5.54,0,0,1-2-1.81l.4,4.45a3.88,3.88,0,0,1,1.58-1.61c-.15,2.89-1.31,4.09-2.3,4.29a1.87,1.87,0,0,1-2.27-1.48c-.24-1.29.87-2.09,2-.94.22-2.67-1.94-2.63-2.87-1.49,1.11-2.57.66-4.28-1.63-5.66-1.42,2.41-.82,4,1,5.81-1.76-.89-3.34.61-1.77,2.58.34-1.71,1.82-1.33,2.17,0,.29,1.16-.82,2.67-2.73,3.23-2.73.84-3.62-.92-4.28-2.39.59-.39,2-.25,3.56.74l-1.32-4.34a4.43,4.43,0,0,1-2.61,2.64A13.71,13.71,0,0,1,74,44l-5.25,2.14A13.23,13.23,0,0,1,72,48.29a4.45,4.45,0,0,1-3.71-.07l2.08,4c.42-1.8,1.33-2.88,2-3,.55,1.52,1.13,3.39-1.39,4.71-1.77.92-3.61.63-4.22-.42C66.1,52.31,66.9,51,68.33,52c-.24-2.51-2.43-2.48-3.06-.6,0-2.58-.65-4.13-3.36-4.86-.67,2.57.21,4.12,2.8,5.19-1.47-.17-3,1.3-1,3.08,0-1.63,1.35-1.82,2.1-.73a1.88,1.88,0,0,1-.62,2.64c-.84.54-2.5.5-4.63-1.47a3.94,3.94,0,0,1,2.25.05L60,51.82a5.39,5.39,0,0,1-.16,2.68,4.87,4.87,0,0,1-1.07-2.62L56.6,53.79a24.31,24.31,0,0,1,7.2,7.09,93.58,93.58,0,0,1,11.65-5.79,91.41,91.41,0,0,1,12.38-4A24.64,24.64,0,0,1,88,41Z" style="fill:none;clip-rule:evenodd"/></clipPath><clipPath id="cw" transform="translate(8.73)"><rect x="9.64" y="50.45" width="118.51" height="193.58" style="fill:none"/></clipPath><clipPath id="cx" transform="translate(8.73)"><rect x="5.97" y="47.77" width="124.94" height="198.43" style="fill:none"/></clipPath><clipPath id="cy" transform="translate(8.73)"><path d="M127,162.46c.75-2-3-4.36-3.43-7.28s-.07-5.71-3.42-9.63-14.7-16-18.14-19.92a5.48,5.48,0,0,1,5,1.45c1.23,1.15,3.67,3.47,5.94,5.71a62,62,0,0,1,12.1-19.46c.68-.77,1.38-1.52,2.09-2.25-2,.6-5,1.06-6.75,2.24-.14-3.35.13-6.07-2.17-8.19.87-4.69.11-10.35-10.4-17.32,5.37,1.29,8.55,6.15,12.66,2.42-3.69-.1-3.77-8.15-17.09-14.84,5.1-.11,9.06,8.12,14.95,3.45C112.8,78.18,111,68.33,101,65.27c3.46.39,7,2.09,10-1.94-3.46.81-5.52-2.39-9.24-2.68,1.41-4.31,1.06-7-.42-10.2A12.85,12.85,0,0,0,94.11,53c-.29-2.37-2.79-2.52-5-2.34.11,1,.6,2.51-.53,2.72a96.51,96.51,0,0,0-12.33,3.73A67.34,67.34,0,0,0,64.9,63.21c-.93.64-1.73-.87-2.3-1.56-1.62,1.38-3.2,3.16-2,5a14.31,14.31,0,0,0-7.76,2.79c0,3,2.46,5.84,6.12,7.45-6.17,6.14-.58,11.82-6,17.18,7.65.28,6.32-10.37,10.18-11.85-.4,7.49-4.58,8.81-4.58,16.89,0,4.32,2.57,9,.27,11.83,6.4-1.76,4.71-15.9,8.7-20.16a11.89,11.89,0,0,1-.54,7.2c-2.23,6.6.25,15.63-3.23,18.56,6.53-.64,7.3-11.11,12.67-15C71.78,111,67,131.05,60.16,141.11c-11.14,15-17.68,33.32-27.89,33.32-4.51,0-7.89-2.76-7.89-8.45,0-17.07,29.27-28.81,29.27-47a10.82,10.82,0,0,0-10.73-11.19,15,15,0,0,0-9,3.71,9.82,9.82,0,0,0-3.46-.76c-10.35,0-7.59,18.6-16.61,18.42,3.57,2,9.75-1.9,13.37-7.11-1.52,12.07-18.88,8.85-17.55,23.34,2.44-11.34,30.1-9.68,30.1-26.88a6.62,6.62,0,0,0-2.37-4.85,10.67,10.67,0,0,1,5.85-1.83c3.3,0,6.33,2.48,6.33,7.35,0,15.24-29.1,28.09-29.1,46.8a13.21,13.21,0,0,0,2.41,7.86A4.85,4.85,0,0,1,17,172.25c-.16,4.82,6.72,7.85,11.06,5.43a11.66,11.66,0,0,0,3,.62c-1.32,3.58-5.77,4.65-8.09,4.49,7.14,5.62,19.57-1.76,18.88-8.12,5.67-4.56,9.26-12.38,13.36-17.52-.25,1.19-.48,2.37-.65,3.54-4.17,7.59-8.08,14.39-9.17,24.39-.91,8.37-5.14,15.9-11,15.9-1.29,0-3.42-1.68-4.42-.84-1.83,1.57-.09,3.22-.09,4.78,0,2.38-4.59,4.75-4.59,12.1,0,3.31,1.93,7.26,1.2,9.46,1.87-1,4.36-4.11,5.4-8.16,2,9.69-4.15,9.28.29,17.89.55-2.86,3.4-4,5.13-2.86s.93,2-.36,3.32-2.48,7.72,3.4,7.34c-1.1-.72-1.17-2.43,1.74-3,4.05-.81,5.23,1,9.55,1,2.66,0,3.39-3.48,5.51-3.48s2.11,1.64,1.37,2.84c3.4-.92,4-2.75,4-4.68s-1.55-3.11-.36-3.85,5.14.09,3.58,3.3c2-.36,3.12-1.84,3.12-4.32s-2.84-3.94-5.5-3.48C63,226.78,60.66,226,58.55,226c-4.77,0-4,3.76-7.31,3.76-5.23,0-10.32-6.81-10.32-18.29,0-6.15,6.62-7.71,11.3-9.72s12.89-7.06,17.8-15.32c3.86-6.45,4-13.53,3.48-21.92,6.59,3.79,7.37,9.23,7.37,13.2,0,5.13-2.66,7.21-4.76,8.16-1.77.81-2.37.48-2.55,1.53A2.28,2.28,0,0,0,75,189.83c2.39,1.23,1.89,3.5,2.56,6A18.93,18.93,0,0,0,84.09,205c.39-1.53.28-4,.06-7.17,5.08,2.5,1,12.68,10.86,12.68-1.81-1-1.33-3.7-.29-4.08s2.37.66,4.28,3.31,1.39,2.45,6,2.45,2.56-1.61,5-1.61,2.28,2.85,1,4.94c4.16-1.26,5.42-4.42,4-7.66,3.66-2,5.6.82,6.14,2.82,3.61-3.6,0-8-2.84-8.27a2.88,2.88,0,0,0-2.66-2.84,37.47,37.47,0,0,0-4.65-.1c-1.71.1-2.66,2.56-4.66,2.56C100.2,202,88,190.86,88,186s11.69-7.78,11.69-15.29c0-9.81-9.65-13.14-17.76-19.45,2.89-3.24,11.33-4,16.12-1.67.54-2.73,2.3-2.06,2.94-6.76,1.72,4.14-.06,7.71,1.69,9.47,1.37-2,4.87-1.71,4.65-6.84,1.06,3.21-1.36,8.13,1.06,10.27.43-2.64,2-3.14,3-3.14s1.87.72,1.87,2.29c0,3.91-4.84,2.08-4.84,6.5,0,1.86,2.35,2.5,2.35,3.71s-1.93,3.06-4.28,1.49a5,5,0,0,0,4.35,3.22,6.24,6.24,0,0,0,5.32-3.93c1.12,2.82.26,5.94-1.75,6.35,2.13,1.06,7.2,0,6.61-6.44,2.86.49,4.36,2.42,2.66,5.87,2.35-.57,4.5-1.72,4.5-4.22,0-1.92-2.09-2.5-1.16-5M71.69,74c-2.67.24-2.6-2.31-7.3-3.45a80.88,80.88,0,0,0,11.24-3.75c.7,3.07-.57,6.9-3.94,7.2m18.9,20c-3.43,1.48-6.09-1.53-6.75-3.58s-1.22-3.77-.42-4.55c1.49-1.46,2-2.6,1.06-4.43-1-2.1-3.27-1.11-5.67-.52,1.11-2,1.21-3.45-.32-3.26-1.82.21-1.85,3.16-2.86,2.81s-.44-2-.44-3c0-1.24.81-1.69,2.07-2.25l9.93-3.77c1.29-.46,2.18-.71,3.06.19.64.64,2.23,1.46,1.74,2.42s-2.56-1.14-4,0c-1.22.94-.16,1.9,2,2.56C87.88,78,85.6,78.78,86.32,81c.62,1.92,1.74,2.41,3.82,2.43,1.13,0,1.93,1.62,2.86,3.56s1.25,5.47-2.41,7m.59-27.7c-2.65,2.09-6.19.18-7.8-2.55a80.79,80.79,0,0,0,10.77-5c-2.65,4.06-.84,5.87-3,7.53" style="fill:none;clip-rule:evenodd"/></clipPath><clipPath id="cz" transform="translate(8.73)"><rect x="9.64" y="47.77" width="121.26" height="198.43" style="fill:none"/></clipPath><clipPath id="da" transform="translate(8.73)"><path d="M313.51,209.48a8.23,8.23,0,1,0,8.24-8.23,8.24,8.24,0,0,0-8.24,8.23m2.1,0a6.12,6.12,0,1,1,6.14,6.12,6.13,6.13,0,0,1-6.14-6.12" style="fill:none;clip-rule:evenodd"/></clipPath><clipPath id="dc" transform="translate(8.73)"><path d="M282.81,217.06a4.64,4.64,0,0,0-.76,7.16,7.49,7.49,0,0,0,8.75,1.58,4.81,4.81,0,0,0,2.62-3.42c.53-2.86-1.89-5.69-5.38-6.34a7,7,0,0,0-5.23,1m3.73,7.32c-2.35-.43-4-2.18-3.69-3.9a2.71,2.71,0,0,1,1.16-1.71,5,5,0,0,1,3.65-.65c2.13.38,3.73,1.93,3.73,3.49,0,.13,0,.27,0,.41-.31,1.72-2.48,2.78-4.82,2.36" style="fill:none;clip-rule:evenodd"/></clipPath><clipPath id="de" transform="translate(8.73)"><path d="M237.5,101.63c-2.56,2-3.31,5.33-1.67,7.45h0c1.65,2.11,5.06,2.2,7.61.22a6.4,6.4,0,0,0,2.51-4.17,4.43,4.43,0,0,0-.84-3.26,4.28,4.28,0,0,0-2.92-1.62,6.43,6.43,0,0,0-4.69,1.38m-.45,4.81a4.22,4.22,0,0,1,1.74-3.14,4.39,4.39,0,0,1,3.12-1,2.23,2.23,0,0,1,1.53.83,2.27,2.27,0,0,1,.42,1.71,4.4,4.4,0,0,1-1.71,2.77c-1.61,1.25-3.74,1.31-4.67.15a2.18,2.18,0,0,1-.43-1.35" style="fill:none;clip-rule:evenodd"/></clipPath><clipPath id="dg" transform="translate(8.73)"><path d="M273.15,203.39a7.09,7.09,0,0,0-2,4.92v.17a7,7,0,0,0,1.84,4.84,4.7,4.7,0,0,0,3.32,1.52,4.82,4.82,0,0,0,3.39-1.38,7.14,7.14,0,0,0,2-4.94,7.33,7.33,0,0,0-1.38-4.47,4.94,4.94,0,0,0-3.78-2.07A4.83,4.83,0,0,0,273.15,203.39Zm3.2,9.33h0a2.55,2.55,0,0,1-1.84-.85,5,5,0,0,1-1.24-3.52,4.82,4.82,0,0,1,1.36-3.43,2.56,2.56,0,0,1,1.9-.82c1.74,0,3.12,2,3.07,4.39a4.89,4.89,0,0,1-1.37,3.45A2.6,2.6,0,0,1,276.35,212.72Z" style="fill:none;clip-rule:evenodd"/></clipPath><clipPath id="di" transform="translate(8.73)"><path d="M232.89,136.92a4.79,4.79,0,0,0-2.76,2.39c-1.26,2.64.32,6,3.5,7.54a7.05,7.05,0,0,0,5.32.42,4.72,4.72,0,0,0,2.77-2.39,4.81,4.81,0,0,0,.13-3.66,7.39,7.39,0,0,0-9-4.3m1.65,8c-2.15-1-3.27-3.15-2.51-4.73a2.56,2.56,0,0,1,1.56-1.32,4.89,4.89,0,0,1,3.7.33,5,5,0,0,1,2.57,2.68,2.63,2.63,0,0,1,0,2.06,2.75,2.75,0,0,1-1.57,1.31,5,5,0,0,1-3.71-.33" style="fill:none;clip-rule:evenodd"/></clipPath><clipPath id="dk" transform="translate(8.73)"><rect x="209.57" y="25.47" width="125.73" height="219.18" style="fill:none"/></clipPath><clipPath id="dl" transform="translate(8.73)"><rect x="208.07" y="22.05" width="132.29" height="224.15" style="fill:none"/></clipPath><clipPath id="dm" transform="translate(8.73)"><path d="M319.35,128.46c2.68,7.35,8,10,12.07,8.1C322.33,135.51,329.69,120,318,120a8.76,8.76,0,0,0-1.89.2c-2-2.1-4.25-3-7.6-3-5,0-13.46,4.77-13.46,14.63,0,21.22,24.64,23.1,24.64,41.86a8.59,8.59,0,0,1-8.77,8.89c-4.14,0-7.48-4.66-11-11.94-1.68-3.47-5.25-8.21-9.05-13.16a6.64,6.64,0,0,0,3.66,1.29,4.66,4.66,0,0,0,3.42-1.25,4.73,4.73,0,0,0,1.45-3.33V154a7.36,7.36,0,0,0-6.83-7.07,4.6,4.6,0,0,0-4.87,4.58v.19a6,6,0,0,0,.4,2.16c-5.31-6.93-10.24-13.72-10.24-17.45,0-3.28,2.27-6.18,5.07-9.65l1,.54.74-.83c1-1.08,3.05-3.34,7.31-7.91l.25-.27h0l1-1.08-2.64-2.13a32.36,32.36,0,0,0,1.77-5.2c.82,3.4,2.56,5.57,5,4.89-1.6-3.53,1.62-8.25-.5-16.87,2,3.32,4.91,5.08,7,4.47-5.46-4.85,1.62-11.6-5.49-22.07,2.33.79,3.87.33,4.9-.82-6.49-.9-3.53-9.19-14.92-12.15,2.83-.5,4.5-2.15,4.07-3.65-3,2.17-5.64-4-15.52-3.88-.59-3.69-4-7.57-7.89-9.45a12.79,12.79,0,0,1-.7,7.58L236.18,26.38c-.93-.88-1.46-1.09-1.71-.76s-.24.9.36,1.55l27.6,34.62c-2.08.72-4.12,1.59-6.26,2.37a3.74,3.74,0,0,0-2.4,3.57,58.76,58.76,0,0,0-11.85,7.74c-1.7,1.55-3,1.92-1.56,5.4.58,1.32-1.19,4.59,2.8,2.19,2.63-1.56,8.57-4.85,9.46-2.78.47,1.08-2.48,2.48-4.49,3.24s-4.2,2.33-3.89,3.11,1.92,0,2,.77a1.81,1.81,0,0,0,1.56,1.73c.8,0,1.84-1.69,2.49-1.13s-.32,4.34-1,5.3a6.26,6.26,0,0,0,5.22-5.69c.08-2.33.72-2.89,1.19-3.22s1.05,2.49.41,4.18c1.65-.35,3.37-2.53,3.14-6.55a4.55,4.55,0,0,1,2.31-1.16c1.05,0,3.13,2.89,6.1,2.89,5.47,0,8.51-4.43,8.83-6.5a6.08,6.08,0,0,0-.78-4.56,7.58,7.58,0,0,1,2.59,5.89c0,7.74-13.68,11.38-19.3,16.74-.22.18-.41.38-.62.58L252,93.42l-.42,1.41c0,.08-.09.33-.38,1.21-.67,2.21-2.07,6.79-2.93,9.43,0,0-.34,1.06-.34,1.06l.57.33c-3.82,5.07-6.88,10.74-7.57,16.57a55.55,55.55,0,0,0-4.69-4.28,6.94,6.94,0,0,0,.35-1.78,6.35,6.35,0,0,0-1.47-4.53,4.32,4.32,0,0,0-3-1.49,4.26,4.26,0,0,0-3.12,1.16,3.91,3.91,0,0,0-.56.59l-.69-.53a54.43,54.43,0,0,1-6.34-5.32,3.26,3.26,0,0,0-2.79-1.15c-.55,0-1.9-.06-2.85-.06s-1.5.73-2.59,1.7c-.51.44-2,1.6-3.65,2.87.79.8,1.57,1.62,2.34,2.48.41.46.81,1,1.21,1.44l1.12-.87a3.5,3.5,0,0,1,5.17,1.15c.58.88,5.78,7.7,10.09,12.45-.48.16-.94.33-1.36.5-1.85.77-6,.62-7.84.47s-2.22-.61-3.47,1.36a22.85,22.85,0,0,1-1.71,2.38c-.61.76-1.1,1.61.21,3.82,1.9,3.21,6.61,11.65,8.18,15.47s3.4,4.42,6.39,5.64,8.12,4.17,8.72,4.84l.2-2.92c-.88-.89-3.75-2-4.83-2.35s-1.37-.86-.06-.86,4.89,1.29,7.42,2.32c-.76-2.86-3.48-6-5.12-7.76-2.16-.62-4.35-.62-5.24.06a1.19,1.19,0,0,1-1.22,1.36,1.14,1.14,0,0,1-1.15-1.5c.27-.86,1.57-1.15,1.28-2.78s-2.3-1.91-3.61-2.05c-1.83-2.65-3.95-6.53-4.9-8.1s-.38-2.46.27-3c1.57-1.29,4.84.68,11.38,1.1,2.26.14,5.15.28,8.08.42.86,7.58,3.91,14.8,14.48,17.44,5.16,1.27,10.47,5.06,12.3,10-21.09-.37-24.41,7.84-24.41,15.61,0,8.82,7.44,8.33,7.44,14.95,0,5.76-17.74,8.15-23.1,8.94-4.55.67-7.14,1.67-9.32,3.86s-4.38,4.28-8.35,8.24a13.91,13.91,0,0,0,3.38.3l3-3.88c.89-1.29,1.5-2.38,2.09-2.28s.19,1.09-.51,2.48l-2.47,4.15c10.42.71,11.11-3.16,11.11-4.75s-2.58-2.67-1.09-3.66,2.77-.31,4,1.08,1.58,2.58,4.46,1.49c0,0,22.7-9.4,25.56-10.7,2.58-1.16,1.85-2.29.31-3.57-1.7-1.39-2-3.67-2-6,0-6.87,4.13-9,11.52-8.85a26.3,26.3,0,0,0-.24,3.3c0,10.72,16.21,21.2,20.6,21.2,1.94,0,4.58-1.45,4.75,5,.12,4.76,1.07,8.11.22,13.6s-2.44,6.33-5.72,8.64-6.41,9.57-7.81,11.11c1.46.95,3,1.08,4.26-2.46,1-2.92,2.17-5,3.44-5.71-1.27,3.23-2.22,7.95-2.83,9.38,4.15.72,10.85-3,10.85-6s-2.31-2.68-2.31-4.63a2.23,2.23,0,0,1,2.31-1.82,3.39,3.39,0,0,1,3.05,1.94c1.83-1,3-2.8,2.92-7.07,0-1.66-.09-3.4-.18-5.18a6.27,6.27,0,0,0,.37.68,4.81,4.81,0,0,0,3.75,2.11,7.27,7.27,0,0,0,4.52-1.23,7,7,0,0,0,3.09-4.35,4.83,4.83,0,0,0,.12-1,4.56,4.56,0,0,0-.75-2.54,4.74,4.74,0,0,0-3-2,7.41,7.41,0,0,0-8.23,5.1c-.33-5.83-.76-11.33-.59-13.54.24-3.28.36-4.74-.74-5.23s-2.31,1.34-3.89,1.34-6.35-4.39-6.35-9,5-10.61,4.76-17c-.09-2,1.15-3,1.94-1.21a28.49,28.49,0,0,0,4.54,7.49c-1.33,8,7.44,15.75,14.65,10-3.57.52-6-2.64-7.59-5.83a10.91,10.91,0,0,0,1.93.17c.37,0,.73,0,1.08,0,2.54,3.13,10.58,2.87,12.66-4.9a8.25,8.25,0,0,1-6.4,2.6,12.89,12.89,0,0,0,4.61-10.34c0-20.22-24.53-22.58-24.53-41,0-6.82,6-11.21,10.12-11.21a6.24,6.24,0,0,1,3.81,1.22,9.14,9.14,0,0,0-2.3,7c.64,14.54,24.38,13.82,24.69,20.8C337.7,139.39,320,142.65,319.35,128.46ZM256.17,72.69c1.16-2.19,0-5.54,4-5.54,2,0,3.73,2,6.11,2.74A24.53,24.53,0,0,0,256.17,72.69Zm-21.69,44.56a4.29,4.29,0,0,1-1.27,2.9,2.2,2.2,0,0,1-1.57.61c-1.37-.08-2.45-1.65-2.45-3.51V117a4.13,4.13,0,0,1,1.26-2.89,2.22,2.22,0,0,1,1.59-.62,2.3,2.3,0,0,1,1.52.79A4.26,4.26,0,0,1,234.48,117.25Zm70.11,102.09a5,5,0,0,1,2.2-3,5,5,0,0,1,3.63-.82,2.76,2.76,0,0,1,1.72,1.11h0a2.58,2.58,0,0,1,.34,2,5,5,0,0,1-2.19,3c-2,1.31-4.4,1.18-5.36-.28A2.68,2.68,0,0,1,304.59,219.34Zm-14.73-67.75a2.6,2.6,0,0,1,.78-1.87,2.68,2.68,0,0,1,1.93-.68,5.12,5.12,0,0,1,3.35,1.63,5.05,5.05,0,0,1,1.43,3.47,2.65,2.65,0,0,1-.79,1.85v0a2.69,2.69,0,0,1-1.92.67,5.3,5.3,0,0,1-4.78-5.09Zm-40.28-45.71c1.15-3.56,3.31-10.64,3.31-10.64l3.74,1.45a12.75,12.75,0,0,0-3.57,2.54,3.82,3.82,0,0,0,3.38-.25L255,102.73a5,5,0,0,0-2.45-2.18c-.77,3,1.13,4.14,2.5,4.84,2.28,1.17,3.76,1.35,4.4.32.71-1.3-.78-3.11-2.7-2.3-.2-2,.89-3,2.19-3,1,0,1.85.94,2.13,2.21-.13-3.18,1.3-5.66,4.24-6.58,1.07,3.09.19,5.18-2.13,7.42,1.21-.49,2.61-.41,3.18.44.72,1.08.46,2.56-1.27,3.49a1.89,1.89,0,0,0-3.45-.9c-.68,1.32.35,2.56,2.45,3.73,2.43,1.35,4.38.55,5.68-1.57a4.45,4.45,0,0,0-3.49.71l2.49-4.66a4.73,4.73,0,0,0,1.57,2.74,6,6,0,0,0,.15-4.52l5.36,3.1a6,6,0,0,0-3.83,2.39,4.81,4.81,0,0,0,3.15,0l-2.79,4.48a4.45,4.45,0,0,0-1.13-3.38c-1.19,2.19-.91,4.28,1.48,5.71,2.07,1.24,3.66,1.5,4.45.26a1.88,1.88,0,0,0-2.48-2.54c-.08-2,1.07-2.93,2.37-2.86,1,.08,1.78,1.25,2,2.54.76-3.12,2.15-4.94,5.35-5.55.67,3-.75,5.48-3.58,7a2.42,2.42,0,0,1,3,.74c.65,1.12.3,2.58-1.51,3.4-.25-2.07-2.56-2.47-3.32-1.2-.6,1.07.31,2.26,2.46,3.65,1.31.84,3.21,1.91,5.45-.25a4.84,4.84,0,0,0-3.11-1l2.49-3.16a3.83,3.83,0,0,0,1.48,3,12.55,12.55,0,0,0,.41-4.36l3.13,2.5s-5.05,5.41-7.56,8.2Zm33.25,83.8c-1.36,1.9-3.65,2.59-5.15,1.53s-1.62-3.45-.27-5.35,3.63-2.59,5.14-1.54S284.17,187.78,282.83,189.68Zm9.68-15.3c-1.34,1.9-3.64,2.58-5.14,1.51s-1.6-3.47-.26-5.35,3.65-2.58,5.15-1.53S293.86,172.49,292.51,174.38Z" style="fill:none;clip-rule:evenodd"/></clipPath><clipPath id="dn" transform="translate(8.73)"><rect x="208.07" y="22.05" width="128.61" height="224.15" style="fill:none"/></clipPath></defs><title>icon--coat-of-arms</title><g style="clip-path:url(#a)"><g style="clip-path:url(#b)"><rect x="136.38" y="43.69" width="43" height="49.76"/></g></g><g style="clip-path:url(#c)"><g style="clip-path:url(#b)"><rect x="174.7" y="43.69" width="42.99" height="49.76"/></g></g><g style="clip-path:url(#e)"><g style="clip-path:url(#b)"><rect x="113.82" y="36.69" width="42.05" height="42.05"/></g></g><g style="clip-path:url(#g)"><g style="clip-path:url(#b)"><rect x="112.94" y="43.13" width="42.05" height="42.06"/></g></g><g style="clip-path:url(#i)"><g style="clip-path:url(#b)"><rect x="114.23" y="49.56" width="42.05" height="42.04"/></g></g><g style="clip-path:url(#k)"><g style="clip-path:url(#b)"><rect x="128.49" y="24.06" width="42.05" height="42.05"/></g></g><g style="clip-path:url(#m)"><g style="clip-path:url(#b)"><rect x="121.9" y="26.08" width="42.05" height="42.06"/></g></g><g style="clip-path:url(#o)"><g style="clip-path:url(#b)"><rect x="116.72" y="30.63" width="42.05" height="42.05"/></g></g><g style="clip-path:url(#q)"><g style="clip-path:url(#b)"><rect x="135.4" y="24.7" width="42.05" height="42.04"/></g></g><g style="clip-path:url(#s)"><g style="clip-path:url(#b)"><rect x="141.98" y="26.59" width="42.05" height="42.05"/></g></g><g style="clip-path:url(#u)"><g style="clip-path:url(#b)"><rect x="148.17" y="29.49" width="42.05" height="42.06"/></g></g><g style="clip-path:url(#w)"><g style="clip-path:url(#b)"><rect x="198.12" y="36.69" width="42.05" height="42.06"/></g></g><g style="clip-path:url(#y)"><g style="clip-path:url(#b)"><rect x="199" y="43.13" width="42.06" height="42.05"/></g></g><g style="clip-path:url(#aa)"><g style="clip-path:url(#b)"><rect x="197.7" y="49.56" width="42.06" height="42.05"/></g></g><g style="clip-path:url(#ac)"><g style="clip-path:url(#b)"><rect x="183.44" y="24.06" width="42.06" height="42.05"/></g></g><g style="clip-path:url(#ae)"><g style="clip-path:url(#b)"><rect x="190.04" y="26.08" width="42.05" height="42.06"/></g></g><g style="clip-path:url(#ag)"><g style="clip-path:url(#b)"><rect x="195.22" y="30.63" width="42.05" height="42.05"/></g></g><g style="clip-path:url(#ai)"><g style="clip-path:url(#b)"><rect x="176.52" y="24.7" width="42.05" height="42.04"/></g></g><g style="clip-path:url(#ak)"><g style="clip-path:url(#b)"><rect x="169.96" y="26.59" width="42.05" height="42.05"/></g></g><g style="clip-path:url(#am)"><g style="clip-path:url(#b)"><rect x="163.77" y="29.49" width="42.05" height="42.06"/></g></g><g style="clip-path:url(#ao)"><g style="clip-path:url(#b)"><rect x="154.1" y="34.22" width="39.71" height="49.02"/></g></g><g style="clip-path:url(#aq)"><g style="clip-path:url(#b)"><rect x="160.18" y="34.22" width="39.72" height="49.02"/></g></g><g style="clip-path:url(#as)"><g style="clip-path:url(#b)"><rect x="150.4" y="14.96" width="43.27" height="43.48"/></g></g><g style="clip-path:url(#au)"><g style="clip-path:url(#b)"><rect x="160.36" y="14.96" width="43.21" height="43.48"/></g></g><g style="clip-path:url(#aw)"><g style="clip-path:url(#b)"><rect x="150.49" y="24.94" width="53.01" height="43.26"/></g></g><g style="clip-path:url(#ay)"><g style="isolation:isolate"><g style="clip-path:url(#az)"><g style="clip-path:url(#ba)"><g style="clip-path:url(#bb)"><rect x="151.66" width="50.68" height="50.64"/></g></g></g></g></g><g style="clip-path:url(#bc)"><g style="clip-path:url(#b)"><rect x="103.97" y="150.67" width="121.18" height="93.94"/></g></g><g style="clip-path:url(#be)"><g style="clip-path:url(#b)"><rect x="144.01" y="208.69" width="66.14" height="72.23"/></g></g><g style="clip-path:url(#bg)"><g style="clip-path:url(#b)"><rect x="32.32" y="201.07" width="289.45" height="104.76"/></g></g><g style="clip-path:url(#bi)"><g style="clip-path:url(#b)"><rect x="107.03" y="48.79" width="144.51" height="183.51"/></g></g><g style="clip-path:url(#bk)"><g style="clip-path:url(#b)"><rect x="161.75" y="102.33" width="67.42" height="74.13"/></g></g><g style="clip-path:url(#bm)"><g style="clip-path:url(#b)"><rect x="166.72" y="111.91" width="55.58" height="59"/></g></g><g style="clip-path:url(#bo)"><g style="clip-path:url(#b)"><rect x="127.23" y="146.88" width="64.5" height="69.37"/></g></g><g style="clip-path:url(#bq)"><g style="clip-path:url(#b)"><rect x="134.96" y="102.84" width="57.2" height="50.11"/></g></g><g style="clip-path:url(#bs)"><g style="clip-path:url(#b)"><rect x="129.4" y="117.55" width="62.93" height="47.16"/></g></g><g style="clip-path:url(#bu)"><g style="clip-path:url(#b)"><rect x="126.4" y="128.96" width="64.72" height="46.87"/></g></g><g style="clip-path:url(#bw)"><g style="clip-path:url(#b)"><rect x="163.08" y="145.58" width="63.59" height="46.87"/></g></g><g style="clip-path:url(#by)"><g style="clip-path:url(#b)"><rect x="162.5" y="157.05" width="61.31" height="46.03"/></g></g><g style="clip-path:url(#ca)"><g style="clip-path:url(#b)"><rect x="162.21" y="168.2" width="59.12" height="47.19"/></g></g><g style="clip-path:url(#cc)"><g style="clip-path:url(#b)"><rect x="44.44" y="30.41" width="40.55" height="40.56"/></g></g><g style="clip-path:url(#ce)"><g style="clip-path:url(#b)"><rect x="43.77" y="25.34" width="40.56" height="40.56"/></g></g><g style="clip-path:url(#cg)"><g style="clip-path:url(#b)"><rect x="46.77" y="21.18" width="40.56" height="40.56"/></g></g><g style="clip-path:url(#ci)"><g style="clip-path:url(#b)"><rect x="51.85" y="20.85" width="40.55" height="40.56"/></g></g><g style="clip-path:url(#ck)"><g style="clip-path:url(#b)"><rect x="74.84" y="17.88" width="40.56" height="40.55"/></g></g><g style="clip-path:url(#cm)"><g style="clip-path:url(#b)"><rect x="71.72" y="13.82" width="40.56" height="40.56"/></g></g><g style="clip-path:url(#co)"><g style="clip-path:url(#b)"><rect x="66.66" y="12.99" width="40.56" height="40.56"/></g></g><g style="clip-path:url(#cq)"><g style="clip-path:url(#b)"><rect x="62.35" y="16.21" width="40.56" height="40.55"/></g></g><g style="clip-path:url(#cs)"><g style="clip-path:url(#b)"><rect x="53.45" y="12.42" width="45.54" height="48.84"/></g></g><g style="clip-path:url(#cu)"><g style="clip-path:url(#b)"><rect x="46.96" y="21.14" width="68.18" height="58.12"/></g></g><g style="clip-path:url(#cw)"><g style="isolation:isolate"><g style="clip-path:url(#cx)"><g style="clip-path:url(#cy)"><g style="clip-path:url(#cz)"><rect y="32.08" width="155.26" height="230.33"/></g></g></g></g></g><g style="clip-path:url(#da)"><g style="clip-path:url(#b)"><rect x="303.87" y="182.87" width="53.21" height="53.19"/></g></g><g style="clip-path:url(#dc)"><g style="clip-path:url(#b)"><rect x="271.06" y="197.55" width="49.54" height="47.39"/></g></g><g style="clip-path:url(#de)"><g style="clip-path:url(#b)"><rect x="225.32" y="81.83" width="47.77" height="47.27"/></g></g><g style="clip-path:url(#dg)"><g style="clip-path:url(#b)"><rect x="261.5" y="183.61" width="47.31" height="49.6"/></g></g><g style="clip-path:url(#di)"><g style="clip-path:url(#b)"><rect x="220.06" y="118.21" width="49.2" height="47.78"/></g></g><g style="clip-path:url(#dk)"><g style="isolation:isolate"><g style="clip-path:url(#dl)"><g style="clip-path:url(#dm)"><g style="clip-path:url(#dn)"><rect x="199.93" y="7.1" width="162.48" height="255.93"/></g></g></g></g></g></svg>