<svg xmlns="http://www.w3.org/2000/svg" xmlns:xlink="http://www.w3.org/1999/xlink" viewBox="0 0 922.96 459.54">
  <defs>
    <mask id="a" width="332.88" height="468.24" x="-.96" y="-3.66" maskUnits="userSpaceOnUse">
      <path fill="#fff" fill-rule="evenodd" d="M3.11 3.41h319.36v449.54H3.11V3.41z"/>
    </mask>
    <mask id="d" width="619.63" height="454" x="375.21" y="4.69" maskUnits="userSpaceOnUse">
      <circle cx="693.74" cy="231.69" r="223.29" fill="#fff"/>
    </mask>
    <mask id="e" width="619.63" height="446.58" x="375.21" y="8.4" maskUnits="userSpaceOnUse">
      <circle cx="693.74" cy="231.69" r="223.29" fill="#fff"/>
    </mask>
    <mask id="f" width="446.58" height="446.58" x="470.45" y="8.4" maskUnits="userSpaceOnUse">
      <circle cx="693.74" cy="231.69" r="223.29" fill="#fff"/>
    </mask>
    <mask id="g" width="446.58" height="446.58" x="472.45" y="8.4" maskUnits="userSpaceOnUse">
      <circle cx="695.74" cy="231.69" r="223.29" fill="#fff"/>
    </mask>
    <mask id="h" width="446.58" height="446.58" x="472.3" y="8.4" maskUnits="userSpaceOnUse">
      <circle cx="695.59" cy="231.69" r="223.29" fill="#fff"/>
    </mask>
    <mask id="i" width="446.58" height="446.58" x="473.76" y="8.4" maskUnits="userSpaceOnUse">
      <circle cx="697.05" cy="231.69" r="223.29" fill="#fff"/>
    </mask>
    <linearGradient id="c" x1="114.08" x2="628.14" y1="420.49" y2="420.49" gradientTransform="matrix(1 0 0 -1 1 655)" gradientUnits="userSpaceOnUse">
      <stop offset="0" stop-color="#fff" stop-opacity="0"/>
      <stop offset="1" stop-opacity=".29"/>
    </linearGradient>
    <clipPath id="b">
      <circle cx="693.2" cy="229.7" r="226.3" fill="none"/>
    </clipPath>
  </defs>
  <g mask="url(#a)">
    <image width="1387" height="1951" src="/img/london-fire-brigade.png"/>
    <path fill="#fff" d="M33.29 81h65.18v56.92H33.29z"/>
  </g>
  <path fill="none" d="M3.5-23h874.1v506H3.5z"/>
  <g clip-path="url(#b)">
    <path fill="#fff" stroke="#000" stroke-width="7" d="M374.7 2.7h619.6v454H374.7z"/>
    <path fill="#ebdcea" d="M401.5-132.1h562.4v245H401.5z"/>
  </g>
  <path fill="url(#c)" fill-rule="evenodd" d="M611.68 18.28l17.46 432.45-476.08-133.68a42.76 42.76 0 01-10.55-82.41v-.14z"/>
  <g mask="url(#d)">
    <path fill="#fff" d="M375.21 4.69h619.63v454H375.21z"/>
  </g>
  <g mask="url(#e)">
    <path fill="#f4f4fa" d="M375.21 45.23h619.63v372.93H375.21z"/>
  </g>
  <circle cx="693.2" cy="229.7" r="226.3" fill="none" stroke="#000" stroke-width="7"/>
  <g mask="url(#f)">
    <rect width="414.78" height="68.14" x="486.25" y="197.62" fill="#fff" stroke="#000" stroke-width="3" rx="6"/>
  </g>
  <g mask="url(#g)">
    <g style="isolation:isolate">
      <path d="M511.13 243.15h-4.94V227.4l.08-2.43c-.82.82-1.39 1.36-1.71 1.61l-2.68 2.16-2.39-3 7.54-6h4.06zM534.89 243.15l-1.7-5.56h-8.52l-1.7 5.56h-5.34l8.25-23.47h6.06l8.29 23.47zm-2.89-9.72c-1.57-5-2.45-7.9-2.65-8.56s-.34-1.18-.42-1.56q-.53 2-3 10.12zM559.22 243.15h-16.34v-3.44l5.87-5.93c1.74-1.78 2.87-3 3.41-3.7a8.62 8.62 0 001.15-1.91 5 5 0 00.35-1.82 2.66 2.66 0 00-.78-2.1 3 3 0 00-2.07-.69 6 6 0 00-2.64.63 13.37 13.37 0 00-2.67 1.81l-2.68-3.18a17.7 17.7 0 012.86-2.08 10.34 10.34 0 012.48-.93 12.53 12.53 0 013-.33 8.81 8.81 0 013.87.8 6.17 6.17 0 012.61 2.24 5.91 5.91 0 01.93 3.29 8 8 0 01-.57 3 11.84 11.84 0 01-1.76 2.9 41.69 41.69 0 01-4.2 4.24l-3 2.83v.22h10.18z"/>
    </g>
    <path d="M564.79 219.77h7.28q5 0 7.22 1.42a4.93 4.93 0 012.24 4.5 5.65 5.65 0 01-1 3.44 4 4 0 01-2.61 1.61v.16a5.11 5.11 0 013.2 1.86 6.77 6.77 0 01-1.33 8.6 10 10 0 01-6.27 1.79h-8.75zm5 9.26h2.88a5.29 5.29 0 002.91-.62 2.32 2.32 0 00.91-2.06 2.06 2.06 0 00-1-1.93 6.28 6.28 0 00-3.11-.59h-2.6zm0 3.93v6.1H573a4.74 4.74 0 003-.79 2.88 2.88 0 001-2.39c0-1.94-1.39-2.92-4.16-2.92z"/>
  </g>
  <g mask="url(#h)">
    <g style="isolation:isolate">
      <path d="M614.23 225a5.5 5.5 0 01-1.33 3.73 6.84 6.84 0 01-3.72 2.11v.09a7.47 7.47 0 014.28 1.72 4.82 4.82 0 011.46 3.69 6.24 6.24 0 01-2.45 5.25q-2.44 1.88-7 1.88a17 17 0 01-6.74-1.26V238a15.08 15.08 0 003 1.12 12.42 12.42 0 003.23.43 6.23 6.23 0 003.61-.83 3 3 0 001.17-2.67 2.39 2.39 0 00-1.35-2.33 9.87 9.87 0 00-4.28-.69h-1.78v-3.79h1.81a8.51 8.51 0 004-.71 2.59 2.59 0 001.25-2.44c0-1.77-1.11-2.65-3.33-2.65a7.53 7.53 0 00-2.34.38 11.24 11.24 0 00-2.64 1.33l-2.29-3.41a12.66 12.66 0 017.63-2.3 9.84 9.84 0 015.73 1.47 4.71 4.71 0 012.08 4.09zM630.4 223.56a5.05 5.05 0 00-4.34 2.11 9.79 9.79 0 00-1.53 5.86q0 7.82 5.87 7.81a18.53 18.53 0 006-1.23v4.16a16.56 16.56 0 01-6.43 1.2q-5.1 0-7.8-3.09t-2.7-8.89a14.51 14.51 0 011.32-6.38 9.65 9.65 0 013.82-4.21 11.31 11.31 0 015.83-1.46 15.81 15.81 0 016.84 1.64l-1.6 4A27.1 27.1 0 00633 224a7.82 7.82 0 00-2.6-.44zM657.91 238.31h-2.81v4.84h-4.83v-4.84h-10v-3.44l10.25-15.1h4.56v14.7h2.81zm-7.64-3.84v-4c0-.66 0-1.62.08-2.88s.1-2 .13-2.19h-.13a17.43 17.43 0 01-1.42 2.56l-4.29 6.48z"/>
    </g>
    <path d="M682.35 231.24q0 5.77-3.29 8.84t-9.49 3.07H663v-23.38h7.34q5.73 0 8.89 3t3.12 8.47zm-5.15.13q0-7.53-6.65-7.54h-2.64v15.23H670q7.2 0 7.2-7.69z"/>
  </g>
  <g mask="url(#i)">
    <g style="isolation:isolate">
      <path d="M711.85 228.22a7.48 7.48 0 015.39 1.9 6.82 6.82 0 012 5.21 7.58 7.58 0 01-2.41 6c-1.61 1.41-3.92 2.11-6.91 2.11a13.56 13.56 0 01-6.3-1.26v-4.27a14.41 14.41 0 006.12 1.52q4.53 0 4.53-3.71 0-3.54-4.69-3.54a11.9 11.9 0 00-1.87.17 13.12 13.12 0 00-1.66.36l-2-1.05.88-11.92h12.68V224h-8.34l-.44 4.59.56-.11a11 11 0 012.46-.26zM738.47 243.15H725v-23.38h13.46v4.06H730V229h7.92v4H730v6h8.51zM742.9 233.22q0-6.94 2.93-10.33t8.79-3.39a15.86 15.86 0 013.13.24v3.95a13 13 0 00-2.81-.32 9.67 9.67 0 00-4.15.77 5.21 5.21 0 00-2.41 2.27 10.52 10.52 0 00-.94 4.27h.21a5.42 5.42 0 015.07-2.72 6.27 6.27 0 014.9 2 7.78 7.78 0 011.78 5.43 8.16 8.16 0 01-2.11 5.93 7.78 7.78 0 01-5.85 2.18 8.36 8.36 0 01-4.52-1.2 7.72 7.72 0 01-3-3.5 13.34 13.34 0 01-1.02-5.58zm8.44 6.3a2.91 2.91 0 002.43-1.06 4.73 4.73 0 00.85-3 4.25 4.25 0 00-.79-2.7 2.91 2.91 0 00-2.39-1 3.66 3.66 0 00-2.57 1 3 3 0 00-1.06 2.27 5.12 5.12 0 001 3.21 3.06 3.06 0 002.53 1.28z"/>
    </g>
    <path d="M769.84 243.15H765v-23.38h13.4v4.06h-8.52v6h7.93v4h-7.93z"/>
  </g>
  <g mask="url(#g)">
    <g style="isolation:isolate">
      <path d="M799.57 243.15l8.78-19.15h-11.53v-4.15h16.77v3.1l-8.84 20.24zM827.79 230h9.27v12.12a25.25 25.25 0 01-4.24 1 27.27 27.27 0 01-4.07.3q-5.29 0-8.08-3.11t-2.79-8.93q0-5.66 3.24-8.83c2.15-2.11 5.15-3.16 9-3.16a17.37 17.37 0 016.94 1.44l-1.64 4a11.82 11.82 0 00-5.33-1.28 6.58 6.58 0 00-5.15 2.16 8.39 8.39 0 00-1.93 5.81 9.33 9.33 0 001.56 5.81 5.38 5.38 0 004.53 2 16.32 16.32 0 003.15-.31v-4.88h-4.43zM850.4 219.47a8.83 8.83 0 015.41 1.53 4.86 4.86 0 012.06 4.11 5.37 5.37 0 01-1 3.19 8.52 8.52 0 01-3.2 2.51 11.26 11.26 0 013.76 2.93 5.44 5.44 0 011.15 3.35 5.59 5.59 0 01-2.26 4.63 9.38 9.38 0 01-5.93 1.75 9.88 9.88 0 01-6-1.63 5.43 5.43 0 01-2.19-4.62 6.19 6.19 0 011.06-3.55 8.81 8.81 0 013.42-2.74 8.8 8.8 0 01-2.88-2.7 5.9 5.9 0 01-.88-3.15A4.82 4.82 0 01845 221a8.84 8.84 0 015.4-1.53zm-3.65 17.46a2.58 2.58 0 001 2.14 5 5 0 005.38 0A2.65 2.65 0 00854 237a2.82 2.82 0 00-.91-2 11.6 11.6 0 00-2.93-2q-3.4 1.53-3.41 3.93zm3.62-13.85a3.1 3.1 0 00-2 .65 2.14 2.14 0 00-.78 1.74 2.65 2.65 0 00.62 1.71 6.63 6.63 0 002.23 1.56 6.35 6.35 0 002.19-1.5 2.69 2.69 0 00.62-1.77 2.11 2.11 0 00-.8-1.75 3.19 3.19 0 00-2.08-.64z"/>
    </g>
    <path d="M883.41 243.15h-4.94v-10.09h-9.26v10.09h-5v-23.38h5v9.17h9.26v-9.17h4.94z"/>
  </g>
  <path fill="none" stroke="#979797" stroke-width="4" d="M323.94 2H2v455.55h321.94z"/>
  <path fill="#00a3a6" d="M195.09.02h-65.31L0 129.8v69.03L196.95 1.88 195.09.02z"/>
  <path fill="#fff" d="M49.23 127.32l-8.59 8.59-15.19-15.18 8.59-8.6 2.1 2.1-6.14 6.11 4.13 4.14 5.73-5.73 2.14 2.08-5.73 5.72 4.73 4.77 6.11-6.11zM49.19 115.62l-9.47-1.77 2.78-2.78 6.64 1.4-1.38-6.66 2.76-2.76 1.76 9.48 9.93 1.81-2.76 2.76-7.14-1.46 1.47 7.13-2.78 2.76z"/>
  <g style="isolation:isolate" fill="#fff">
    <path d="M71.19 105.36l-2.08-1.12-.09.09a6.59 6.59 0 01-.24 3.1A7.53 7.53 0 0167 110a5.2 5.2 0 01-3.56 1.73 4.86 4.86 0 01-3.54-1.64 4.3 4.3 0 01-1.36-4 10.85 10.85 0 013-5l1.93-2-.62-.62a3.28 3.28 0 00-2.16-1.13 3 3 0 00-2.14 1 7.89 7.89 0 00-1.43 2 18.93 18.93 0 00-.95 2.18l-2.53-1A12.12 12.12 0 0155 98.69a13.26 13.26 0 011.85-2.35A7.06 7.06 0 0161.08 94a5.33 5.33 0 014.12 1.89l7.74 7.74zm-5.29 2a4.31 4.31 0 001.39-2.88 3.84 3.84 0 00-1.29-2.92l-1-1-1.4 1.54a7.09 7.09 0 00-1.93 3.09 2.47 2.47 0 00.79 2.36 2.18 2.18 0 001.64.73 2.76 2.76 0 001.8-.95zM85.8 90.75l-2.46 2.46-7.08-7.09a4.53 4.53 0 00-2.47-1.47 2.61 2.61 0 00-2.21.91 3.37 3.37 0 00-1.15 3 7.61 7.61 0 002.4 3.72L78.55 98l-2.44 2.44L64.62 89l1.92-2 1.84 1.17.13-.13a4.46 4.46 0 01.12-2.65A6.37 6.37 0 0170.18 83q2.66-2.64 5.32-1.7l.17-.17a4.91 4.91 0 01.1-2.76 6.52 6.52 0 011.64-2.6 5.49 5.49 0 014-2A6.53 6.53 0 0185.56 76l7.49 7.49-2.44 2.44-7.09-7.08a4.53 4.53 0 00-2.47-1.47 2.63 2.63 0 00-2.21.92 3.44 3.44 0 00-1.2 3 6.47 6.47 0 002.07 3.39z"/>
  </g>
  <path fill="#fff" d="M102.22 74.74a5.64 5.64 0 01-5 1.82l-.15.15c1.07.87 1.7 1.41 1.91 1.62l4.71 4.7-2.44 2.45L84.7 68.87l2-2c.27.16.9.56 1.88 1.2l.12-.13a5.39 5.39 0 011.69-5.17A5.65 5.65 0 0195.27 61a9.94 9.94 0 015.57 3.18 9.94 9.94 0 013.16 5.61 5.66 5.66 0 01-1.78 4.95zm-10.5-9.31a3.55 3.55 0 00-1.27 3 6.17 6.17 0 002 3.39l.36.37a7.55 7.55 0 003.7 2.37 3.51 3.51 0 003.12-1.23 3.11 3.11 0 00.91-3 7.49 7.49 0 00-2.28-3.65 7.25 7.25 0 00-3.6-2.24 3.2 3.2 0 00-2.94.99zM111.75 64.8l-2.44 2.44-16.17-16.16 2.44-2.44zM120.29 56.67a7.84 7.84 0 01-5.75 2.63 8.37 8.37 0 01-5.82-2.79 9.22 9.22 0 01-3-5.83 6.88 6.88 0 012.25-5.47 6.71 6.71 0 015-2.21 7.47 7.47 0 015.03 2.49l1.32 1.31-7.66 7.66a5.34 5.34 0 003.47 1.67 4.46 4.46 0 003.3-1.5 12.87 12.87 0 001.71-2.09 14.43 14.43 0 001.28-2.54l2 2a10.66 10.66 0 01-1.21 2.41 15.41 15.41 0 01-1.92 2.26zm-10.5-9.61a3.49 3.49 0 00-1.13 2.61 4.93 4.93 0 001.31 3l5.22-5.21a4.44 4.44 0 00-2.84-1.46 3.3 3.3 0 00-2.56 1.06z"/>
</svg>
