<?xml version="1.0" encoding="UTF-8"?>
<svg xmlns="http://www.w3.org/2000/svg" viewBox="0 0 42 42">
  <title>facebook-logo-black_1024</title>
  <path d="M42,21A21,21,0,1,0,17.72,41.74V27.07H12.39V21h5.33V16.37c0-5.26,3.13-8.17,7.93-8.17a32.24,32.24,0,0,1,4.7.41v5.17H27.7c-2.61,0-3.42,1.62-3.42,3.28V21h5.83l-.94,6.07H24.28V41.74A21,21,0,0,0,42,21Z" style="fill:#222"></path>
  <path d="M29.17,27.07,30.11,21H24.28V17.06c0-1.66.81-3.28,3.42-3.28h2.65V8.61a32.24,32.24,0,0,0-4.7-.41c-4.8,0-7.93,2.91-7.93,8.17V21H12.39v6.07h5.33V41.74a20.82,20.82,0,0,0,6.56,0V27.07Z" style="fill:#fff"></path>
</svg>
