<?xml version="1.0" encoding="UTF-8"?>
<svg xmlns="http://www.w3.org/2000/svg" viewBox="0 0 42 42">
  <title>twitter-logo-black_1024</title>
  <path d="M21,0A21,21,0,1,0,42,21,21,21,0,0,0,21,0ZM31.55,17c0,.22,0,.43,0,.65A14.39,14.39,0,0,1,9.4,29.8a9.6,9.6,0,0,0,1.21.07,10.18,10.18,0,0,0,6.28-2.16,5.1,5.1,0,0,1-4.73-3.52,5,5,0,0,0,1,.09,4.91,4.91,0,0,0,1.33-.18,5.05,5.05,0,0,1-4.06-5v-.06a5.18,5.18,0,0,0,2.29.63A5.08,5.08,0,0,1,11.11,13a14.39,14.39,0,0,0,10.44,5.29,4.89,4.89,0,0,1-.13-1.15,5.07,5.07,0,0,1,8.76-3.47,10,10,0,0,0,3.21-1.23,5,5,0,0,1-2.22,2.8,10,10,0,0,0,2.9-.79A10.46,10.46,0,0,1,31.55,17Z" style="fill:#222"></path>
</svg>
