<svg xmlns="http://www.w3.org/2000/svg" viewBox="0 0 52.9 65.98"><defs><style>.a{stroke:#000;stroke-miterlimit:10;stroke-width:0.5px;}</style></defs><title>icons--bsl</title><path class="a" d="M43.52,25.94c-1,.06-1,1-1.07,1.7-.17,2.53-.27,5.06-.51,7.59-.22,2.28-1.18,3.2-3.64,3.68,0-.41-.06-.8-.06-1.18v-15a8.88,8.88,0,0,1,0-.89c.17-2,1-2.68,3-2.29,3.89.81,7.52,2.12,9.4,6A13.35,13.35,0,0,1,51.73,29c.37,2.05.58,4.13.84,6.2.75,6-3.87,10.51-9.86,9.8a22.77,22.77,0,0,1-9-2.55,12.18,12.18,0,0,1-4.87-4.33c-2.1-3.71-1.71-7,1.35-9.92a19.47,19.47,0,0,1,2-1.6s-.29,10.56-.28,11.83c0,1.74.41,2.1,2.07,1.58a24.31,24.31,0,0,0,2.63-1.17s.07.05.08.11c.16,2,.31,2.05,2.24,1.5,3.14-.89,4.24-2.17,4.57-5.4C43.66,33.41,43.85,25.91,43.52,25.94Z"/><path class="a" d="M30,26,27.92,20.5q-2.59-6.73-5.19-13.45A2.39,2.39,0,0,1,23,4.34c.76-.83,1.51-.82,2.09.14.72,1.18,1.34,2.41,2,3.64C29.06,12,31,15.91,33,19.79c.38.74.5,1.26-.25,1.9A2.21,2.21,0,0,0,32,23.3C32.15,24.77,31.35,25.4,30,26Z"/><path class="a" d="M38.58,18.11c-.84.89-1.48,1.83-2.85,1.8-.56,0-.86,0-1.11-.54-2.37-5.22-4.76-10.43-7.13-15.65A5.05,5.05,0,0,1,27,2.12,1.58,1.58,0,0,1,28.23.34,1.31,1.31,0,0,1,30,1.13C32.82,6.78,35.69,12.42,38.58,18.11Z"/><path class="a" d="M33.53,23.54c-.07-.89,1.17-1.94,3.1-2.2,0,.31.11,8.54.1,12.35,0,1.92-.49,3.63-2.4,4.57a3.31,3.31,0,0,1-.89.16c0-1.59,0-3.17,0-4.76C33.49,33.36,33.3,24.24,33.53,23.54Z"/><path class="a" d="M20.6,62.35c-1.61.93-3.16,2-4.84,2.78a5.84,5.84,0,0,1-6.15-.61C7.34,62.88,5.11,61.2,3,59.4A7.23,7.23,0,0,1,.32,52.63Q.67,49.8,1.08,47A6.94,6.94,0,0,1,6,41a61.94,61.94,0,0,1,7.9-2.16c2.77-.5,6.1-.64,8.48,1a5.1,5.1,0,0,1,2.1,2.1c.48.87.12,3.81-.52,6.14-1.74-.13-4-.23-7.41-.43-.07,0,.45-2.28.41-2.28a40.28,40.28,0,0,0-5.74,2.55c.29.26.56.72.88.76,1.58.19,3.19.25,4.78.4l19.59,1.82a3.59,3.59,0,0,1,3.2,1.91c.65,1.32.35,1.87-1.13,1.87l-25.62,0a2.77,2.77,0,0,0-1,0c-.29.12-.73.48-.7.66a1.72,1.72,0,0,0,.68.85c.14.11.43,0,.66,0q12.12.27,24.25.56A18.35,18.35,0,0,1,39,57a3.58,3.58,0,0,1,2.71,2.54c.13.59-.06.95-.7,1-.33,0-.67,0-1,0H14.61a2.34,2.34,0,0,0-.88,0,4.91,4.91,0,0,0-1,.69c.33.27.65.74,1,.76,1.89.07,3.8,0,5.7,0h1.07Z"/></svg>