<svg xmlns="http://www.w3.org/2000/svg" viewBox="0 0 87.11 87.11"><defs><style>.a{stroke:#000;stroke-miterlimit:10;stroke-width:0.5px;}</style></defs><title>icons--bsl-2</title><path class="a" d="M43.56.25a43.31,43.31,0,1,0,43.3,43.31A43.31,43.31,0,0,0,43.56.25Zm1.21,8.92A1.32,1.32,0,0,1,46.5,10c2.86,5.65,5.73,11.29,8.62,17-.84.89-1.48,1.83-2.85,1.81-.56,0-.86,0-1.11-.55C48.79,23,46.4,17.77,44,12.55a5,5,0,0,1-.46-1.6A1.58,1.58,0,0,1,44.77,9.17Zm5.3,23.2c-.07-.89,1.17-1.94,3.1-2.2,0,.31.11,8.54.1,12.35,0,1.93-.49,3.63-2.4,4.57a3.31,3.31,0,0,1-.89.16c0-1.59,0-3.17,0-4.75C50,42.19,49.84,33.07,50.07,32.37ZM39.58,13.17c.76-.83,1.51-.82,2.09.14.72,1.18,1.34,2.41,2,3.64,2,3.89,3.92,7.79,5.91,11.67.38.75.5,1.26-.25,1.9a2.21,2.21,0,0,0-.79,1.61c.19,1.47-.61,2.1-1.93,2.65-.72-1.86-1.42-3.65-2.11-5.45q-2.6-6.72-5.19-13.45A2.39,2.39,0,0,1,39.58,13.17Zm18,56.17c-.33,0-.67,0-1,0H31.16a2.39,2.39,0,0,0-.89,0,4.91,4.91,0,0,0-1,.69c.33.27.65.75,1,.76,1.89.08,3.8,0,5.7,0h1.07c0,.1,0,.21.07.31-1.61.94-3.16,2-4.84,2.78a5.84,5.84,0,0,1-6.15-.61c-2.27-1.63-4.5-3.32-6.64-5.12a7.22,7.22,0,0,1-2.65-6.77c.23-1.88.48-3.77.76-5.65a6.94,6.94,0,0,1,4.89-6,61.94,61.94,0,0,1,7.9-2.16c2.77-.5,6.1-.64,8.48,1A5.05,5.05,0,0,1,41,50.79c.48.86.12,3.8-.52,6.13-1.74-.13-4-.23-7.41-.42-.07,0,.45-2.28.41-2.29a41.43,41.43,0,0,0-5.74,2.55c.29.27.56.73.88.77,1.58.19,3.19.24,4.78.39L53,59.74a3.59,3.59,0,0,1,3.2,1.91c.65,1.32.35,1.87-1.13,1.87l-25.62-.05a2.77,2.77,0,0,0-1,0c-.29.12-.73.48-.7.66a1.67,1.67,0,0,0,.68.85c.14.11.43,0,.66,0l24.25.57a16.54,16.54,0,0,1,2.22.23,3.55,3.55,0,0,1,2.71,2.53C58.38,69,58.19,69.31,57.55,69.34Zm1.7-15.55a22.77,22.77,0,0,1-9-2.55,12.1,12.1,0,0,1-4.87-4.33c-2.1-3.71-1.71-7,1.35-9.92a19.47,19.47,0,0,1,2-1.6S48.44,46,48.45,47.22c0,1.75.41,2.1,2.07,1.59a24.41,24.41,0,0,0,2.63-1.18.21.21,0,0,1,.08.11c.16,1.95.31,2,2.24,1.5,3.14-.89,4.24-2.17,4.57-5.4.16-1.59.35-9.09,0-9.07-1,.06-1,1-1.07,1.7-.17,2.53-.27,5.07-.51,7.59-.22,2.28-1.18,3.2-3.64,3.68,0-.41-.06-.79-.06-1.18v-15c0-.3,0-.6,0-.9.17-2,1-2.68,3-2.28,3.89.8,7.52,2.12,9.4,6a13.35,13.35,0,0,1,1.12,3.37c.37,2.05.58,4.13.84,6.2C69.86,50,65.24,54.5,59.25,53.79Z"/></svg>