<svg xmlns="http://www.w3.org/2000/svg" viewBox="0 0 22.66 22.67"><path d="M6.29,27A.63.63,0,0,0,6.73,28a.66.66,0,0,0,.45-.18l5.31-5.32,2.92,2.92c1,1,4.52,3.64,8.56-.41,2.49-2.49,2.85-4.8,2.42-6.87S25,11.25,25,11.25a1.7,1.7,0,0,0-.3-.67l-.11-.13,4-4h0a.62.62,0,0,0,0-.89.64.64,0,0,0-.89,0ZM21,14l.72-.72h0l.71,1.48ZM13.29,7.39a1.25,1.25,0,0,0,0,1.77h0l4.42,4.43a.34.34,0,0,1,.09.12l1.79-1.79L15.06,7.39,15,7.3A1.24,1.24,0,0,0,13.29,7.39ZM9.75,8.57a1.25,1.25,0,0,0,0,1.77h0L15.35,16a.34.34,0,0,1,.09.12l1.81-1.81-.07,0-.06-.05-5.6-5.61-.1-.09A1.24,1.24,0,0,0,9.75,8.57ZM8,11.52a1.25,1.25,0,0,0,0,1.77H8l5.12,5.12,1.79-1.79-.07,0-.06,0-5-5-.1-.09A1.24,1.24,0,0,0,8,11.52Zm-.59,4.13a1.25,1.25,0,0,0,0,1.77h0l3.35,3.35L12.51,19,9.16,15.65l-.1-.09A1.24,1.24,0,0,0,7.39,15.65Z" transform="translate(-6.1 -5.36)" style="fill:#fff"/></svg>