<?xml version="1.0" encoding="UTF-8"?>
<svg width="512px" height="384px" viewBox="0 0 512 384" version="1.1" xmlns="http://www.w3.org/2000/svg" xmlns:xlink="http://www.w3.org/1999/xlink">
    <!-- Generator: Sketch 51.1 (57501) - http://www.bohemiancoding.com/sketch -->
    <title>icons--hide</title>
    <desc>Created with Sketch.</desc>
    <defs></defs>
    <g id="Page-1" stroke="none" stroke-width="1" fill="none" fill-rule="evenodd">
        <g id="icons--hide" fill="#FFFFFF" fill-rule="nonzero">
            <path d="M256.011,42.673 C124.576,42.673 7.456,179.292 2.528,185.116 C-0.843,189.084 -0.843,194.908 2.528,198.897 C5.472,202.374 48.523,252.358 110.603,292.166 L177.462,225.307 C173.11,215.067 170.678,203.824 170.678,192.006 C170.678,144.945 208.95,106.673 256.011,106.673 C267.83,106.673 279.072,109.105 289.312,113.457 L344.288,58.481 C317.493,48.902 288.075,42.673 256.011,42.673 Z" id="Shape"></path>
            <path d="M510.112,185.926 C507.381,181.979 462.091,118.235 385.952,77.147 L444.896,18.203 C449.056,14.043 449.056,7.28 444.896,3.12 C440.736,-1.04 433.973,-1.04 429.813,3.12 L67.147,365.788 C62.987,369.948 62.987,376.711 67.147,380.871 C69.216,382.962 71.947,384.007 74.678,384.007 C77.409,384.007 80.139,382.962 82.23,380.892 L149.11,314.012 C182.07,330.097 218.422,341.34 256.011,341.34 C387.446,341.34 504.566,204.721 509.494,198.897 C512.587,195.206 512.864,189.894 510.112,185.926 Z M256.011,277.34 C236.32,277.34 218.422,270.364 203.958,259.143 L323.147,139.954 C334.368,154.418 341.344,172.317 341.344,192.007 C341.344,239.068 303.072,277.34 256.011,277.34 Z" id="Shape"></path>
        </g>
    </g>
</svg>