<svg xmlns="http://www.w3.org/2000/svg" viewBox="0 0 19.52 20.19"><path d="M2.88,2.26A1.27,1.27,0,0,0,2.88,4h0L8.49,9.64a.42.42,0,0,1-.59.59h0l-5-5-.09-.09A1.25,1.25,0,0,0,1.11,7h0l5.61,5.61a.42.42,0,0,1-.59.59h0L2.29,9.34,2.2,9.26a1.25,1.25,0,0,0-1.68.08,1.27,1.27,0,0,0,0,1.77h0l8,8c1,1,4.52,3.64,8.57-.41,2.49-2.49,2.84-4.79,2.42-6.87s-1.42-6.91-1.42-6.91a1.58,1.58,0,0,0-1.84-1.28,1.63,1.63,0,0,0-1.14,2h0l.44,2.83L8.2,1.08,8.1,1A1.25,1.25,0,0,0,6.43,2.85h0l4.42,4.43a.42.42,0,0,1-.59.59h0L4.66,2.26l-.1-.09A1.26,1.26,0,0,0,2.88,2.26Z" transform="translate(-0.16 -0.71)" style="fill:#fff"/></svg>