
<svg viewBox="0 0 227 24" xmlns="http://www.w3.org/2000/svg">
                <path fill="#fff" d="M11.9563611,24 C5.3638881,24 0,18.6171442 0,12 C0,5.3842147 5.3638881,0 11.9563611,0 C15.2559828,0 18.4416377,1.39508549 20.6997605,3.82719964 C21.7223025,4.92832069 21.6613697,6.65247424 20.5641287,7.67885857 C19.4684675,8.70365757 17.7472299,8.64364172 16.726042,7.54274714 C15.4742123,6.194089 13.7805074,5.4510248 11.9563611,5.4510248 C8.35839463,5.4510248 5.43159116,8.38931038 5.43159116,12 C5.43159116,15.6120485 8.35839463,18.5492017 11.9563611,18.5492017 C13.7775736,18.5492017 15.4715042,17.8047786 16.726042,16.4531763 C17.7472299,15.3520553 19.4668877,15.2895482 20.5641287,16.315706 C21.6613697,17.3407315 21.7223025,19.0664704 20.6997605,20.167365 C18.4402836,22.6035557 15.2532747,24 11.9563611,24"></path>
                <path fill="#fff" d="M36.0001132,24 C29.3842655,24 24,18.6160118 24,12.0002265 C24,5.3842147 29.3842655,0 36.0001132,0 C42.615961,0 48,5.3842147 48,12.0002265 C48,13.5037935 46.7792887,14.7247197 45.2741222,14.7247197 L30.0455785,14.7247197 C31.0812581,16.979957 33.3609761,18.5492017 36.0001132,18.5492017 C37.5052797,18.5492017 38.7262176,19.7685426 38.7262176,21.2739214 C38.7262176,22.7790737 37.5052797,24 36.0001132,24 M30.0455785,9.27414789 L41.954648,9.27414789 C40.9187419,7.02004303 38.6390239,5.4510248 36.0001132,5.4510248 C33.3609761,5.4510248 31.0812581,7.02004303 30.0455785,9.27414789"></path>
                <path fill="#fff" d="M71.84535,24 C70.3401977,24 69.1206302,22.7723464 69.1206302,21.2572145 L69.1206302,12.0793358 C69.1206302,8.44333834 66.1821182,5.48693885 62.5714286,5.48693885 C58.9593801,5.48693885 56.0222269,8.44333834 56.0222269,12.0793358 L56.0222269,21.2572145 C56.0222269,22.7723464 54.8015271,24 53.2977336,24 C51.7923549,24 50.5714286,22.7723464 50.5714286,21.2572145 L50.5714286,12.0793358 C50.5714286,5.41968577 55.9556433,0 62.5714286,0 C69.1872139,0 74.5714286,5.41968577 74.5714286,12.0793358 L74.5714286,21.2572145 C74.5714286,22.7723464 73.3505023,24 71.84535,24"></path>
                <path fill="#fff" d="M88.6107035,9.78314072 C84.9380665,8.96329028 83.4700043,8.62565148 83.4700043,7.22841604 C83.4700043,5.8311806 85.3517479,5.06027646 87.416271,5.06027646 C88.5172637,5.06027646 89.5535175,5.3383186 90.4197238,5.68411511 C90.7567976,5.81894403 91.1083297,5.92522094 91.4896418,5.92522094 C92.8293051,5.92522094 93.91735,4.78382053 93.91735,3.37593474 C93.91735,2.22796284 93.2054381,1.22411058 92.211912,0.905506458 C90.9100129,0.404486744 89.2837721,0 87.416271,0 C81.4495037,0 78.0556754,3.56650804 78.0556754,7.13301609 C78.0556754,11.4688421 81.8165732,13.3972354 86.1324989,14.3612055 C89.4354769,15.084523 90.4469141,15.3732155 90.4469141,16.8683435 C90.4469141,18.265579 88.5653863,18.9394969 86.3152784,18.9394969 C84.2895986,18.9394969 82.7788088,18.0734194 81.4287872,17.3612055 C81.4028917,17.3505552 81.4287872,17.3612055 81.4287872,17.3612055 C81.1422098,17.2399728 80.7816142,17.1420802 80.4536038,17.1420802 C79.0984031,17.1420802 78,18.294131 78,19.7171992 C78,20.734421 78.5627967,21.616814 79.3798015,22.0348969 C81.0332326,23.0346703 83.419508,24 86.4993526,24 C92.0524385,24 96,20.8678903 96,16.9635169 C96,12.2397462 92.9251187,10.7471108 88.6107035,9.78314072"></path>
                <path fill="#fff" d="M111.427892,24 C104.812481,24 99.4285714,18.5803142 99.4285714,11.9204362 L99.4285714,2.74415335 C99.4285714,1.22879343 100.649429,0 102.153137,0 C103.659789,0 104.88042,1.22879343 104.88042,2.74415335 L104.88042,11.9204362 C104.88042,15.5564337 107.817407,18.5130612 111.427892,18.5130612 C115.039962,18.5130612 117.976496,15.5564337 117.976496,11.9204362 L117.976496,2.74415335 C117.976496,1.22879343 119.197354,0 120.702647,0 C122.207714,0 123.428571,1.22879343 123.428571,2.74415335 L123.428571,11.9204362 C123.428571,18.5803142 118.043303,24 111.427892,24"></path>
                <path fill="#fff" d="M136.610172,9.78314072 C132.938566,8.96329028 131.469103,8.62565148 131.469103,7.22841604 C131.469103,5.8311806 133.350766,5.06027646 135.415654,5.06027646 C136.51802,5.06027646 137.554349,5.3383186 138.419322,5.68411511 C138.774549,5.82574213 139.106683,5.92522094 139.490612,5.92522094 C140.830372,5.92522094 141.915905,4.78382053 141.915905,3.37593474 C141.915905,2.22796284 141.203726,1.26240653 140.211639,0.905506458 C138.910726,0.404486744 137.284584,0 135.415654,0 C129.449752,0 126.05309,3.56650804 126.05309,7.13301609 C126.05309,11.4688421 129.818143,13.3972354 134.130494,14.3612055 C137.4363,15.084523 138.44522,15.3732155 138.44522,16.8683435 C138.44522,18.265579 136.563341,18.9394969 134.314582,18.9394969 C132.288972,18.9394969 130.731242,18.0503059 129.379829,17.3396782 C129.355226,17.3258554 129.379829,17.3396782 129.379829,17.3396782 C129.094526,17.2157263 128.780735,17.1420802 128.452485,17.1420802 C127.097187,17.1420802 126,18.294131 126,19.7171992 C126,20.734421 126.577081,21.5964197 127.378606,22.0348969 C129.030861,23.0346703 131.419682,24 134.498669,24 C140.052155,24 144,20.8678903 144,16.9635169 C144,12.2397462 140.924897,10.7471108 136.610172,9.78314072"></path>
                <path fill="#fff" d="M212.775437,22.1100439 L212.775437,21.9317979 C212.775437,20.8976968 213.341308,20.4339375 214.437739,20.4339375 L218.257366,20.4339375 L218.257366,3.99421822 C216.878,5.09975465 216.312129,5.74153179 215.640101,6.27649822 C214.932763,6.84706822 214.366892,7.06114608 213.765711,7.06114608 C212.563349,7.06114608 211.891321,6.02681679 211.891321,4.81446966 L218.71708,0.285285 L219.954979,0.285285 C220.980789,0.285285 221.58197,0.855854999 221.58197,1.96161966 L221.54666,20.4339375 L224.623639,20.4339375 C225.719844,20.4339375 226.285714,20.8976968 226.285714,21.9317979 L226.285714,22.1100439 C226.285714,23.1085414 225.719844,23.5364689 224.623639,23.5364689 L214.437739,23.5364689 C213.341308,23.5364689 212.775437,23.1085414 212.775437,22.1100439 M191.378732,21.5394739 L191.378732,20.6480154 C191.378732,15.9052093 195.021356,13.8011754 198.452117,12.0892371 C201.458248,10.5913768 204.146361,9.45023679 204.146361,6.95410715 C204.146361,4.56478822 202.413438,3.13836322 199.477701,3.13836322 C196.117787,3.13836322 194.526332,5.20679359 193.889614,7.56028072 C193.889614,7.66731965 191.484663,7.70292322 191.484663,5.77736359 C191.484663,4.56478822 192.192002,3.13836322 193.571368,1.99722323 C194.950735,0.855854999 197.03744,0 199.725326,0 C204.712232,0 207.718363,2.60339679 207.718363,6.88267179 C207.718363,11.0193043 204.464607,12.6598071 200.998535,14.2647064 C197.992177,15.6199243 195.516606,16.9037068 194.915425,19.3642329 C194.844578,19.6851214 194.773957,20.0416136 194.773957,20.3983339 L206.374534,20.3983339 C207.576896,20.3983339 208.107456,20.8976968 208.107456,21.8247589 L208.107456,22.0388368 C208.107456,23.0015025 207.576896,23.5364689 206.374534,23.5364689 L193.642215,23.5364689 C192.050534,23.5364689 191.378732,23.0015025 191.378732,21.5394739 M184.69512,13.3015843 L184.69512,10.7340193 C184.69512,5.88417429 182.502484,3.03132429 178.788787,3.03132429 C175.075091,3.03132429 172.953076,5.81296715 172.953076,10.6628121 L172.953076,13.2659807 C172.953076,18.1160539 175.110628,20.8976968 178.788787,20.8976968 C182.573105,20.8976968 184.69512,18.1516575 184.69512,13.3015843 M169.274689,13.1947736 L169.274689,10.8410582 C169.274689,4.17246429 172.917765,0 178.788787,0 C184.730657,0 188.337969,4.13686072 188.337969,10.8054546 L188.337969,13.1233382 C188.337969,19.7921604 184.69512,24 178.788787,24 C172.847145,24 169.274689,19.8633675 169.274689,13.1947736 M150,21.5394739 L150,20.6480154 C150,15.9052093 153.643076,13.8011754 157.073611,12.0892371 C160.079742,10.5913768 162.767628,9.45023679 162.767628,6.95410715 C162.767628,4.56478822 161.034706,3.13836322 158.099195,3.13836322 C154.739507,3.13836322 153.147826,5.20679359 152.511334,7.56028072 C152.511334,7.66731965 150.106157,7.70292322 150.106157,5.77736359 C150.106157,4.56478822 150.813496,3.13836322 152.193089,1.99722323 C153.572229,0.855854999 155.658934,0 158.34682,0 C163.333726,0 166.340084,2.60339679 166.340084,6.88267179 C166.340084,11.0193043 163.086101,12.6598071 159.620029,14.2647064 C156.613897,15.6199243 154.1381,16.9037068 153.536919,19.3642329 C153.466298,19.6851214 153.395451,20.0416136 153.395451,20.3983339 L164.996027,20.3983339 C166.198616,20.3983339 166.72895,20.8976968 166.72895,21.8247589 L166.72895,22.0388368 C166.72895,23.0015025 166.198616,23.5364689 164.996027,23.5364689 L152.263709,23.5364689 C150.672028,23.5364689 150,23.0015025 150,21.5394739" ></path>
</svg>
