<svg xmlns="http://www.w3.org/2000/svg" width="200" height="17.45"><defs><style>.a{fill:#a8bd3a;}.a,.b{fill-rule:evenodd;}.b{fill:#033e58;}</style></defs><title>ons-logo-en</title><path class="a" d="M1.64,0S0,0,0,2v.27A22.91,22.91,0,0,0,1.36,7.72,18.45,18.45,0,0,1,15,0ZM0,10.27.73,8.81A8.35,8.35,0,0,1,0,6.63Z"/><path class="b" d="M26.9,4C24,4,22.63,6.54,22.63,9.45S24,14.9,26.9,14.9s4.27-2.45,4.27-5.45S29.8,4,26.9,4Zm0,9.81c-2.18,0-2.91-2.36-2.91-4.45s.73-4.54,2.91-4.54,2.9,2.36,2.9,4.54S29.08,13.81,26.9,13.81Zm6.72-8.54V6.45H32.35v.73h1.27v7.54H34.8V7.18h1.73V6.45H34.8V5.09a1.59,1.59,0,0,1,1.55-1.73h.18V2.64h-.27A2.43,2.43,0,0,0,33.62,5.27Zm4.91,0V6.45H37.26v.73h1.27v7.54h1.18V7.18h1.73V6.45H39.71V5.09a1.59,1.59,0,0,1,1.54-1.73h.19V2.64h-.28A2.43,2.43,0,0,0,38.53,5.27Zm51.7,5.54.09,1.28L89.78,11,85.32,4.18H83.6V14.72h1.54V6.45a3.5,3.5,0,0,0,.55,1l4.63,7.18h1.46V4.27H90.23Zm14-6.63-1.73.45V6.45h-1.18V7.54h1.18v5.09a2.1,2.1,0,0,0,2.36,2.18l1-.18v-1l-.45.09a1.07,1.07,0,0,1-1.09-1.18v-5H106V6.45h-1.63V4.18ZM96.87,6.27A8.31,8.31,0,0,0,94,6.82l.36,1a7.16,7.16,0,0,1,2.18-.45c1.09,0,1.91.36,1.91,1.45v.46c-2.73.18-5.09.82-5.09,3,0,1.54,1.09,2.54,3.55,2.54a7.49,7.49,0,0,0,3.18-.54V9.09C100,7.09,98.59,6.27,96.87,6.27Zm1.54,7.45a3.55,3.55,0,0,1-1.36.27c-1.28,0-2-.54-2-1.63,0-1.64,1.36-2,3.36-2.18ZM75.87,6.82v7.9h1.19V7.45a4.11,4.11,0,0,1,2.36-.18l.27-1h-.54A8.18,8.18,0,0,0,75.87,6.82Zm31.26,7.9h1.73V6.45h-1.73ZM43.43,3.36a.67.67,0,0,0-.72.73.72.72,0,0,0,.72.73.67.67,0,0,0,.73-.73A.71.71,0,0,0,43.43,3.36ZM70.79,6.27c-2.37,0-3.55,1.91-3.55,4.36s1.09,4.27,3.55,4.27,3.54-1.82,3.54-4.27S73.24,6.27,70.79,6.27Zm0,7.72c-1.73,0-2.28-1.72-2.28-3.45S69.06,7,70.79,7s2.36,1.81,2.36,3.54S72.6,14,70.79,14Zm-28.08.64h1.18V6.45H42.71Zm6.72-7.54a2.82,2.82,0,0,1,1.46.45l.27-.72a3.23,3.23,0,0,0-2-.55c-2,0-3.45,1.64-3.45,4.27s1.45,4.36,3.45,4.36a3.48,3.48,0,0,0,2.09-.54l-.36-.91a3.11,3.11,0,0,1-1.46.45c-1.45,0-2.54-1.45-2.54-3.45S47.71,7.09,49.43,7.09ZM63.52,5.27V6.45H62.24v.73h1.28v7.54H64.7V7.18h1.72V6.45H64.7V5.09a1.58,1.58,0,0,1,1.54-1.73h.18V2.64h-.27A2.43,2.43,0,0,0,63.52,5.27Zm-8,1c-2.09,0-3.63,1.45-3.63,4.27s1.63,4.36,4,4.36a5.81,5.81,0,0,0,2.64-.54l-.36-.91A6,6,0,0,1,56,14c-1.72,0-2.72-1-2.9-2.9l5.81-.73C59,7.54,57.61,6.27,55.52,6.27Zm-2.45,4.09c0-2.27,1.09-3.27,2.45-3.27s2.18.82,2.18,2.72Zm99.32-6.18-1.73.55V6.54h-1.18V7.63h1.18v5.09A2.1,2.1,0,0,0,153,14.9l1-.18V13.63l-.45.09a1.07,1.07,0,0,1-1.09-1.18V7.63h1.63V6.45h-1.63V4.18Zm29,0-1.72.55V6.54h-1.19V7.63h1.19v5.09A2.1,2.1,0,0,0,182,14.9l1-.18V13.63l-.46.09a1.07,1.07,0,0,1-1.09-1.18V7.63h1.64V6.45h-1.64V4.18Zm-7.45,4.45a1.29,1.29,0,0,1,1.45-1.18,2.22,2.22,0,0,1,1.46.55l.45-1a5.19,5.19,0,0,0-2.36-.55A2.69,2.69,0,0,0,172,8.91c0,2.63,3.64,1.72,3.64,3.72,0,.73-.73,1.27-1.64,1.27a2.3,2.3,0,0,1-1.72-.54l-.46,1.09a5.88,5.88,0,0,0,2.55.54c2,0,3.27-1.27,3.27-2.54-.09-2.82-3.73-2-3.73-3.82Zm-4.27-5.36a1,1,0,0,0-1,.91,1,1,0,0,0,2,0A1,1,0,0,0,169.65,3.27Zm-.91,11.45h1.73V6.45h-1.73Zm15.63,0h1.73V6.45h-1.73Zm11.81-6.09c0-.63.55-1.18,1.46-1.18a2.19,2.19,0,0,1,1.45.55l.46-1a5.17,5.17,0,0,0-2.28-.55,2.68,2.68,0,0,0-2.9,2.46c0,2.63,3.63,1.72,3.63,3.72a1.46,1.46,0,0,1-1.63,1.27,2.33,2.33,0,0,1-1.73-.54l-.46,1.09a5.88,5.88,0,0,0,2.55.54c2,0,3.27-1.27,3.27-2.54-.18-2.82-3.82-2-3.82-3.82Zm-4.63,5.09c-1.27,0-2.18-1.27-2.18-3.09s.73-3.09,2.18-3.09a3.64,3.64,0,0,1,1.36.37l.37-1a3.7,3.7,0,0,0-2.19-.55c-2,0-3.63,1.64-3.63,4.36S189,15.08,191,15.08a4.24,4.24,0,0,0,2.18-.54l-.45-1.09a2.68,2.68,0,0,1-1.18.27ZM185.28,3.27a1,1,0,0,0-1,.91,1,1,0,0,0,2,0A1,1,0,0,0,185.28,3.27Zm-54.16,3a8.42,8.42,0,0,0-2.91.55l.46,1a7.09,7.09,0,0,1,2.18-.45c1.09,0,1.91.36,1.91,1.45v.46c-2.73.18-5.09.82-5.09,3,0,1.54,1.09,2.54,3.54,2.54a7.43,7.43,0,0,0,3.18-.54V9.09c-.09-2-1.45-2.82-3.27-2.82Zm1.55,7.45a3.6,3.6,0,0,1-1.37.27c-1.27,0-2-.54-2-1.63,0-1.64,1.37-2,3.37-2.18ZM114.22,6.27c-2.54,0-3.72,1.82-3.72,4.36s1.27,4.27,3.72,4.27S118,13.08,118,10.54,116.67,6.27,114.22,6.27Zm0,7.54c-1.45,0-2-1.54-2-3.09s.46-3.18,2-3.18,2,1.55,2,3.18S115.67,13.81,114.22,13.81Zm8.36-7.45a7.77,7.77,0,0,0-3.27.55v7.81H121V7.63a3.31,3.31,0,0,1,1.36-.18c1,0,1.91.36,1.91,1.46v5.9H126V8.91c.19-1.91-1.27-2.55-3.45-2.55Zm43.25-2.18-1.72.55V6.54h-1.18V7.63h1.18v5.09a2.1,2.1,0,0,0,2.36,2.18l1-.18V13.63l-.55.09a1.07,1.07,0,0,1-1.09-1.18V7.63h1.64V6.45h-1.55V4.18ZM108,3.27a1,1,0,0,0-1,.91.94.94,0,0,0,1,.91,1,1,0,0,0,1-.91A1.07,1.07,0,0,0,108,3.27Zm50.34,3a8.42,8.42,0,0,0-2.91.55l.46,1a7.09,7.09,0,0,1,2.18-.45c1.09,0,1.91.36,1.91,1.45v.46c-2.73.18-5.09.82-5.09,3,0,1.54,1.09,2.54,3.54,2.54a7.43,7.43,0,0,0,3.18-.54V9.09c0-2-1.36-2.82-3.27-2.82Zm1.55,7.45a3.6,3.6,0,0,1-1.37.27c-1.27,0-2-.54-2-1.63,0-1.64,1.36-2,3.36-2.18Zm-23.72,1h1.73v-12h-1.73ZM144,6.91a1.69,1.69,0,0,1,1.81-1.73,3.31,3.31,0,0,1,1.82.54l.45-1.18A5,5,0,0,0,145.57,4a3.16,3.16,0,0,0-3.45,3.09c0,3.27,4.36,2.36,4.36,4.63a1.89,1.89,0,0,1-2.09,1.73,3.65,3.65,0,0,1-2.09-.55l-.55,1.28a7.23,7.23,0,0,0,2.91.54c2.18,0,3.73-1.36,3.73-3.27.18-3.18-4.36-2.27-4.36-4.54ZM3.18,12.81a13.48,13.48,0,0,1-1.64-2.36L0,14v3.37H10.18a12.76,12.76,0,0,1-7-4.55ZM5.36,5.54A13.38,13.38,0,0,0,2.09,9.45c2.18,4.09,6.45,7.63,13.18,8h.18a2,2,0,0,0,2.09-2.18V1.09h-.09C11.9,1.64,8.09,3.27,5.36,5.54Z"/></svg>
